<svg xmlns="http://www.w3.org/2000/svg" viewBox="0 0 1305 384"><defs><style>.cls-1,.cls-2{fill:none;stroke:#c2c2c2;}.cls-1{stroke-miterlimit:10;}.cls-3{fill:#201452;}</style></defs><title>visuels-final</title><g id="Calque_4" data-name="Calque 4"><g id="Groupe_62" data-name="Groupe 62"><line id="Ligne_22" data-name="Ligne 22" class="cls-1" x1="1111.79" y1="0.31" x2="1111.79" y2="383.81"/><line id="Ligne_23" data-name="Ligne 23" class="cls-1" x1="1207.79" y1="0.31" x2="1207.79" y2="383.81"/><line id="Ligne_24" data-name="Ligne 24" class="cls-1" x1="799.7" y1="0.31" x2="799.7" y2="383.81"/><line id="Ligne_25" data-name="Ligne 25" class="cls-1" x1="900.09" y1="0.31" x2="900.09" y2="383.81"/><line id="Ligne_26" data-name="Ligne 26" class="cls-1" x1="1007.52" y1="0.31" x2="1007.52" y2="383.81"/><line id="Ligne_27" data-name="Ligne 27" class="cls-1" x1="502.73" y1="0.81" x2="502.73" y2="384.31"/><line id="Ligne_28" data-name="Ligne 28" class="cls-1" x1="603.12" y1="0.81" x2="603.12" y2="384.31"/><line id="Ligne_29" data-name="Ligne 29" class="cls-1" x1="704.55" y1="0.81" x2="704.55" y2="384.31"/><path id="Tracé_488" data-name="Tracé 488" class="cls-2" d="M195.79.81v383.5"/><line id="Ligne_31" data-name="Ligne 31" class="cls-1" x1="299.87" y1="0.81" x2="299.87" y2="384.31"/><line id="Ligne_32" data-name="Ligne 32" class="cls-1" x1="401.3" y1="0.81" x2="401.3" y2="384.31"/><line id="Ligne_33" data-name="Ligne 33" class="cls-1" x1="97.79" y1="0.81" x2="97.79" y2="384.31"/><line id="Ligne_34" data-name="Ligne 34" class="cls-1" x1="0.79" y1="307.31" x2="1305.29" y2="307.31"/><line id="Ligne_35" data-name="Ligne 35" class="cls-1" x1="0.79" y1="234.95" x2="1305.29" y2="234.95"/><line id="Ligne_36" data-name="Ligne 36" class="cls-1" x1="0.79" y1="158.57" x2="1305.29" y2="158.57"/><line id="Ligne_37" data-name="Ligne 37" class="cls-1" x1="0.79" y1="80.5" x2="1299.44" y2="80.5"/><path id="Tracé_486" data-name="Tracé 486" class="cls-3" d="M424.8,349.1c-2.34,1.43-3.68-1.53-6.16-.84s-4-.77-4.09-3a1.22,1.22,0,0,0-.35-.56c-2.72,1-4.38-2.28-7.16-1.22-.5.19-1.27-.11-1.91-.18a1.05,1.05,0,0,0-1.19-.44,5.15,5.15,0,0,1-5.6-.32,5.44,5.44,0,0,0-5.34.21c-1.69,1.26-3.13,1.23-5.05.39a6.78,6.78,0,0,0-6.37.29,1.56,1.56,0,0,0-.2.16c-.66.5-1.76,1-2.29.58-2.39-1.72-5.54.88-7.79-1.07a2.45,2.45,0,0,1-1-1.87c0-.9.68-2.16-.9-2.25-1.32-.08-3.26-.89-4,1.26-.42,1.24-2.22,1.64-3.57,1.14-1.67-.62-3.35-.3-4.93-.53-2.87-.42-5.15,2.14-8,.79-.15-.07-.66.49-1.06.69-1.48.77-3.18.71-4-.4-1-1.28-2.06-1.12-3.47-1.08s-2,.21-1.94,1.55c.13,1.72-1.12,2.87-3.14,3s-3.28-.73-3.46-2.41c-.11-1.06-.91-.9-1.76-1.23-2.71-1.06-5.57.57-8.19-.57-.67-.29-1,.3-1.38.55a3.66,3.66,0,0,1-4.15-.13,2.34,2.34,0,0,1-.93-3.14c.88-2.17-2-6.82-3.88-8.39-2.07-1.77-4.47-1.26-6.74-1.73l-1.14.9c-2.75-.14-4.11.68-4,3.21s-2.83,3.73-5.27,2.26c-1-.61-2-.19-2.68-.42-3-1-6.31,1.09-9.08-.9-.49-.35-1,.14-1.53.29-1.25.39-2.68.42-3.36-.48a3.23,3.23,0,0,0-4.1-.76,2.88,2.88,0,0,0-1.63,3.41c.39,1.68-.35,3-2.4,3.44a3.35,3.35,0,0,1-4.13-2c-.1-.22-.2-.65-.22-.65-3,.48-4.38-1.4-6.38-2.56-.8-.47-3.38-.68-3.59,1.72-.13,1.47-1.85,2.09-3.66,1.83a2.76,2.76,0,0,1-2.71-2.57c0-.47,0-.93,0-1.39a1.22,1.22,0,0,0-1.19-1.13c-.73-.06-1.7-.15-1.92.6-.58,1.89-2.3,3.56-1.42,5.74.45,1.11-.07,2.16-1.29,2.86a3.64,3.64,0,0,1-3.69.1,2.6,2.6,0,0,1-1.55-3c.48-2.55-.88-4.2-3.36-4.57a1.69,1.69,0,0,0-1.79.62,3.69,3.69,0,0,1-4.08.72,2.51,2.51,0,0,1-1.72-3.12c.28-2,0-3.8-2.53-4.74a1.71,1.71,0,0,0-2.34.6l-.06.12c-1.24,1.86-3.23,2.15-5.14.79a3.61,3.61,0,0,0-2.41-.46c-2.35-.08-3.17.59-3.3,2.61s-2.38,2.53-5.56,1.54l-1.05-1.45c-.16-1.21.67-2.46-.29-3.64-.36-.44-.54-1-1.4-.94s-1.16.41-1.24,1c-.35,2.75-2.68,5.2-1.33,8.28.78,1.79-2.12,3.5-4.52,2.67s-4,1.14-6.28.67c-.7-.15-.4,1-.28,1.56a2.62,2.62,0,0,1-1.84,3.1c-2.31,1-4.17,4.08-3.8,6.24.48,2.84-1.23,4.16-4.6,3.37a2.77,2.77,0,0,0-2.3.2,2.83,2.83,0,0,1-2.67.29,3.94,3.94,0,0,0-3.81,0c-.52.21-1.71.19-1.86-.05-1.58-2.47-5.43-.92-7.23-2.87a1.9,1.9,0,0,1-.59-1.75c.28-1.13.52-2.41-1.2-2.61-1.23-.14-2.84-1-3.9.94-.88,1.59-3.05,1.79-4.77.47a2,2,0,0,0-2.4-.42c-.38.17-1.15.3-1.32.14-2-1.9-4.85-1-7.19-1.23-2.11-.22-4.76-.39-6.83.83a4,4,0,0,1-3.7.36,2.65,2.65,0,0,1-1.88-2.67c.11-1.95-.8-3.14-3.19-3.68-1.92-.43-2.57-1.71-2.15-3.3.68-2.57-.36-4.16-3.46-5.18-.82-.27-1.74-.72-1.78-1.38-.17-2.43-2.36-1.29-3.64-1.4-1.72-.15-.94,1.19-1.15,1.9-.62,2-2.43,2.64-5.58,1.82L105.2,333a15.37,15.37,0,0,0-1.15-8.65c-.71-1.73-2.52-2.38-4.47-1.54a4.62,4.62,0,0,1-2.13.48c-1.58-.09-2.08.48-2.1,1.8,0,1.94-1.34,3-3.79,2.85-2.24-.17-2.89-1.42-2.84-3.11.07-2.93-1.07-4.08-4.39-4.52-1.53-.2-4,1.71-4.61,3.5s-1,3.47-1.58,5.19a2.58,2.58,0,0,0,.17,2c1,2.35-.2,3.92-3.12,3.91a2.94,2.94,0,0,0-2.71,1.16,3.25,3.25,0,0,1-4,.87c-1.51-.6-2.3-1.67-1.87-3,.32-1-.18-1.79-.57-2.66-.47-1.07-1.46-1.06-2.51-1-1.28.08-1.42.83-1.36,1.67.13,1.59-.61,2.75-2.5,3.23a3.11,3.11,0,0,1-4-1.9,3.06,3.06,0,0,1-.1-1.72c.77-3.8-1.4-7.22-2.34-10.79-.16-.59-1-.61-1.58-.88-1.34-.66-2.2-1.66-1.65-2.9s.83-2.49-.49-2.81c-1.51-.36-3.23-1.15-5-.31-2.86,1.36-3.94,1.11-5.52-1.36a1.93,1.93,0,0,0-2-1,3.46,3.46,0,0,1-3.73-2.29c0-.33,0-.66,0-1,.94-6.05-1.28-11.93-1.48-17.93a55.45,55.45,0,0,0-1.25-9.25c-.3-1.47-.76-2.49-2.82-1.24a4.81,4.81,0,0,1-3.51.38,6,6,0,0,0-2.77-.13,4.18,4.18,0,0,1-4.62-1.45c-1.35-1.65-3.14-1.77-5.19-1.16-1.4.42-2.79,1.06-4.11-.13L6,276a1.61,1.61,0,0,1-.68-1.68c.08-3-1.34-5.53-3.86-7.66-1.25-1.58-1.76-3.16,0-4.73,1.4-1.43,3-1.08,4.58-.3a4.44,4.44,0,0,1,1.46,1.89,3.08,3.08,0,0,1-.09,2.29c-.65,1.55.1,2.92.91,4.23s2.11,1.86,4,1.22c2.4-.83,4.5-.72,6.09,1.36,1.15,1.51,3.33,1.39,5.08,1.36a11.54,11.54,0,0,0,5.63-1.2,4.13,4.13,0,0,1,4.67.22c1.38,1,1.88,2.33,1.15,3.8a4.94,4.94,0,0,0-.6,3.17c1.37,7.13,1.61,14.36,2.79,21.5a9.46,9.46,0,0,0,2.81,5.67,4.75,4.75,0,0,0,5.18,1.15,7.12,7.12,0,0,1,4.08-.39,4.42,4.42,0,0,1,1.7,1.1,3.85,3.85,0,0,1,.92,2.16,4.11,4.11,0,0,0,2.84,3.23c2.28.89,3,2.34,2.36,4.42-1,3.26.89,6.23,1.76,9.29a.79.79,0,0,0,.8.55c.6,0,.66-.47.82-.82,1.32-3,2.43-3.86,4.48-3.56s3.3,1.74,3.55,4.4a2.2,2.2,0,0,0,1.38,2.14c1.14.45,1.87-.14,2.76-.64,4.56-2.56,4.5-6.63,4.56-10.39,0-3.22,1.26-4.71,5.14-4.33a7.38,7.38,0,0,0,2.72-.34c3.1-.82,5.4.57,5.51,3.28a8.07,8.07,0,0,0,0,1.39c.19,1,.54,2,1.88,2.05s1.1-1,1.35-1.72c.72-2,2-2.84,4.53-2.67a7.8,7.8,0,0,0,3.55-.41,4.05,4.05,0,0,1,3.48.23,3.61,3.61,0,0,1,1.43,1.31c.5,2.67-.05,5.45,1.26,8,.32.62.24,1.58,1.29,1.61s.83-.9,1.15-1.42a4.32,4.32,0,0,1,5.92-1.59,4.1,4.1,0,0,1,1.11.92,5.16,5.16,0,0,0,2.71,1.46c2.51.57,3.48,1.75,3.44,3.94a4.56,4.56,0,0,0,3.17,4.76,3.19,3.19,0,0,1,2.25,3.43c0,2.43,1.31,3.32,3.93,2.53a24.18,24.18,0,0,1,12-.18c2.16.42,4.37.72,6.55,1.13a4.88,4.88,0,0,0,4.28-1.15c2.22-1.89,6-1.14,6.3,1.38.51,3.64,4.12,3.85,6.89,4.88s5.72.26,8.59.37a4.63,4.63,0,0,0,4.8-4.48,4.25,4.25,0,0,0,0-.8c-.47-3.18-.22-3.62,3.33-5a3.07,3.07,0,0,0,1.87-1.9c1.17-2.66,2.1-3.13,5.43-2.89,2.55.19,3.95-.5,4.57-2.56s1.62-4.09,1.35-6.38c-.35-3,2.09-4.28,5.65-3.28a4.69,4.69,0,0,1,1.5,1.23c.83,1,.42,2.11.6,3.17a1.69,1.69,0,0,0,1.7,1.6c1,0,1-.75,1.26-1.31,1.3-2.94,2.88-3.52,6.5-2.45,2.12.63,4.14.86,5.84-.87a3.94,3.94,0,0,1,4.37-.7,3.13,3.13,0,0,1,2.43,3.13,5.37,5.37,0,0,0,.65,3.63c.83,1.2,1.9,1.57,3.48.75,4.05-2.1,6.52-1,6.69,3,.05,1.15-.11,2.75,1.53,2.88,1.21.1,1.19-1.54,1.62-2.43a5,5,0,0,0,.17-2.54,3.62,3.62,0,0,1,3.23-4h.1a4.07,4.07,0,0,1,4.58,3c.21.67.09,1.49.92,1.88a1.64,1.64,0,0,0,2.25-.49,1.77,1.77,0,0,0,.15-.31c1.66-2.81,4.5-3.16,7.08-.92a3.19,3.19,0,0,0,2.14.94,4.21,4.21,0,0,1,3.28,1.57c.47.57.84,1.31,1.93,1.06a2.42,2.42,0,0,0,1.9-1.85,11.68,11.68,0,0,0,0-1.87c.27-2.53,3.49-4.1,5.93-2.62,2.21,1.35,4.78,1.26,7.13,1.63,3.56.56,7.31,0,11,.71,1.57.33,3.37.07,3.62-2,.34-2.95,1.49-3.66,5.13-3.59a2.61,2.61,0,0,0,2.33-.53,1.28,1.28,0,0,1,.5-.21c3.83-.34,6.72,1.66,9.9,2.84a1.88,1.88,0,0,1,.92,2.32c-.7,2.18.33,4.15,1,6.16s1.79,2.46,4.18,1.87c2.84-.69,5.7.1,8.57-.1a3.09,3.09,0,0,1,2.86,2.28c.23.61.42,1.23,1.46,1.12a1.9,1.9,0,0,0,1.83-1.23,8.64,8.64,0,0,1,.37-1.12,3.88,3.88,0,0,1,5.16-1.87,3.8,3.8,0,0,1,.74.46c2.13,1.4,4.35,1.42,6.83.9,2.24-.48,4.6-.51,6.72-1.44.87-.37,1.8.16,2.69.41,2.21.61,4.26.49,5.82-1.19a4.26,4.26,0,0,1,4.23-1.25,3,3,0,0,1,2.69,2.69c.17,1.64,1.35,2.21,3.11,2.47,2.64.39,5.18.42,7.51-.86a4.2,4.2,0,0,1,3.75-.26c2.69,1.12,5.26,1.45,7.78-.31a2.5,2.5,0,0,1,2.41-.27c2.09,1,4.46,1,6.7,1.44.86.44,1.59,0,2.35-.25a5.46,5.46,0,0,1,3.78.51,3.55,3.55,0,0,0,2.14.43,4.6,4.6,0,0,1,4.89,2.4c1.18,1.91,3.73,2.05,5.93,2.25a29.15,29.15,0,0,0,11.53-.94c1.74-.56,3.67.22,5.51.3,2.66.13,5.08-1.05,7.7-.56a1.93,1.93,0,0,0,1.29-.38c2.17-1.24,4-1,6.11.42a7,7,0,0,0,5.85.56,4.24,4.24,0,0,1,3.26-.1c3.14,1.71,6.52,1.37,10,1.1,2-.14,2.86-1.67,4.66-2,2.19-.41,1.9-2,2.07-3.39a3.49,3.49,0,0,1,3.88-3.05l.28.05c3,.38,5.81-.43,8.83-.16s6.1,1.14,9.24.95c.88.44,1.56,0,2.26-.36a3.48,3.48,0,0,1,2.72-.18c4.59,1.95,9.22.64,13.87.22a14.56,14.56,0,0,0,6.3-1.85c1.56-.91,2.35-1.85,2.38-3.4.08-3,1.8-4.16,5.31-3.88a12.31,12.31,0,0,0,6.66-1.34,5.7,5.7,0,0,1,5.47-.37c2.52,1.11,7.48.21,9.43-1.48.57-.49.52-1.14.7-1.74a4.07,4.07,0,0,1,4.45-3.14c2.34.31,3.64,1.84,3.24,4.18-.45,2.6,1,4.86,1.71,7.25.29,1,1.21,1.17,2.09.33,2-1.93,4.16-2.25,6.6-.56a3.21,3.21,0,0,0,2.15.33c3.76-.32,7.59.17,11.31-.47a79.39,79.39,0,0,1,10.68-.84,5.1,5.1,0,0,1,2.43.43c.91.58,1.48-.31,2.24-.38a4.48,4.48,0,0,1,4.83,1.57c1.16,1.49,6.28,2.36,8.1,1.55.83-.36.79-1,.92-1.58.42-1.85,1.78-2.84,4-3,.47-.05,1,.08,1.38-.13,4.13-2.43,8.44-1.32,12.8-.62a6.65,6.65,0,0,0,5-1,4.62,4.62,0,0,1,5.81,0c1.83,1.25,4.14,1.27,6.37,1,1.24-.14,2.51-.4,3.53.24,1.94,1.2,4.27.93,6.2.75,3.18-.29,7.09-.47,9.21-2.22,2.81-2.33,5.25-2.58,8.84-2.13a29.46,29.46,0,0,0,5.78.45c3.84-.27,7.61-1,11.49-1a9.7,9.7,0,0,1,2.22.11c.89.19,1.5.86,2.43,1a31.66,31.66,0,0,0,6.28-.87c2.29-.63,5-.06,7.46-.12,1.52,0,3.1.4,4.71.36a4.62,4.62,0,0,1,3.21,1.26c1.5,1.31,3.29,1.33,5.17.74,2-.64,4.23-.94,5.24-3,.54-1.1,2.17-1.48,3.67-1.18,2.9.58,5.55.62,7.56-1.64a2.64,2.64,0,0,1,2-.75c4.44.15,8.88-.28,13.32.09,3.16.26,6.26.06,8.15-2.43,1.28-1.67,1.13-3.73,1.58-5.63a6,6,0,0,0,.3-2.37,107.69,107.69,0,0,1,1.58-12c.23-1.39.52-2.73-.28-4.1s-.37-2.62,1-3.59a4.17,4.17,0,0,1,4.44-.49c2.49,1.31,5.91.72,8,3a1.76,1.76,0,0,0,2.9-1c.54-2,2.31-2.49,4.5-2.92,2.56-.5,5.78-.5,6.41-3.53a4.63,4.63,0,0,1,1.39-1.83c1.76-1,3.48-.76,5.27,0,2.62,1.16,3.38.91,4.67-1.34a4.2,4.2,0,0,1,4.79-2.06c2.06.49,3.08,1.69,3,3.48a5.91,5.91,0,0,0,.23,2.54c1,2.62,1.9,3.11,5.14,2.51,1-.19,2.06-.12,3.06-.23,2.54-.3,5.2.14,7.29-2,1.68-1.68,4.9-.73,6.16,1.5.39.68.4,1.67,1.67,1.6s1.43-1,1.63-1.88c.73-3.07,1.27-3.3,5-3.51,2.66-.15,5.4-.44,7.28-2.42a3.38,3.38,0,0,1,2.72-1A30,30,0,0,0,869.91,278c2.09-.57,4.16.79,6.38.39a7.12,7.12,0,0,0,2.31-.92c2.72-1.48,4.83-3.08,5.81-5.85.53-1.5,3.51-1.67,5.47-.69a9.29,9.29,0,0,0,3,1.09c3,.41,4,1.48,3.87,4a6.27,6.27,0,0,0,2.12,5.57c1.16.72,2.08.2,3-.4a38.5,38.5,0,0,1,14-.95,3.71,3.71,0,0,1,1.79.63c2.91,2.12,6.14,1.08,9.29.61.59-.09.77-.64,1-1.06a3.17,3.17,0,0,1,2.14-1.75c2.38-.33,3.35-1.39,3.34-3.33a2.34,2.34,0,0,1,1.36-2c3.34-1.81,3.81-4.61,3.8-7.54a4.05,4.05,0,0,1,7.79-1.7c.33.78.66,1.5,1.87,1.43s1.19-.82,1.52-1.47c1.23-2.45,2.92-3,6.06-2.14,2.52.66,5.29.45,7.64,1.87a1.74,1.74,0,0,0,2.44-.39,1.79,1.79,0,0,0,.33-.88c.12-1.34,1.2-2.24,2.55-2.9,2.55-1.25,3.47-3.12,3.13-5.51s.37-3.39,3-4.12c1.83-.51,2.63-1.32,2.45-2.89a2.34,2.34,0,0,1,.74-2.2c3.74-2.89,3.08-6.8,3.67-10.42a6.37,6.37,0,0,1,.19-1.06c.44-2.69.89-5.37,1.47-8a5.84,5.84,0,0,0-.16-3c-.76-2.41.28-4.07,2.7-4.58,2.12-.45,4,.7,4.86,3,.17.44.08.94.69,1.46,1-2.27,1.09-4.58,1.42-6.83.5-3.38.83-6.78,1.5-10.15.38-1.91.86-3.77-.39-5.66a2.21,2.21,0,0,1,.59-3.07,1.89,1.89,0,0,1,.47-.24,7.68,7.68,0,0,0,5-6.18,5.7,5.7,0,0,1,2.1-1.35,4.11,4.11,0,0,0,2.68-3.58,3.88,3.88,0,0,1,4.18-3.55h.09c2.27.08,3.57,1.43,3.83,3.89a7.87,7.87,0,0,0,3.83,6.46c1.37.83,2.18,2.09,1.43,3.48a5.57,5.57,0,0,0-.06,4.77,36.3,36.3,0,0,1,1.14,4.33,6.94,6.94,0,0,0,3.5,4.56c1.49.92,1.91.58,2.18-.65a74.5,74.5,0,0,0,1.18-7.86c.5-4.26.93-8.52,1.67-12.75a7,7,0,0,0-.55-3.2c-.63-2.07.51-3.7,2.79-4.14s4.56.6,4.77,2.62c.39,3.81,3.55,4.74,7.21,5.3,2.92.44,4.37,1.83,3.86,4.22-.37,1.74.44,3.21,1,4.75.15.43.42.94,1.14.84s.82-.58,1-1a4.44,4.44,0,0,0,0-1.85c-.16-1.88.82-3.23,3-3.73a5,5,0,0,0,3.25-2,2.7,2.7,0,0,1,1.7-1.17c5.29-.95,6.81-4.25,7.53-8.1.45-3.18,1.07-6.33,1.83-9.44a5.14,5.14,0,0,0-.27-3c-.69-2.41.75-3.52,3.39-4.53a17.76,17.76,0,0,1,11.29-.62c2.3.6,4.67,1,7,1.43a2.69,2.69,0,0,1,2.45,2.91,3,3,0,0,1-.12.61c-.81,2.62.66,4.88,1.33,7.27a1,1,0,0,0,1.12.87c.71-.07.77-.65.78-1.1.05-2.3,1.49-3.58,4.14-4.06,1-.19,1.41-1,1.89-1.63a4.29,4.29,0,0,1,2.1-1.28,28.28,28.28,0,0,1,7.41.08c2.68.47,5.19,2.08,7.75,3.23,1.08.48,1.18,1.66,1.12,2.74a11.58,11.58,0,0,0,4.24,9.93c1.18,1,1.94,2.23,1.11,3.58a5.14,5.14,0,0,0-.28,4.3c.64,2.51,1.17,5,2,7.51.46,1.3,1.09,1.53,2.87,1,3.29-1,5.3-3.6,8.73-4.31.82-.17.94-.91,1.24-1.47,1-1.82,2.75-2.26,4.87-1.89s3.06,1.7,2.88,3.46a4.75,4.75,0,0,0,1.57,4.34c.88-2.18,2.08-4,1.8-6.09-.25-2,.09-3.68,2.56-4.4s3.91.41,5,2.1c.3.47.61,1,1.41,1s1.12-.74,1.41-1.3a6.13,6.13,0,0,0,.44-3.66c-.25-2.13,1-3.47,3.44-3.85,3.18-.49,5.36-2.23,6.07-4.53,1.11-3.63,2.77-7.26,1.72-11.18-.47-1.75.74-3,2.84-3.49,1.12-.27,2.25-.58,2.45-1.67.42-2.21,2-3.22,4.61-3.32a.72.72,0,0,0,.6-.43c.11-.31.19-.63.29-.94a3.24,3.24,0,0,1,1.5-1.92c3.86-2.07,4.08-5.34,4.08-8.61a4.11,4.11,0,0,1,4-4,3.59,3.59,0,0,1,3.83,3.32c0,.08,0,.17,0,.25a4.78,4.78,0,0,0,.76,3.14,1.71,1.71,0,0,0,1.83.81c.83-.2.74-.81.71-1.36a4.47,4.47,0,0,1,.23-2.08,3.44,3.44,0,0,1,2.14-1.75c2.47-.33,3.54-1.5,3.26-3.58a2.69,2.69,0,0,1,1.3-2.72,6.53,6.53,0,0,0,2.76-4.43c.66-2.67,1.28-5.33,2-8a4.4,4.4,0,0,0-.35-3.63c-.9-1.46-.41-2.78,1.12-3.71a5.4,5.4,0,0,0,2.53-3.5c.75-2.82,2.62-5.43,1.61-8.58-.44-1.38,1-2.63,2.84-3.06a2.93,2.93,0,0,0,2.6-2.41,3.57,3.57,0,0,1,3.07-2.74c2.13-.44,3-1.44,2.6-3.22a1.86,1.86,0,0,1,.59-2c3.56-2.27,3.3-5.72,4.15-8.83.09-.3.17-.6.26-.91a2.17,2.17,0,0,1,.7-.91,68.06,68.06,0,0,1,1.66-7c.67-2-.69-3.35-1.24-5-.73-2.18,2.72-2.53,2.91-4.46.41-4,1.09-8,1.65-12,.62-4.47,1.19-8.95,1.9-13.41a2.75,2.75,0,0,0-.53-2.6c-1-1.18-.68-2.42.55-3.35a3.67,3.67,0,0,1,4.15-.27c1.46.81,2,2.21,1.15,3.26-1.41,1.71-.93,3.42-.8,5.15q1.3,17.34,2.69,34.66a15.46,15.46,0,0,0,1,4.6c.42-4.15.93-8.3,1.23-12.45a143,143,0,0,1,2-15.29,2.56,2.56,0,0,0-.66-2.55c-1.22-1.29-1-2.68.56-3.71a3.53,3.53,0,0,1,4.53.27,2.56,2.56,0,0,0,2.36.7c3-.34,4.6,1.34,3.8,3.69-.2.62-.5,1.18,0,1.77,2,2.46,1.61,5.91,5.07,7.76a1.65,1.65,0,0,1,.76,2.21,1.76,1.76,0,0,1-.41.53c-1.6,1.28-1.1,2.68-.94,4.1.53,4.48,1.12,9,1.69,13.44a2.59,2.59,0,0,1,.62,1c.8,5.41,1,10.89,2.23,16.44a8.77,8.77,0,0,0,3.91-6.45c.27-2.85.75-5.69,1.1-8.54a12,12,0,0,1,1-2.87q.89-8.58,1.76-17.15a4.78,4.78,0,0,0-.7-3.8c-.92-1.19-.39-2.42.94-3.29a3.49,3.49,0,0,1,3.9-.09c1.41.86,2,2,1.11,3.47a2.71,2.71,0,0,0-.68,2c1.26,6.42,1.52,13,3.44,19.31.54.6,1.48.66,2.14,1.1,2.55,2.2,2.62,2.2,4-.15.19-.42.67-.64,1-1a4.92,4.92,0,0,0,.48-3.77c-.72-2.21,1.25-3.4,4.74-3.09,1.17-.1,1.34.65,1.64,1.3-.28,2.53,1.8,2.77,4,2.86,1.13,0,1.32.7,1.6,1.36,0,.76,0,1.51,0,2.27l-1.64,1.34a2.73,2.73,0,0,1-3.84-.2l-.08-.1-1.09-1-.3-.21a1.63,1.63,0,0,1-.31-.91c-.1-.32.29-.92-.3-.91a1.74,1.74,0,0,0-1.83,1.38c-.09.32-.19.64-.31,1a7.08,7.08,0,0,0-.75,4.31c.26,1.53-.66,2.7-2.33,3.41a4.07,4.07,0,0,1-4.34-.75,5.52,5.52,0,0,0-2.35-1.19c-4.2-.83-5-2.17-3.49-5.51a2.29,2.29,0,0,0,.22-.67,4.5,4.5,0,0,0-.37-2.11,85.33,85.33,0,0,1-2.17-15.17c0-.36.18-.71.18-1.07s-.6,0-.25-.09c.28,1-.09,2.07.06,3.1.55,3.1-.4,6.15-.52,9.22-.06,1.68-.32,3.38-.4,5.07a8.27,8.27,0,0,1-.12,1.22c-.58,4.32-1,8.66-1.76,13a4,4,0,0,0,.62,2.46c1.11,2.3.39,3.93-2.32,5a12,12,0,0,0-3.57,2.2,4.4,4.4,0,0,1-5.3.67c-1.82-1-2.25-2.44-1.28-4.07a5.13,5.13,0,0,0,.43-3.63c-.81-5.16-1.44-10.33-1.8-15.53a10.06,10.06,0,0,0-.33-3.82c-.25-2.16-.44-4.32-.78-6.48-.43-2.66-.24-5.44-2.67-7.66-.85-.77-.67-1.88-.42-2.9.91-3.72-.66-6.57-4.36-8.5-1.34-.7-1.84-.44-2.08.68a65.19,65.19,0,0,0-1.13,6.92c-.76,6.87-1.49,13.74-1.91,20.64a6.44,6.44,0,0,1-.13,1.16,7.93,7.93,0,0,0,.28,5.47,2.89,2.89,0,0,1-1.13,3.94,2.09,2.09,0,0,1-.3.14,4.26,4.26,0,0,1-4.66-.08c-1.68-1.11-2.09-2.61-1.09-4.14,1.19-1.82.23-3.65.41-5.46,0-.41,0-.82,0-1.23-1.17-12.23-2.31-24.46-2.55-36.73V45.19a3.49,3.49,0,0,0,0,.56c-.24,6.45-1.42,12.8-2.31,19.18-.27,1.87-.51,3.67.58,5.44a2.19,2.19,0,0,1-.2,2.88c-2.67,2.27-2.63,5.19-3.18,8-.13.69-.3,1.38-.49,2a5.77,5.77,0,0,0-.41,1.78,38.05,38.05,0,0,1-1.3,6,5.67,5.67,0,0,0,.21,4.53c.82,1.49-.11,2.85-1.69,3.56-2.23,1-3.63,2.22-3.7,4.5,0,1.58-1.67,2.4-3.42,2.68-1.45.24-2.09.8-2.11,2a3.2,3.2,0,0,1-1.73,2.53c-3.87,2.62-4.54,6.31-4.17,10,.2,2,.36,3.64-1.73,5a3.65,3.65,0,0,0-1.36,2.49c-.85,3.34-1.52,6.72-2.56,10a3.79,3.79,0,0,0,.16,2.73c.86,2.05.25,3.48-2.12,4.41-2,.8-3.1,1.84-3,3.76a2.5,2.5,0,0,1-1.73,2.51,7.4,7.4,0,0,0-4.41,4.2l-1.1,1.37a3.73,3.73,0,0,1-6.15-2.46c0-1.32.32-3.29-1.24-3.43s-1.3,2-2,3.09,0,2.6-.66,3.82c0,.47,0,.93,0,1.39.18,1.4-1,2-2.29,2.22-1.62.26-2.46.93-2.8,2.23-.18.69-.73,1.61-1.46,1.6-4,0-3.45,3.42-5.6,4.73-2.7,1.66-2.51,4.22-3.08,6.52-.63,2.55-1.78,5-.83,7.78.56,1.64-1.09,2.85-3.15,3.3-5.31,1.18-7.83,3.71-7.88,8a3,3,0,0,1-2.49,3.26,4.44,4.44,0,0,1-4.87-1.53c-.4-.48-.41-1.4-1.36-1.3s-1,1-1.3,1.64a10,10,0,0,0-.89,5.26c.32,2.22-1.33,3.83-3.65,3.92s-4.26-1.42-4.21-3.75a6.13,6.13,0,0,0-1.25-4.23,1.46,1.46,0,0,0-1.37-.67c-.54.08-.53.57-.62.94-.4,1.85-1.7,2.89-4,3.05-.28,0-.73,0-.81.12-1.58,2.81-5.51,2.19-7.93,3.77a3.89,3.89,0,0,1-3.94.25c-1.46-.65-2.32-1.67-2.1-3,.72-4.47-1.62-8.55-2.27-12.84a2.87,2.87,0,0,0-1.44-1.94,3.52,3.52,0,0,1-1.57-4.58c.89-2.78-1.24-6.49-3.8-8.44-3.49-2.66-7.2-2.45-11.22-1.44l-1.6,1.86a8.58,8.58,0,0,0-3.92,4.43c-.59,1.66-2.67,2.07-4.72,1.62s-2.91-1.6-2.66-3.14c.37-2.33-.51-4.45-1.08-6.65a4.1,4.1,0,0,0-3.33-3.18,52.44,52.44,0,0,0-8.18-1.33A5.74,5.74,0,0,0,1070,172c-1.2,4.4-1.49,8.94-2.73,13.33-.18.64.24,1.2.48,1.8.92,2.2.11,3.7-2.55,4.31-1.43.32-2.38,1.21-3.55,1.67-2.84,1.13-4.81,3-7.15,4.58-1.66,1.12-2.77,2.17-3,3.94-.33,2.58-2,4-4.22,3.75s-3.61-1.89-3.64-4.28c0-3.94-1.09-7-7.45-7.72-2.26-.24-3.44-1.45-3.54-3.35a2.94,2.94,0,0,0-.54-2.26,6,6,0,0,0-.85,2.87c-1,6.17-1.42,12.38-2.57,18.53a6.05,6.05,0,0,0,.42,3.2c.56,1.54.37,3-1.45,3.9a4.49,4.49,0,0,1-5.14-.55,6.49,6.49,0,0,0-3.21-1.3c-2.41-.42-3.5-1.69-3.14-3.73.75-4.18-1.53-7.92-2.29-11.87-3.05-1.9-3.71-4.42-2.81-7.36a.66.66,0,0,0-.13-.45c-.57-1-.49-2.72-2.26-2.56-1.94.18-1.27,1.78-1.29,2.88,0,2.66-1.29,3.58-5.81,4.23-.76.45-1.07.94-.64,1.77.66,1.26.2,2.42-.93,3.4-2.59,4.47-2.24,9.4-3.1,14.13-.38,2.07-.65,4.16-1,6.24a7.85,7.85,0,0,0,.06,3.7c.71,2.6-.26,4.19-2.63,4.64s-4.2-.68-4.95-3.34a1.45,1.45,0,0,0-.66-1c-.79,1.22-.7,2.52-1,3.74-.42,1.57-.13,3.28-1.33,4.7-.15.45-.29.9-.43,1.35,1.31,2,0,4-.24,5.9-.18,1.64-.45,3.14.37,4.77s-.12,3.25-2.14,4-3.26,1.92-3.17,3.94c0,1.19-1,2-2.18,2.52a5.26,5.26,0,0,0-3.39,5.47c.11,2.16-.7,3.67-3.27,4.29a3.31,3.31,0,0,0-2.3,2.15c-1.38,2.74-3.77,3.18-6.7,1.52-2.09-1.2-4.62-1.39-7.09-1.48a2.57,2.57,0,0,0-2.86,1.77c-.47,1.45-1.88,2.07-3.64,2.11a4.09,4.09,0,0,1-4-2.16c-.26-.46-.14-1.23-1-1.25s-1.25.66-1.46,1.25c-.61,1.76-1.61,3.43-1,5.42s-.6,3.38-2.76,4.05a3.13,3.13,0,0,0-2.52,2.48,4,4,0,0,1-3.87,3.22,2.31,2.31,0,0,0-2,1.37c-.35.64-.85,1.47-1.62,1.52-3.42.26-6.92,1-10.24-.41a15.15,15.15,0,0,0-11.43-.69,7.68,7.68,0,0,1-5.14.05l-1.63.88c-2.72,1-5-.15-5.07-2.65a16.74,16.74,0,0,0-.3-3.46c-.58-2.63-3.15-3.57-5.49-4.59-1.43-.63-2.88-.18-2.89,1.48,0,2.3-1.17,3.7-4.08,3.9a1.32,1.32,0,0,0-.8.18c-2.54,2.58-5.72,2.24-9.13,1.61a6.7,6.7,0,0,0-4.6.71c-.3.18.1.1-.25.09-4.37-.09-8.27.65-11.81,3.1-1.25.86-3.77,0-5.68.67-1.29.46-2.07.95-2.17,2.12a3.58,3.58,0,0,1-3.44,3.48,4.08,4.08,0,0,1-4.74-2.48c-.66-1.42-2.18-1.63-3.58-.5-1.55,1.26-3.2,1.42-5.32,1.45a40.28,40.28,0,0,0-7.75.57c-3.32.69-5.3-.6-5.22-3.48a6,6,0,0,0-.93-3.82c-.7-1-1.54-1.41-2.39,0-1.69,2.9-3.34,3.33-6.6,1.88-2.39-1.06-3.6-.61-4.38,1.64a1.79,1.79,0,0,1-1,1.32l-1.6.94c-1,1.11-2.66.36-3.91,1-2.07,1.05-4.4,1.55-5.52,3.83-.9,1.82-4,1.9-5.75.26s-4.05-1.48-6-2.36c-1.29-.58-1.58.74-1.78,1.55-.8,3.28-.91,6.64-1.57,9.94a3.51,3.51,0,0,1-.77,2.2l-.06,1c-.53,2.44-1,4.88-1.6,7.31-.2.83.46,1.27.83,1.88,1.35,2.18-.36,4.33-3.33,4.2-.37,0-1-.3-1-.21-2,2.28-4.61,1.9-7.53,1.57-1.31-.15-2.76.45-4.21-.26-1.2-.59-2.31,1.07-3.37.48-2.3-1.27-4.35.64-6.53.11-1.16-.28-1.06.67-1.35,1.15-1,1.63-2.64,2-4.49,1.35a5.61,5.61,0,0,0-2.73-.14c-2.24.26-4,.48-4.27,2.75-.09.67-1.44,1.25-2,1-2.86-1.17-6,2.35-7.89.29s-4.42-2.08-6.33-2.28c-2.16-.22-4.7-.1-7-.22-3.3-.18-6,2.48-9.34,1.07-.54-.35-.34-1.56-1.67-1-3-.6-5.94.68-8.93.1a1.7,1.7,0,0,0-1.28.25c-.46.26-1.11.75-1.42.64-2.87-1-6.11.83-8.82-.78-1.4-.83-2.36.79-3.62.28-1.9-.78-1.73.55-2.15,1.39-.2.4-.66,1-1.07,1-2.65.26-5,1.37-7.54,1.74-1.47.22-3.14-.34-4.66.49a2,2,0,0,1-1.61,0c-1.83-2-4.84-.29-6.87-1.55-.72-.45-1.22.1-1.76.33-1.33.57-2.91.59-3.62-.33-1.1-1.44-2.47-1.39-4.14-1.45-1,0-1.46,0-1.93.77a3,3,0,0,1-3.76,1.28c-1.72-.78-3.69-.4-5.07-.92-2.42-.91-4.48.67-6.64-.07-.76-.26-.84.44-1.26.66-2.5,1.32-5.75,1.95-6,5.19,0,.62-1.75,1.26-2.35.81-2.41-1.8-6.51,1-7.92-1.64-1.15-2.12-2.76-2-4.67-2.13a1,1,0,0,0-1.42-.23,1,1,0,0,0-.26.27,9,9,0,0,1-4.29.09,13.07,13.07,0,0,0-6.82.48c-.59.23-1.3.77-1.74.65-2.19-.63-4.28-.21-6.47-.11-1.35.06-2.67-.32-4.06.3-.81.36-2.19.38-2.65-.21-1.36-1.75-3.39-.66-5-1-1.22-.29-1,.68-1.33,1.13a3.48,3.48,0,0,1-4.3,1.29c-1.86-.7-2.35-1.88-1.83-3.64.84-2.91-1.14-5.51-1.93-8.24-.17-.6-1.09-.56-1.72-.45a1.39,1.39,0,0,0-1.2,1.39c-.38,3.8-.76,2.94-4.5,4.07a12.73,12.73,0,0,1-8.31.16c-1.3-.4-3.87-.71-4.95,1.35-.29.55-1.35.7-2,.49-1.72-.51-3.16,0-4.82.31-2.78.55-3,2.1-2.92,3.77.17,2.81-.85,3.79-4.27,3.57-.19,0-.48-.16-.53-.11-1.84,1.89-4.24,1.61-6.84,1.69-1.5.05-3,.91-4.7.19-.62-.27-1.05.15-1.48.42-.92.56-2.32.83-2.89.32-1.81-1.57-4-.57-5.93-.9a1.44,1.44,0,0,0-2-.07l-.11.12a3.92,3.92,0,0,1-4.38-.36,1.71,1.71,0,0,0-1.22-.41c-3.24,0-6.46.43-9.71-.26-2.51-.53-5.6,2-5.54,4.26a2.63,2.63,0,0,1-.54,2c-.41.44-1,1.05-1.55.89-3.28-1-4.82,3.21-8.13,1.82a2.35,2.35,0,0,0-2.3,0c-1.54.82-2.85.38-4.36-.44a8.54,8.54,0,0,0-6.39-.49c-1.57.47-3.19.9-4.11-.16-1.21-1.41-2.62-1.46-4.36-1.6-1-.09-1.73-.25-2.32.55a.92.92,0,0,1-.67.38c-3.15-.66-6,1.38-9.37.47a11,11,0,0,0-6.6.53c-1.35.57-2.57,1-3.92.3A1.89,1.89,0,0,0,425,349c-.07,0-.17.07-.24.12"/></g></g></svg>