<svg xmlns="http://www.w3.org/2000/svg" viewBox="0 0 817 360"><defs><style>.cls-1{fill:#ebf2f7;}.cls-10,.cls-11,.cls-2{fill:none;stroke-miterlimit:10;}.cls-2{stroke:#e3e9ef;stroke-linecap:square;}.cls-16,.cls-3,.cls-4,.cls-6,.cls-8,.cls-9{isolation:isolate;}.cls-4{font-size:1px;font-family:Roboto-Regular, Roboto;}.cls-15,.cls-4,.cls-6,.cls-8{fill:#b3b8bd;}.cls-5{fill:#c2c2c2;}.cls-6,.cls-8,.cls-9{font-size:17px;}.cls-6,.cls-8{font-family:Avenir-Book, Avenir;}.cls-6{letter-spacing:-0.08em;}.cls-7,.cls-9{letter-spacing:0.03em;}.cls-8{letter-spacing:0.03em;}.cls-13,.cls-9{fill:#fff;}.cls-16,.cls-9{font-family:Avenir-Medium, Avenir;font-weight:500;}.cls-10{stroke:#fdbf5a;}.cls-10,.cls-11{stroke-linecap:round;stroke-width:6px;}.cls-11{stroke:#201452;}.cls-12{fill:#1e1452;}.cls-14{fill:#fdbf5a;}.cls-16{font-size:22px;fill:#201452;}</style></defs><title>visuels6</title><g id="Calque_4" data-name="Calque 4"><rect id="Line" class="cls-1" x="55.41" y="39.22" width="761.21" height="2.21"/><path id="Line-2" class="cls-2" d="M67.58,352.89h749"/><path id="Line-3" class="cls-2" d="M67.58,308.64h749"/><path id="Line-4" class="cls-2" d="M67.58,264.38h749"/><path id="Line-5" class="cls-2" d="M67.58,220.12h749"/><path id="Line-6" class="cls-2" d="M67.58,175.87h749"/><path id="Line-7" class="cls-2" d="M67.58,131.61h749"/><g id="_100" data-name=" 100" class="cls-3"><text class="cls-4" transform="translate(55.41 343.38)">$ 100</text></g><g id="_200" data-name=" 200" class="cls-3"><text class="cls-4" transform="translate(55.41 299.12)">$ 200</text></g><g id="_300" data-name=" 300" class="cls-3"><text class="cls-4" transform="translate(55.41 254.87)">$ 300</text></g><g id="_400" data-name=" 400" class="cls-3"><text class="cls-4" transform="translate(55.41 210.61)">$ 400</text></g><g id="_500" data-name=" 500" class="cls-3"><text class="cls-4" transform="translate(55.41 166.35)">$ 500</text></g><g id="_600" data-name=" 600" class="cls-3"><text class="cls-4" transform="translate(55.41 122.1)">$ 600</text></g><rect id="Active" class="cls-5" x="55.41" y="56.93" width="88.51" height="33.19" rx="8"/><g id="Today" class="cls-3"><text class="cls-6" transform="translate(374.06 77.25)">T<tspan class="cls-7" x="8.4" y="0">oday</tspan></text></g><g id="This_week" data-name="This week" class="cls-3"><text class="cls-8" transform="translate(264.52 77.25)">This week</text></g><g id="This_year" data-name="This year" class="cls-3"><text class="cls-8" transform="translate(161.63 77.25)">This year</text></g><g id="All_time" data-name="All time" class="cls-3"><text class="cls-9" transform="translate(67.58 78.35)">All time</text></g><path id="Path-3" class="cls-10" d="M72,188.49c93.53,0,129.37,153.31,197.21,149.6s83.84-168.78,128.25-168.78S438,254,508.47,253s84.95-129.73,136.7-131.17S704.86,169,745.44,192c26.91,15.29,51.35,17.77,68.11,18.79"/><path id="Path-4" class="cls-11" d="M814.09,174.62c-28,0-65.47,77.43-65.47,77.43s-31.82,70.58-103.77,70.58S528.31,224.63,474.13,218s-62.21,96.13-132.34,95.16-83.07-65-134-73.67-61.36,66.38-138,66.38"/><g id="Path-5"><path class="cls-12" d="M488.15,228.18a6.93,6.93,0,1,1,6.92-6.93A6.94,6.94,0,0,1,488.15,228.18Z"/><path class="cls-13" d="M488.15,216.83a4.43,4.43,0,1,0,4.42,4.42,4.42,4.42,0,0,0-4.42-4.42m0-5a9.43,9.43,0,1,1-9.43,9.42A9.43,9.43,0,0,1,488.15,211.83Z"/></g><g id="Path-6"><path class="cls-14" d="M662.07,128A6.93,6.93,0,1,1,669,121.1,6.94,6.94,0,0,1,662.07,128Z"/><path class="cls-13" d="M662.07,116.68a4.43,4.43,0,1,0,4.42,4.42,4.42,4.42,0,0,0-4.42-4.42m0-5a9.43,9.43,0,1,1-9.43,9.42A9.43,9.43,0,0,1,662.07,111.68Z"/></g><g id="info"><path id="Tracé_45" data-name="Tracé 45" class="cls-15" d="M806,17.19a9.08,9.08,0,1,0-9.08-9.08A9.07,9.07,0,0,0,806,17.19ZM806,.13a8,8,0,1,1-8,8h0a8,8,0,0,1,8-8Z"/><rect id="Rectangle_33" data-name="Rectangle 33" class="cls-15" x="805.42" y="6.26" width="1.11" height="6.23"/><rect id="Rectangle_34" data-name="Rectangle 34" class="cls-15" x="805.42" y="3.73" width="1.11" height="1.3"/></g><g id="Groupe_236" data-name="Groupe 236"><g id="This_year-2" data-name="This year-2" class="cls-3"><text class="cls-8" transform="translate(0.03 136.99)">20 000</text></g><g id="This_year-3" data-name="This year-3" class="cls-3"><text class="cls-8" transform="translate(0.03 181.25)">15 000</text></g><g id="This_year-4" data-name="This year-4" class="cls-3"><text class="cls-8" transform="translate(0.03 225.5)">10 000</text></g><g id="This_year-5" data-name="This year-5" class="cls-3"><text class="cls-8" transform="translate(9.98 269.76)">5 000</text></g><g id="This_year-6" data-name="This year-6" class="cls-3"><text class="cls-8" transform="translate(9.98 314.02)">1 000</text></g><g id="This_year-7" data-name="This year-7" class="cls-3"><text class="cls-8" transform="translate(25.47 358.27)">500</text></g></g><g id="Porte-monnaie"><text class="cls-16" transform="translate(54.82 20.78)">Porte-monnaie</text></g></g></svg>