<svg xmlns="http://www.w3.org/2000/svg" viewBox="0 0 431 834"><defs><style>.cls-1,.cls-2,.cls-3{isolation:isolate;}.cls-2,.cls-3{font-size:20px;fill:#1e1452;}.cls-2{font-family:Avenir-Medium, Avenir;font-weight:500;}.cls-3{font-family:Avenir-Black, Avenir;font-weight:800;}.cls-4{fill:#ffd7aa;}.cls-5{fill:#fdbe5a;}.cls-6{fill:#e1deff;}.cls-7{fill:#201452;}.cls-8{fill:none;stroke:#c2c2c2;stroke-width:2px;}</style></defs><title>e-graphique-v2</title><g id="Calque_4" data-name="Calque 4"><g id="Pertes_-7" data-name="Pertes -7" class="cls-1"><text class="cls-2" transform="translate(293 706.09)">Pertes</text><text class="cls-3" transform="translate(288.16 733.09)">-</text><text class="cls-2" transform="translate(294.08 733.09)">7 500€</text></g><g id="Gain_15" data-name="Gain 15" class="cls-1"><text class="cls-2" transform="translate(298.96 347.09)">Gain</text><text class="cls-3" transform="translate(277.09 374.09)">+</text><text class="cls-2" transform="translate(290.41 374.09)">15 000€</text></g><g id="Groupe_29" data-name="Groupe 29"><path id="Tracé_467-2" data-name="Tracé 467-2" class="cls-4" d="M179,79.09A109.13,109.13,0,1,0,288.14,188.21,109.13,109.13,0,0,0,179,79.09Zm0,188a78.88,78.88,0,1,1,78.87-78.88A78.87,78.87,0,0,1,179,267.09Z"/><path id="Tracé_468" data-name="Tracé 468" class="cls-5" d="M179,79.09l-1.62,0v30.27c.54,0,1.08,0,1.62,0a78.88,78.88,0,1,1-78.85,80.12c-10.09,0-20.17-.07-30.26-.09A109.12,109.12,0,1,0,179,79.09Z"/></g><g id="Groupe_30" data-name="Groupe 30"><path id="Tracé_469-2" data-name="Tracé 469-2" class="cls-6" d="M179.09,438.09A109.13,109.13,0,1,0,288.21,547.22h0A109.12,109.12,0,0,0,179.09,438.09Zm0,188A78.88,78.88,0,1,1,258,547.21a78.87,78.87,0,0,1-78.88,78.88Z"/><path id="Tracé_470" data-name="Tracé 470" class="cls-7" d="M269.65,486.32c-7.86,6.52-15.68,13-23.6,19.23a78.88,78.88,0,1,1-141.93,66.19q-13.08,8.67-25.55,18A109.14,109.14,0,1,0,269.65,486.32Z"/></g><line id="Ligne_20" data-name="Ligne 20" class="cls-8" x1="250.44" y1="614.84" x2="310.13" y2="674.53"/><line id="Ligne_21" data-name="Ligne 21" class="cls-8" x1="243.84" y1="255.84" x2="303.53" y2="315.53"/></g></svg>