<svg xmlns="http://www.w3.org/2000/svg" viewBox="0 0 1548 652"><defs><style>.cls-1{fill:none;stroke:#e3e9ef;stroke-linecap:square;stroke-miterlimit:10;}.cls-2,.cls-3{isolation:isolate;font-size:28.6px;letter-spacing:0.03em;}.cls-2,.cls-3,.cls-4{fill:#201452;}.cls-2{font-family:Avenir-Book, Avenir;}.cls-3{font-family:Avenir-Medium, Avenir;font-weight:500;}</style></defs><title>visuels-final</title><g id="Calque_4" data-name="Calque 4"><path id="Line" class="cls-1" d="M0,272.28H1548"/><path id="Line-2" class="cls-1" d="M0,570.09H1548"/><path id="Line-3" class="cls-1" d="M0,197.81H1548"/><path id="Line-4" class="cls-1" d="M0,495.63H1548"/><path id="Line-5" class="cls-1" d="M0,123.35H1548"/><path id="Line-6" class="cls-1" d="M0,421.16H1548"/><path id="Line-7" class="cls-1" d="M0,48.89H1548"/><path id="Line-8" class="cls-1" d="M0,346.7H1548"/><path id="Line-9" class="cls-1" d="M0,644.51H1548"/><g id="This_year" data-name="This year"><text class="cls-2" transform="translate(0.8 25.97)">Cryto 1</text></g><g id="This_year-2" data-name="This year-2"><text class="cls-3" transform="translate(1439.39 25.97)">20 030€</text></g><g id="This_year-3" data-name="This year-3"><text class="cls-3" transform="translate(1439.39 100.01)">16 000€</text></g><g id="This_year-4" data-name="This year-4"><text class="cls-3" transform="translate(1439.39 174.04)">13 500€</text></g><g id="This_year-5" data-name="This year-5"><text class="cls-3" transform="translate(1439.39 249.75)">10 000€</text></g><g id="This_year-6" data-name="This year-6"><text class="cls-3" transform="translate(1456.21 323.79)">8 050€</text></g><g id="This_year-7" data-name="This year-7"><text class="cls-3" transform="translate(1456.21 397.82)">7 000€</text></g><g id="This_year-8" data-name="This year-8"><text class="cls-3" transform="translate(1456.21 473.54)">5 080€</text></g><g id="This_year-9" data-name="This year-9"><text class="cls-3" transform="translate(1456.21 547.57)">3 500€</text></g><g id="This_year-10" data-name="This year-10"><text class="cls-3" transform="translate(1456.21 621.6)">1 080€</text></g><g id="This_year-11" data-name="This year-11"><text class="cls-2" transform="translate(0.8 100.01)">Cryto 2</text></g><g id="This_year-12" data-name="This year-12"><text class="cls-2" transform="translate(0.8 174.04)">Cryto 3</text></g><g id="This_year-13" data-name="This year-13"><text class="cls-2" transform="translate(0.8 249.75)">Cryto 4</text></g><g id="This_year-14" data-name="This year-14"><text class="cls-2" transform="translate(0.8 323.79)">Cryto 5</text></g><g id="This_year-15" data-name="This year-15"><text class="cls-2" transform="translate(0.8 397.82)">Cryto 6</text></g><g id="This_year-16" data-name="This year-16"><text class="cls-2" transform="translate(0.8 471.85)">Cryto 7</text></g><g id="This_year-17" data-name="This year-17"><text class="cls-2" transform="translate(0.8 547.57)">Cryto 8</text></g><g id="This_year-18" data-name="This year-18"><text class="cls-2" transform="translate(0.8 621.6)">Cryto 9</text></g><path id="Rectangle_520" data-name="Rectangle 520" class="cls-4" d="M151.7.37h992.71a16,16,0,0,1,16,16h0a16,16,0,0,1-16,16H151.7a16,16,0,0,1-16-16h0A16,16,0,0,1,151.7.37Z"/><path id="Rectangle_521" data-name="Rectangle 521" class="cls-4" d="M151.7,74.4H920.63a16,16,0,0,1,16,16h0a16,16,0,0,1-16,16H151.7a16,16,0,0,1-16-16h0A16,16,0,0,1,151.7,74.4Z"/><path id="Rectangle_522" data-name="Rectangle 522" class="cls-4" d="M151.7,148.44H757.42a16,16,0,0,1,16,16h0a16,16,0,0,1-16,16H151.7a16,16,0,0,1-16-16h0A16,16,0,0,1,151.7,148.44Z"/><path id="Rectangle_523" data-name="Rectangle 523" class="cls-4" d="M151.7,222.47H643a16,16,0,0,1,16,16h0a16,16,0,0,1-16,16H151.7a16,16,0,0,1-16-16h0A16,16,0,0,1,151.7,222.47Z"/><path id="Rectangle_524" data-name="Rectangle 524" class="cls-4" d="M151.7,298.18H520.18a16,16,0,0,1,16,16h0a16,16,0,0,1-16,16H151.7a16,16,0,0,1-16-16h0A16,16,0,0,1,151.7,298.18Z"/><path id="Rectangle_525" data-name="Rectangle 525" class="cls-4" d="M151.7,370.53H390.62a16,16,0,0,1,16,16h0a16,16,0,0,1-16,16H151.7a16,16,0,0,1-16-16h0A16,16,0,0,1,151.7,370.53Z"/><path id="Rectangle_526" data-name="Rectangle 526" class="cls-4" d="M151.7,444.57H306.49a16,16,0,0,1,16,16h0a16,16,0,0,1-16,16H151.7a16,16,0,0,1-16-16h0A16,16,0,0,1,151.7,444.57Z"/><path id="Rectangle_527" data-name="Rectangle 527" class="cls-4" d="M151.7,518.6h48.79a16,16,0,0,1,16,16h0a16,16,0,0,1-16,16H151.7a16,16,0,0,1-16-16h0A16,16,0,0,1,151.7,518.6Z"/><path id="Rectangle_528" data-name="Rectangle 528" class="cls-4" d="M151.7,596h6.73a16,16,0,0,1,16,16h0a16,16,0,0,1-16,16H151.7a16,16,0,0,1-16-16h0A16,16,0,0,1,151.7,596Z"/></g></svg>