<svg id="Calque_1" data-name="Calque 1" xmlns="http://www.w3.org/2000/svg" viewBox="0 0 452 452"><defs><style>.cls-1{fill:#fff;}.cls-2{fill:#1e1452;}</style></defs><title>linkedin</title><circle class="cls-1" cx="225.69" cy="225.75" r="226"/><rect class="cls-2" x="93.81" y="181.75" width="62" height="175"/><circle class="cls-2" cx="125.31" cy="125.25" r="31"/><path class="cls-2" d="M308.69,183.25c-12-1.63-36.25-3.49-50.42,5.37-.57.36-1.14.73-1.72,1.07-2.64,1.56-11.44,7-16.24,13.44V182.25h-49v175h51v-93s-1.94-36.89,28.61-38c.75,0,1.5-.05,2.25-.1,4.22-.3,23-.28,29.43,22.23a46.87,46.87,0,0,1,1.71,12.91v95.94h53V256.84c0-3.8.05-7.6.2-11.4.38-9.52-.69-40.8-29.32-56A58.13,58.13,0,0,0,308.69,183.25Z"/></svg>