<svg xmlns="http://www.w3.org/2000/svg" viewBox="0 0 1090 1033"><defs><style>.cls-1{fill:#e1deff;}.cls-2{fill:#1e1452;}.cls-3{fill:#fff;}.cls-4{fill:#fdbe5a;}.cls-5{fill:#ffd7aa;}.cls-6{fill:#c2c2c2;}</style></defs><title>visuels-03</title><g id="Calque_1" data-name="Calque 1"><path class="cls-1" d="M71.83,927.69c-12.38,10.58-14.78,39.12-4.29,50.57,31.21,34,115.56,76.4,342.92,41.94,0,0,218-33.42,121.43-162.56A69.61,69.61,0,0,0,512.7,839.8c-26.77-16.46-100.9-72.15-32.26-150.41,8.51-9.71,15.72-22.7,20.49-38,11.05-35.52,15-90.86-69.66-87.66,0,0-515.55,54.09-419.31,207,7,11.06,15.32,19.35,24.44,25C63.89,812.87,140.45,869,71.83,927.69Z"/></g><g id="Calque_3" data-name="Calque 3"><path class="cls-1" d="M937.31,103.47C915.23,90.72,861,53.09,880.08,0H424.24c-.11,11.07,3.71,22.85,12.23,35.37a76.86,76.86,0,0,0,24.61,23.46c27.59,16.14,104.52,69,36.41,123-12.28,9.75-26.34,16.69-3.9,47,26.66,36,116.05,72,343,41.65,0,0,217.52-29.41,120.09-150.28A69.38,69.38,0,0,0,937.31,103.47Z"/><path class="cls-2" d="M745.6,0,588.71,293.9s115.34,6.65,171.9,159.7L1090,124.21V0Z"/><path class="cls-1" d="M1088.89,453.79C979,466.6,620,518.33,702.64,639.8a76.86,76.86,0,0,0,24.61,23.46c27.6,16.14,104.53,69,36.41,123-12.28,9.75-14.46,36.29-3.89,47,30.79,31.26,112.6,70.3,329.12,43.43Z"/><path class="cls-2" d="M1090,294.94,832.15,444.18s103.14,25.5,148.05,198L1090,621.81Z"/><path class="cls-2" d="M577.78,990.42s-88.72,6.72-92,7.83-28.83,0-39.92,4.47c0,0-62.1,6.7-72.09,5.6,0,0-22.21-36.58,17.7-62.12,0,0,27.71-15.55,56.55-17.79,0,0,10-21.08,37.68-26.64,0,0,26.62-4.46,48.8,2.18,0,0,7.76-11.1,28.83-16.66,0,0,16.62-18.87,41-26.65,0,0,38.64-228.5,53.05-237.38l56.51-53.21,69.92,56.44,38.88,74.27,51.11,118.63Z"/><path class="cls-2" d="M611.1,290l-51.78,84.34s-16.64,18.85-39.93,23.29L420.69,422s-23.29,4.44-45.47,16.64L271,493S231,516.26,221.06,524L166.71,557.3s-16.63,13.31,2.22,34.38c0,0,34.38,35.49,120.89-10,0,0-27.73,26.62-26.62,51,0,0-55.45,81-58.78,102l-37.71,76.52s-31.05,51,15.53,57.67a41.85,41.85,0,0,0,28.84-11.09s-28.84,82.07,7.76,92c0,0,27.73,13.31,65.43-36.6,0,0-14.41,67.66,23.29,57.68,0,0,38.82-12.2,52.13-52.13,0,0,6.65,24.4,47.69,3.33,0,0,35.49-21.07,38.82-57.67,0,0,32.16-33.28,34.38-38.82S560.43,719.22,584.83,717c0,0,122-89.83,138.63-190.75,0,0,14.36-98.7,35.46-98.71C758.92,427.54,756.05,271.07,611.1,290Z"/><path class="cls-3" d="M221,523s16.69,42.06-54.29,34.3Z"/><path class="cls-4" d="M740.65,0l-159,300.1a32.81,32.81,0,0,1,33-1.88L768.37,0Z"/><path class="cls-5" d="M701.79,352.22c-48.54-46.45-101.07-71.48-117.34-55.92-7.09,6.79-6.12,20.16,1.25,36.93l23.94-17.48L736.07,447.52l-16,15.14c18.27,7.64,32.89,8.84,40.19,1.85C776.49,448.94,750.33,398.67,701.79,352.22Z"/><path class="cls-2" d="M693.86,358.5C650.2,316.71,604.43,292.75,591.65,305c-4.59,4.4-4.27,12.89,0,23.89L612,322.73,721.79,447l4.44,9.86c10.82,3.64,19.15,3.73,23.56-.49C762.57,444.09,737.53,400.29,693.86,358.5Z"/><path class="cls-6" d="M185,807.39s-31.79,25.16-23.65,51.4c0,0-5.18-4.82-5.18-15.91,0,0,1.11-12.2,4.43-20,0,0,7.77-17.75,8.88-18.86Z"/><rect class="cls-2" x="586.49" y="319.41" width="9.98" height="22.18" transform="translate(212.48 -231.14) rotate(26.79)"/><path class="cls-6" d="M169.49,865.06s16.63,17.75,39.92-5.54c0,0-26.61,73.19,5,88.65,0,0,28.88,19.48,69.91-34.87,0,0-16.08,76,29,55.42,0,0,16.42-7.77,23.12-15,0,0-2.18-5-18.82-3.86,0,0-27.72,2.22-23.29-18.85,0,0,4.44-29.94,23.29-52.13,0,0,24.4-35.49,27.73-37.7,0,0,11.09-11.09,12.2-21.08,0,0,11.09-56.56,42.14-58.78l-13.3-21.07s-12.92,3.23-25,30.91c-.34.78-.65,1.56-.95,2.35-2.77,7.32-19.06,49.19-32.87,58.66a47.68,47.68,0,0,0-6.62,5.31c-6.89,6.84-20.09,21.91-26.47,42.38a71.64,71.64,0,0,1-5.66,13.57c-4.17,7.46-11.21,17.68-20.75,23-1.72,1-3.45,1.89-5.14,2.92-7,4.25-27,14.94-42.25,8.24a19.19,19.19,0,0,1-11.14-15c-1.41-10-1.19-28.09,14.89-40.35,0,0,32.17-27.73,30-59.89l-22.18,4.44S220.5,865.06,169.49,865.06Z"/><path class="cls-6" d="M307,700.92s1.11-5.54-4.44-14.42c0,0-6.23-9.79,2.84-8.64a15.06,15.06,0,0,1,6.21,2.34c2.47,1.58,6.17,4.17,7.59,6.3,0,0,4.24,6,8.28,8.18A53.6,53.6,0,0,1,333,698c4,2.89,9.92,7.41,10.64,9.58,1,3.08,3,6.17-3.81,6.6a22.22,22.22,0,0,0-3.9.56c-5.17,1.26-17.8,4.61-17.8,7.25Z"/><path class="cls-4" d="M142,752.86s-.44,30.57,18.05,44.42c0,0,49,46.14,126,6.47,0,0,27.83-16.16,35-41.53,0,0,4.91-16.5-.4-31.43Z"/><path class="cls-5" d="M142.73,729.52s-14.29,49.05,47,66.49c0,0,61.29,20,111.64-26.43,0,0,33.12-29.68,13.22-63.93,0,0-18.65-32.12-63.64-33.61,0,0-35.1-2.1-57.13,8.72-1.39.68-2.79,1.34-4.21,2C181.07,686.45,149.7,701.83,142.73,729.52Z"/><path class="cls-4" d="M158.37,730.66S146.63,771,197,785.31c0,0,50.37,16.42,91.74-21.73,0,0,27.22-24.39,10.87-52.54,0,0-15.32-26.39-52.3-27.62,0,0-28.85-1.72-47,7.16-1.15.56-2.29,1.11-3.46,1.61C189.88,695.26,164.11,707.9,158.37,730.66Z"/><path class="cls-5" d="M159.86,732.84s-11.47,39.4,37.78,53.4c0,0,49.22,16,89.66-21.23,0,0,26.6-23.83,10.62-51.35,0,0-15-25.79-51.11-27,0,0-28.19-1.68-45.89,7-1.11.55-2.24,1.08-3.38,1.58C190.66,698.25,165.47,710.6,159.86,732.84Z"/><rect class="cls-4" x="191.45" y="744.89" width="49.75" height="2.74" transform="translate(-485.16 412.18) rotate(-48.37)"/><rect class="cls-4" x="184.3" y="719.07" width="49.75" height="2.74" transform="translate(-468.27 398.16) rotate(-48.37)"/><rect class="cls-4" x="225.1" y="741.9" width="49.75" height="2.74" transform="translate(-471.63 436.32) rotate(-48.37)"/><rect class="cls-5" x="191.03" y="743.35" width="49.75" height="2.74" transform="translate(-484.15 411.34) rotate(-48.37)"/><rect class="cls-5" x="183.88" y="717.53" width="49.75" height="2.74" transform="translate(-467.26 397.33) rotate(-48.37)"/><rect class="cls-5" x="224.68" y="740.36" width="49.75" height="2.74" transform="matrix(0.66, -0.75, 0.75, 0.66, -470.62, 435.49)"/><rect class="cls-4" x="191.13" y="741.41" width="49.75" height="2.74" transform="translate(-482.67 410.77) rotate(-48.37)"/><rect class="cls-4" x="183.97" y="715.59" width="49.75" height="2.74" transform="translate(-465.77 396.75) rotate(-48.37)"/><rect class="cls-4" x="224.77" y="738.42" width="49.75" height="2.74" transform="translate(-469.14 434.91) rotate(-48.37)"/><path class="cls-6" d="M531,561.18s29.54-22.41,35.9-32.08a24.34,24.34,0,0,1,2.46-3.23c2.87-3.13,8.36-8.12,9.27-1.85a12,12,0,0,1-.81,6.11c-3.68,9.25-18.19,44.36-26.86,44.36Z"/><path class="cls-2" d="M958,633.27,905.9,668.76s-8.88,59.89-2.22,82.07L908,807a8.47,8.47,0,0,1-.44,3.46c-2.23,6.15-12.65,23.36-57.12,5.76,0,0-62.1-31-48.79-135.3,0,0-15.53-13.31-16.64-34.38,0,0-72.09-6.66-71-47.69s72.09-115.34,72.09-115.34l57.58-14.42Z"/><path class="cls-3" d="M904.1,751.72s-52.06-21.25-43.26,2.07c0,0,23.39,64,47.12,50.43Z"/><path class="cls-2" d="M873.73,819.59l-14.41,57.67S852.66,895,842.68,905l-114.23,98.7s-5.55,8.87-28.84,7.77L595.36,997s-35.49-4.44-46.58-10l-63.21-24.4S496.1,887.8,605.9,931.05c0,0,37.71-6.65,66.54-5.55,0,0,41-37.7,68.76-51,0,0,43.26-88.73,32.17-129.76L768.93,717s12.2,1.11,21.07,52.13C790,769.13,804.42,835.67,873.73,819.59Z"/><path class="cls-3" d="M546.75,986.19s1.18-21.07-17.66-26.67L489.74,948.8s-7.44,6.46-4,13.51Z"/><path class="cls-3" d="M444.66,1002.5s-19.91-14-45.44-7.73l-28.93,7.48s-1.63,8.21,6.93,7.11C377.22,1009.36,415.81,1008.72,444.66,1002.5Z"/><path class="cls-6" d="M873.73,822.92S808.3,793,818.28,724.21c0,0,8.87-61-15.52-79.85,0,0,14.41,48.8,7.76,90.94C810.52,735.3,795,794.08,873.73,822.92Z"/><path class="cls-6" d="M568.44,919.88c5.65,1.46,22.15,6,25.81,10.62,0,0,11.21,7.68,16.7,2.17,0,0,22.12-10.21,52.62-6.75,0,0,13.35,3.09,17.64-3.1a17.29,17.29,0,0,1,2.07-2.59c6.43-6.31,33.2-32.06,46.17-36.78a29.29,29.29,0,0,0,7.95-4.21c2.65-2.06,5.47-4.9,6.6-8.27a65.85,65.85,0,0,1,4.77-10.76c9.09-16.62,28.65-60,17.39-109.38,0,0-6.66-20-7.77,5.54,0,0-1,85.59-39.34,114.68a174.93,174.93,0,0,0-16.48,14.55c-12.79,12.52-41.48,32.79-91.68,30.48,0,0-65.57-9.37-46.48,2.14A14.65,14.65,0,0,0,568.44,919.88Z"/><path class="cls-6" d="M222.76,604.82S295.09,578.9,319,559.51c0,0,36.46-37.65,48.15-35.39,0,0,9.38-1.77.49,5.07,0,0-36.09,36-55.81,43.77A88,88,0,0,0,299,579.35C283.09,588.87,247.06,608.27,222.76,604.82Z"/><path class="cls-6" d="M605.45,847l-2.32,13.58s-25.51,8.88-39.93,25.51c0,0-25.51,10-28.84,17.75,0,0,2.22,3.32,5.55,0,0,0,11.51-10.69,20.38-13a38.73,38.73,0,0,0,10.39-4.17c11.76-7,36-21.69,40.21-25,0,0,13.31-18.85,5.54-24.4Z"/><path class="cls-1" d="M534.36,903.88s-62.1-24.4-86.5,24.4c0,0,38.82-38.82,85.4-21.08,0,0,4.43,2.22,6.65-3.32S534.36,903.88,534.36,903.88Z"/><path class="cls-6" d="M690.74,551.2s-37.87,6.92-56.09,105.49c0,0,3.58,19.66,14.86,3.67,0,0,6.87-84,40.69-93.8Z"/><path class="cls-4" d="M402,592s-43.42,42.93-36.77,85.08c0,0,5.55,124.21,158.6,170.79,0,0,57.67,14.42,99.81-10,0,0,27.73-15.53,39.93-42.14Z"/><path class="cls-5" d="M429.56,565.06s-82.07,46.58-23.29,148.62c0,0,55.45,105.36,181.88,108.68,0,0,82.07,3.33,99.82-67.65,0,0,16.63-66.54-41-126.43,0,0-43.79-48-86.89-62-2.72-.89-5.42-1.81-8.09-2.82C535.78,557.37,474.45,537.37,429.56,565.06Z"/><path class="cls-4" d="M448.81,586.71S381.36,625,429.67,708.85c0,0,45.58,86.59,149.48,89.32,0,0,67.45,2.74,82-55.6,0,0,13.68-54.69-33.72-103.91,0,0-36-39.41-71.41-50.95-2.23-.73-4.45-1.49-6.65-2.32C536.11,580.39,485.7,564,448.81,586.71Z"/><path class="cls-5" d="M448,591.52s-65.91,37.41-18.7,119.36c0,0,44.53,84.62,146.08,87.29,0,0,65.92,2.67,80.17-54.33,0,0,13.36-53.45-33-101.55,0,0-35.17-38.52-69.79-49.8-2.18-.71-4.35-1.45-6.5-2.26C533.29,585.34,484,569.27,448,591.52Z"/><rect class="cls-4" x="532.79" y="674.94" width="5.72" height="103.99" transform="translate(-183.42 180.77) rotate(-16.4)"/><rect class="cls-4" x="479.08" y="659.05" width="5.72" height="103.99" transform="translate(-181.12 164.96) rotate(-16.4)"/><rect class="cls-4" x="564.71" y="611.97" width="5.72" height="103.99" transform="matrix(0.96, -0.28, 0.28, 0.96, -164.34, 187.22)"/><rect class="cls-5" x="534.01" y="671.28" width="5.72" height="103.99" transform="translate(-182.33 180.96) rotate(-16.4)"/><rect class="cls-5" x="480.3" y="655.39" width="5.72" height="103.99" transform="translate(-180.03 165.16) rotate(-16.4)"/><rect class="cls-5" x="565.93" y="608.31" width="5.72" height="103.99" transform="translate(-163.26 187.41) rotate(-16.4)"/><rect class="cls-4" x="535.84" y="669.45" width="5.72" height="103.99" transform="translate(-181.74 181.4) rotate(-16.4)"/><rect class="cls-4" x="482.13" y="653.56" width="5.72" height="103.99" transform="translate(-179.44 165.6) rotate(-16.4)"/><rect class="cls-4" x="567.76" y="606.48" width="5.72" height="103.99" transform="matrix(0.96, -0.28, 0.28, 0.96, -162.67, 187.85)"/><polygon class="cls-4" points="1090 286.56 827.71 440.85 858.21 448.06 1090 313.91 1090 286.56"/><path class="cls-5" d="M923.35,510c-44.47-56.9-92.6-87.57-107.51-68.5-6.49,8.31-5.61,24.69,1.14,45.24l21.94-21.42L954.76,626.76l-14.7,18.55c16.75,9.36,30.14,10.82,36.83,2.26C991.79,628.5,967.82,566.92,923.35,510Z"/><path class="cls-2" d="M916.09,517.72c-40-51.2-81.94-80.55-93.65-65.57-4.21,5.39-3.92,15.79,0,29.27l18.63-7.52,100.6,152.16,4.07,12.08c9.91,4.46,17.55,4.57,21.58-.6C979,622.56,956.1,568.91,916.09,517.72Z"/><path class="cls-4" d="M672.45,577.65s16.59,25.67,39.66,26.94c0,0,66.38,11.18,108.43-64.55,0,0,14.19-28.89,6.06-54,0,0-5.06-16.44-17.77-25.92Z"/><path class="cls-5" d="M660.12,557.81s15.33,48.74,76,29.22c0,0,62.07-17.39,78.2-83.94,0,0,11.09-43.06-24.47-60.52,0,0-33.33-16.37-71.59,7.35,0,0-30.37,17.73-42.69,38.95-.78,1.34-1.58,2.67-2.42,4C668.12,500.71,650.56,530.9,660.12,557.81Z"/><path class="cls-4" d="M673.77,550.08s12.6,40,62.48,24c0,0,51-14.29,64.27-69,0,0,9.12-35.4-20.11-49.74,0,0-27.39-13.46-58.84,6,0,0-25,14.57-35.08,32-.64,1.1-1.3,2.19-2,3.26C680.34,503.15,665.91,528,673.77,550.08Z"/><path class="cls-5" d="M676.22,551.06s12.31,39.15,61.06,23.47c0,0,49.86-14,62.81-67.41,0,0,8.91-34.59-19.65-48.62,0,0-26.78-13.14-57.5,5.91,0,0-24.39,14.24-34.29,31.29-.63,1.07-1.27,2.13-1.94,3.18C682.64,505.2,668.54,529.45,676.22,551.06Z"/><rect class="cls-4" x="700.72" y="534.52" width="61.88" height="3.4" transform="translate(25.48 1105.58) rotate(-75.11)"/><rect class="cls-4" x="678.32" y="509.84" width="61.88" height="3.4" transform="translate(32.68 1065.6) rotate(-75.11)"/><rect class="cls-4" x="736.42" y="512.36" width="61.88" height="3.4" transform="translate(73.43 1123.61) rotate(-75.11)"/><rect class="cls-5" x="702.47" y="533.04" width="61.88" height="3.4" transform="translate(28.22 1106.17) rotate(-75.11)"/><rect class="cls-5" x="680.07" y="508.36" width="61.88" height="3.4" transform="translate(35.42 1066.19) rotate(-75.11)"/><rect class="cls-5" x="738.17" y="510.87" width="61.88" height="3.4" transform="translate(76.16 1124.2) rotate(-75.11)"/><rect class="cls-4" x="703.97" y="532.67" width="61.88" height="3.4" transform="translate(29.68 1107.35) rotate(-75.11)"/><rect class="cls-4" x="681.57" y="507.99" width="61.88" height="3.4" transform="translate(36.89 1067.36) rotate(-75.11)"/><rect class="cls-4" x="739.66" y="510.51" width="61.88" height="3.4" transform="translate(77.63 1125.38) rotate(-75.11)"/></g></svg>