<svg id="Calque_1" data-name="Calque 1" xmlns="http://www.w3.org/2000/svg" viewBox="0 0 333 331"><defs><style>.cls-1{fill:#1e1452;}.cls-2{fill:#fdbe5a;}.cls-3{fill:#fff;}</style></defs><title>picto-profilage</title><rect class="cls-1" x="175" y="59" width="98" height="138"/><path class="cls-1" d="M163,73.07a3.45,3.45,0,0,0-3.45-3.46H142.22a3.46,3.46,0,0,0,0,6.91h13.83V90.35a3.46,3.46,0,1,0,6.91,0Z"/><path class="cls-1" d="M104.2,69.61H86.92a3.46,3.46,0,0,0-3.46,3.46V90.35a3.46,3.46,0,0,0,6.92,0V76.52H104.2a3.46,3.46,0,1,0,0-6.91Z"/><path class="cls-1" d="M67.91,201h3.46V194H67.91a3.46,3.46,0,0,1-3.46-3.45V66.15a3.47,3.47,0,0,1,3.46-3.45H268.39a3.45,3.45,0,0,1,3.45,3.45V190.59a3.44,3.44,0,0,1-3.45,3.45H175.06V201h93.33a10.39,10.39,0,0,0,10.37-10.37V66.15a10.39,10.39,0,0,0-10.37-10.37H67.91A10.39,10.39,0,0,0,57.54,66.15V190.59A10.39,10.39,0,0,0,67.91,201Z"/><path class="cls-2" d="M97.29,104.17a25.93,25.93,0,1,0,25.92-25.92A25.93,25.93,0,0,0,97.29,104.17Zm44.93,0a19,19,0,1,1-19-19A19,19,0,0,1,142.22,104.17Z"/><path class="cls-1" d="M159.51,116.27a3.46,3.46,0,0,0-3.46,3.46v13.83H142.22a3.46,3.46,0,0,0,0,6.91h17.29A3.45,3.45,0,0,0,163,137V119.73A3.45,3.45,0,0,0,159.51,116.27Z"/><path class="cls-2" d="M100.75,277h44.93a3.46,3.46,0,0,0,3.46-3.46V221.7h12.1a6.92,6.92,0,0,0,6.91-6.92V149.11a24.74,24.74,0,0,0-.65-5.49,10.37,10.37,0,0,1-6.37,3.62c.07.62.1,1.25.11,1.87v65.67H85.19V149.11a16.75,16.75,0,0,1,.11-1.87,10.37,10.37,0,0,1-6.37-3.62,24.17,24.17,0,0,0-.65,5.49v65.67a6.91,6.91,0,0,0,6.91,6.92h12.1v51.84A3.46,3.46,0,0,0,100.75,277Zm25.92-55.3h15.55v48.39H126.67Zm-22.47,0h15.56v48.39H104.2Z"/><path class="cls-1" d="M83.46,137a3.46,3.46,0,0,0,3.46,3.46H104.2a3.46,3.46,0,1,0,0-6.91H90.38V119.73a3.46,3.46,0,1,0-6.92,0Z"/><path class="cls-3" d="M193.43,97.26H259.1a3.46,3.46,0,1,0,0-6.91H193.43a3.46,3.46,0,1,0,0,6.91Z"/><path class="cls-3" d="M193.43,114.54H259.1a3.46,3.46,0,1,0,0-6.91H193.43a3.46,3.46,0,1,0,0,6.91Z"/><path class="cls-3" d="M193.43,131.83H259.1a3.46,3.46,0,0,0,0-6.92H193.43a3.46,3.46,0,0,0,0,6.92Z"/><path class="cls-3" d="M193.43,149.11H259.1a3.46,3.46,0,1,0,0-6.91H193.43a3.46,3.46,0,1,0,0,6.91Z"/><path class="cls-3" d="M193.43,166.39H259.1a3.46,3.46,0,1,0,0-6.91H193.43a3.46,3.46,0,1,0,0,6.91Z"/></svg>