<?xml version="1.0" encoding="UTF-8"?>
<!DOCTYPE svg  PUBLIC '-//W3C//DTD SVG 1.1//EN'  'http://www.w3.org/Graphics/SVG/1.1/DTD/svg11.dtd'>
<svg version="1.1" xmlns="http://www.w3.org/2000/svg">
<defs>
<font id="AvenirLTStd-Roman" horiz-adv-x="556">
<font-face font-family="Avenir LT Std 55 Roman" font-weight="400" ascent="756" bbox="-37 -250 957 928" cap-height="708" descent="-244" panose-1="2 11 5 3 2 2 3 2 2 4" underline-position="-100" underline-thickness="50" unicode-range="U+0020-00FE" units-per-em="1000" x-height="468"/>
<missing-glyph/>
<glyph glyph-name="space" horiz-adv-x="278" unicode=" "/>
<glyph d="M181 708v-510h-84v510h84zM139 114q36 0 53 -32q7 -14 7 -28q0 -36 -33 -53q-14 -7 -27 -7q-34 0 -52 31q-8 14 -8 29q0 36 32 53q14 7 28 7z" glyph-name="exclam" horiz-adv-x="278" unicode="!"/>
<glyph d="M150 468v240h72v-240h-72zM297 468v240h72v-240h-72z" glyph-name="quotedbl" horiz-adv-x="519" unicode='"'/>
<glyph d="M98 0l30 213h-98v66h108l20 152h-98v66h108l30 211h67l-30 -211h126l30 211h67l-30 -211h98v-66h-107l-21 -152h98v-66h-108l-30 -213h-67l30 213h-126l-30 -213h-67zM331 279l21 152h-126l-21 -152h126z" glyph-name="numbersign" unicode="#"/>
<glyph d="M256 -83v71q-145 1 -214 93l70 61q36 -56 112 -72q17 -3 32 -4v254q-197 54 -198 203q0 98 83 156q51 35 115 41v66h48v-66q107 0 178 -64q9 -9 16 -17l-66 -60q-48 62 -128 63v-249q113 -36 156 -74q54 -49 54 -129q0 -104 -87 -162q-54 -35 -123 -40v-71h-48zM256 406 v236q-77 -14 -100 -76q-8 -21 -8 -44q0 -61 59 -94q18 -10 49 -22zM304 307v-241q72 9 105 63q15 27 15 57q0 76 -93 112q-13 5 -27 9z" glyph-name="dollar" unicode="$"/>
<glyph d="M38 545q0 86 66 138q48 37 109 37q86 0 138 -66q37 -48 37 -109q0 -86 -66 -138q-48 -37 -109 -37q-86 0 -138 66q-37 48 -37 109zM110 545q0 -53 46 -85q27 -18 57 -18q53 0 85 45q18 27 18 58q0 53 -46 85q-27 18 -57 18q-53 0 -85 -45q-18 -27 -18 -58zM445 163 q0 86 66 138q48 37 109 37q86 0 138 -66q37 -48 37 -109q0 -86 -66 -138q-48 -37 -109 -37q-86 0 -138 66q-37 48 -37 109zM517 163q0 -53 46 -85q27 -18 57 -18q53 0 85 45q18 27 18 58q0 53 -46 85q-27 18 -57 18q-53 0 -85 -45q-18 -27 -18 -58zM170 0l444 740l55 -32 l-444 -740z" glyph-name="percent" horiz-adv-x="833" unicode="%"/>
<glyph d="M593 0l-96 102q-76 -96 -168 -111q-22 -3 -44 -3q-110 0 -175 70q-50 54 -50 132q0 128 146 200q6 3 11 5q-72 73 -82 134q-3 15 -3 30q0 95 83 139q45 23 100 23q101 0 149 -65q28 -39 28 -92q0 -98 -137 -173q-7 -4 -13 -7l150 -159l95 159h95l-136 -218l162 -166h-115 zM265 461l25 -26q69 38 90 61q28 32 28 70q0 55 -50 75q-19 8 -40 8q-61 0 -89 -46q-13 -22 -13 -49q1 -43 49 -93zM446 158l-177 186q-88 -48 -112 -96q-13 -26 -13 -55q0 -69 58 -108q36 -25 80 -25q72 0 139 70q11 12 25 28z" glyph-name="ampersand" horiz-adv-x="722" unicode="&amp;"/>
<glyph d="M103 468v240h72v-240h-72z" glyph-name="quotesingle" horiz-adv-x="278" unicode="'"/>
<glyph d="M255 -118l-54 -38q-130 179 -144 396q-2 25 -2 48q0 241 141 437q3 4 5 7l54 -40q-128 -177 -128 -404q0 -167 73 -312q23 -44 55 -94z" glyph-name="parenleft" horiz-adv-x="278" unicode="("/>
<glyph d="M23 694l54 38q130 -179 144 -396q2 -25 2 -48q0 -241 -141 -437q-3 -4 -5 -7l-54 40q128 177 128 404q0 167 -73 312q-23 44 -55 94z" glyph-name="parenright" horiz-adv-x="278" unicode=")"/>
<glyph d="M252 708v-149l142 48l19 -58l-141 -48l89 -119l-49 -38l-90 123l-87 -123l-50 38l87 119l-141 48l19 58l142 -48v149h60z" glyph-name="asterisk" horiz-adv-x="444" unicode="*"/>
<glyph d="M72 270v66h228v228h66v-228h228v-66h-228v-228h-66v228h-228z" glyph-name="plus" horiz-adv-x="666" unicode="+"/>
<glyph d="M211 102l-82 -240h-77l68 240h91z" glyph-name="comma" horiz-adv-x="278" unicode=","/>
<glyph d="M44 204v72h245v-72h-245z" glyph-name="hyphen" horiz-adv-x="333" unicode="-"/>
<glyph d="M139 114q36 0 53 -32q7 -14 7 -28q0 -36 -33 -53q-14 -7 -27 -7q-34 0 -52 31q-8 14 -8 29q0 36 32 53q14 7 28 7z" glyph-name="period" horiz-adv-x="278" unicode="."/>
<glyph d="M367 726l-301 -769l-63 25l301 768z" glyph-name="slash" horiz-adv-x="370" unicode="/"/>
<glyph d="M38 354q0 224 99 315q57 51 141 51q170 0 221 -200q19 -74 19 -166q0 -224 -99 -315q-57 -51 -141 -51q-170 0 -221 200q-19 74 -19 166zM122 354q0 -255 119 -289q18 -5 37 -5q135 0 153 225q3 33 3 69q0 255 -119 289q-18 5 -37 5q-135 0 -153 -225q-3 -33 -3 -69z" glyph-name="zero" unicode="0"/>
<glyph d="M360 708v-708h-84v600h-2l-127 -107l-50 61l190 154h73z" glyph-name="one" unicode="1"/>
<glyph d="M50 0v96l267 260q70 68 87 107q13 30 13 65q0 71 -61 104q-31 16 -68 16q-82 0 -119 -69q-10 -20 -15 -44l-91 8q19 117 123 159q45 18 99 18q115 0 175 -71q41 -50 41 -121q0 -40 -10 -74t-33.5 -66t-41 -50.5t-53.5 -52.5l-218 -205v-2h361v-78h-456z" glyph-name="two" unicode="2"/>
<glyph d="M204 336v72h26q160 2 161 123q0 75 -61 104q-27 13 -60 13q-92 -1 -130 -79l-81 31q38 90 145 114q29 6 60 6q113 0 171 -70q40 -47 40 -115q0 -79 -62 -130q-27 -22 -59 -32v-2q88 -15 126 -92q19 -40 19 -86q0 -118 -99 -173q-59 -32 -135 -32q-177 1 -228 149l85 28 q25 -80 87 -98q24 -7 56 -7q77 0 119 58q25 36 25 81q0 101 -108 129q-33 8 -71 8h-26z" glyph-name="three" unicode="3"/>
<glyph d="M419 708v-468h102v-78h-102v-162h-84v162h-300v93l281 453h103zM335 240v370h-2l-226 -370h228z" glyph-name="four" unicode="4"/>
<glyph d="M474 708v-78h-289l-3 -191q36 17 91 17q117 0 181 -86q45 -63 45 -147q0 -119 -88 -186q-66 -49 -155 -49q-146 1 -209 129l84 32q32 -71 102 -86q15 -3 30 -3q81 0 124 65q28 42 28 98q0 99 -82 141q-41 20 -93 20q-70 -1 -144 -44l7 368h371z" glyph-name="five" unicode="5"/>
<glyph d="M394 708l-190 -295l2 -2q37 21 95 21q108 0 169 -79q45 -60 45 -143q0 -120 -93 -182q-62 -40 -144 -40q-122 0 -188 80q-49 58 -49 142q0 86 54 178q6 10 13 21l188 299h98zM278 360q-83 0 -126 -61q-27 -39 -27 -89q0 -87 69 -128q38 -22 84 -22q83 0 126 61 q27 39 27 89q0 87 -69 128q-38 22 -84 22z" glyph-name="six" unicode="6"/>
<glyph d="M480 708v-78l-283 -630h-95l288 630h-342v78h432z" glyph-name="seven" unicode="7"/>
<glyph d="M76 535q0 98 79 150q53 35 123 35q105 0 163 -71q39 -48 39 -114q0 -72 -53 -121q-28 -26 -63 -35v-2q83 -18 121 -95q19 -41 19 -87q0 -113 -90 -170q-59 -37 -136 -37q-116 0 -180 76q-46 54 -46 131q0 93 67 147q32 26 73 35v2q-69 18 -101 88q-15 33 -15 68zM160 531 q0 -68 54 -100q29 -17 64 -17q70 0 102 56q16 28 16 61q0 68 -54 100q-29 17 -64 17q-70 0 -102 -56q-16 -28 -16 -61zM136 201q0 -77 61 -118q37 -23 81 -23q75 0 116 58q26 36 26 83q0 77 -61 118q-37 23 -81 23q-75 0 -116 -58q-26 -36 -26 -83z" glyph-name="eight" unicode="8"/>
<glyph d="M162 0l190 295l-2 2q-37 -21 -95 -21q-108 0 -169 79q-45 60 -45 143q0 120 93 182q62 40 144 40q122 0 188 -80q49 -58 49 -142q0 -86 -54 -178q-6 -10 -13 -21l-188 -299h-98zM278 348q83 0 126 61q27 39 27 89q0 87 -69 128q-38 22 -84 22q-83 0 -126 -61 q-27 -39 -27 -89q0 -87 69 -128q38 -22 84 -22z" glyph-name="nine" unicode="9"/>
<glyph d="M139 480q36 0 53 -32q7 -14 7 -28q0 -36 -33 -53q-14 -7 -27 -7q-34 0 -52 31q-8 14 -8 29q0 36 32 53q14 7 28 7zM139 114q36 0 53 -32q7 -14 7 -28q0 -36 -33 -53q-14 -7 -27 -7q-34 0 -52 31q-8 14 -8 29q0 36 32 53q14 7 28 7z" glyph-name="colon" horiz-adv-x="278" unicode=":"/>
<glyph d="M211 102l-82 -240h-77l68 240h91zM139 480q36 0 53 -32q7 -14 7 -28q0 -36 -33 -53q-14 -7 -27 -7q-34 0 -52 31q-8 14 -8 29q0 36 32 53q14 7 28 7z" glyph-name="semicolon" horiz-adv-x="278" unicode=";"/>
<glyph d="M594 564v-66l-441 -195l441 -195v-66l-522 232v58z" glyph-name="less" horiz-adv-x="666" unicode="&lt;"/>
<glyph d="M72 348v66h522v-66h-522zM72 192v66h522v-66h-522z" glyph-name="equal" horiz-adv-x="666" unicode="="/>
<glyph d="M72 42v66l441 195l-441 195v66l522 -232v-58z" glyph-name="greater" horiz-adv-x="666" unicode="&gt;"/>
<glyph d="M189 198v63q0 61 25 94q11 14 44 47q50 51 61 66q26 38 26 77q0 71 -55 98q-23 11 -51 11q-77 0 -109 -67q-9 -19 -13 -42l-90 10q18 107 112 150q46 21 101 21q109 0 162 -71q33 -45 33 -107q0 -77 -65 -146q-15 -16 -49 -47q-38 -36 -44 -62q-4 -17 -4 -49v-46h-84z M231 114q36 0 53 -32q7 -14 7 -28q0 -36 -33 -53q-14 -7 -27 -7q-34 0 -52 31q-8 14 -8 29q0 36 32 53q14 7 28 7z" glyph-name="question" horiz-adv-x="482" unicode="?"/>
<glyph d="M262 293q0 -59 45 -85q20 -11 42 -11q65 0 115 83q40 66 40 129q0 51 -39 80q-21 14 -42 14q-71 0 -122 -82q-39 -63 -39 -128zM619 550l-84 -283q-9 -29 -9 -50q2 -19 24 -20q48 0 93 65q47 71 47 153q0 123 -96 198q-77 59 -176 59q-129 0 -219 -94q-89 -95 -89 -224 q0 -134 93 -227q92 -90 215 -91q115 0 204 71q28 24 48 50h63q-66 -113 -195 -156q-59 -19 -120 -19q-154 0 -261 104q-106 102 -113 250v18q0 150 103 257q101 105 248 114q12 1 23 1q142 0 240 -88q97 -88 98 -218q0 -128 -90 -218q-73 -67 -144 -71q-49 0 -61 45 q-2 11 -3 21h-2q-51 -59 -109 -65q-8 -1 -16 -1q-80 0 -119 68q-22 39 -22 87q0 114 68 199q68 83 165 84q81 -2 111 -82h2l18 63h65z" glyph-name="at" horiz-adv-x="800" unicode="@"/>
<glyph d="M6 0l312 708h79l301 -708h-98l-72 174h-354l-73 -174h-95zM496 252l-140 348h-2l-147 -348h289z" glyph-name="A" horiz-adv-x="704" unicode="A"/>
<glyph d="M88 0v708h216q146 0 204 -76q31 -41 31 -98q0 -106 -97 -150q-13 -6 -27 -10v-2q84 -7 130 -76q30 -44 30 -98q0 -146 -162 -186q-52 -12 -114 -12h-211zM172 630v-222h116q143 0 159 90q2 12 2 25q-1 106 -152 107h-125zM172 330v-252h142q104 0 148 55q23 29 23 68 q0 104 -116 125q-25 4 -53 4h-144z" glyph-name="B" horiz-adv-x="630" unicode="B"/>
<glyph d="M657 615l-73 -53q-57 77 -157 85q-11 1 -20 1q-121 0 -200 -96q-70 -85 -70 -198q0 -134 85 -219q76 -75 185 -75q128 1 205 99l63 -53q-93 -124 -268 -124q-152 0 -255 104q-105 108 -105 268q0 158 101 264q104 108 259 108t240 -99q6 -6 10 -12z" glyph-name="C" horiz-adv-x="704" unicode="C"/>
<glyph d="M75 0v708h272q117 0 212 -69q134 -99 135 -285q0 -195 -146 -293q-92 -61 -201 -61h-272zM159 630v-552h160q177 0 247 118q38 65 38 158q0 190 -147 251q-60 25 -138 25h-160z" glyph-name="D" horiz-adv-x="741" unicode="D"/>
<glyph d="M88 0v708h445v-78h-361v-222h337v-78h-337v-252h379v-78h-463z" glyph-name="E" horiz-adv-x="593" unicode="E"/>
<glyph d="M88 0v708h439v-78h-355v-234h330v-78h-330v-318h-84z" glyph-name="F" unicode="F"/>
<glyph d="M690 396v-348q-119 -66 -265 -66q-173 0 -279 110q-99 104 -99 262q0 168 115 273q108 99 266 99q158 -1 250 -93l-63 -66q-66 71 -171 80q-11 1 -22 1q-130 0 -212 -92q-73 -83 -73 -202q0 -139 94 -223q81 -71 199 -71q94 0 176 41v217h-163v78h247z" glyph-name="G" horiz-adv-x="778" unicode="G"/>
<glyph d="M88 0v708h84v-300h378v300h84v-708h-84v330h-378v-330h-84z" glyph-name="H" horiz-adv-x="722" unicode="H"/>
<glyph d="M88 0v708h84v-708h-84z" glyph-name="I" horiz-adv-x="260" unicode="I"/>
<glyph d="M394 708v-525q0 -108 -71 -162q-52 -39 -131 -39q-129 0 -174 101q-10 24 -15 51l84 17q16 -79 87 -90q10 -1 19 -1q116 2 117 152v496h84z" glyph-name="J" horiz-adv-x="482" unicode="J"/>
<glyph d="M88 0v708h84v-306h12l322 306h121l-350 -323l367 -385h-123l-337 360h-12v-360h-84z" glyph-name="K" horiz-adv-x="630" unicode="K"/>
<glyph d="M88 0v708h84v-630h324v-78h-408z" glyph-name="L" horiz-adv-x="500" unicode="L"/>
<glyph d="M88 0v708h125l240 -555h2l242 555h122v-708h-84v594h-2l-254 -594h-51l-254 594h-2v-594h-84z" glyph-name="M" horiz-adv-x="907" unicode="M"/>
<glyph d="M88 0v708h106l410 -588h2v588h84v-708h-106l-410 588h-2v-588h-84z" glyph-name="N" horiz-adv-x="778" unicode="N"/>
<glyph d="M417 -18q-164 0 -269 109q-101 106 -101 263q0 163 107 268q105 104 263 104q164 0 269 -109q101 -106 101 -263q0 -163 -107 -268q-105 -104 -263 -104zM417 60q131 0 212 97q68 83 68 197q0 133 -87 218q-79 76 -193 76q-131 0 -212 -97q-68 -83 -68 -197 q0 -133 87 -218q79 -76 193 -76z" glyph-name="O" horiz-adv-x="834" unicode="O"/>
<glyph d="M88 0v708h210q191 0 236 -119q12 -34 12 -75q0 -138 -131 -181q-47 -15 -101 -15h-142v-318h-84zM172 630v-234h142q108 0 135 72q7 21 7 45q0 88 -88 111q-25 6 -54 6h-142z" glyph-name="P" horiz-adv-x="593" unicode="P"/>
<glyph d="M822 72v-72h-411q-154 0 -259 104q-103 107 -105 259q0 153 103 257q107 105 261 106q154 0 259 -104q103 -107 105 -259q0 -120 -72 -211q-43 -54 -100 -78v-2h219zM137 363q0 -127 86 -210q79 -75 188 -75q122 0 202 90q72 81 72 195q0 127 -85 210q-78 75 -189 75 q-126 0 -205 -93q-69 -81 -69 -192z" glyph-name="Q" horiz-adv-x="834" unicode="Q"/>
<glyph d="M88 0v708h181q164 0 228 -55q54 -49 54 -140q0 -116 -103 -165q-33 -16 -74 -22l201 -326h-103l-192 318h-108v-318h-84zM172 630v-234h75q113 0 157 21q56 28 57 96q0 106 -135 116q-17 1 -36 1h-118z" glyph-name="R" horiz-adv-x="611" unicode="R"/>
<glyph d="M493 643l-69 -60q-42 64 -129 65q-88 0 -129 -51q-22 -29 -22 -68q0 -56 47 -87q33 -21 102 -43q110 -35 152 -70q60 -51 60 -140q0 -121 -108 -176q-62 -31 -141 -31q-131 0 -201 76q-9 11 -17 22l72 59q37 -65 122 -77q15 -2 29 -2q76 0 122 46q32 33 32 77 q0 61 -48 90q-28 18 -137 54q-113 37 -150 95q-26 41 -26 100q0 116 102 171q61 33 139 33q127 -1 198 -83z" glyph-name="S" unicode="S"/>
<glyph d="M563 708v-78h-234v-630h-84v630h-234v78h552z" glyph-name="T" horiz-adv-x="574" unicode="T"/>
<glyph d="M619 708v-438q0 -175 -110 -247q-64 -41 -157 -41q-185 0 -244 152q-23 60 -23 136v438h84v-426q0 -171 113 -211q32 -11 70 -11q148 0 177 151q6 33 6 71v426h84z" glyph-name="U" horiz-adv-x="704" unicode="U"/>
<glyph d="M262 0l-271 708h95l218 -582h2l225 582h89l-277 -708h-81z" glyph-name="V" horiz-adv-x="611" unicode="V"/>
<glyph d="M213 0l-207 708h93l161 -588h2l174 588h94l173 -588h2l164 588h88l-208 -708h-91l-175 600h-2l-176 -600h-92z" glyph-name="W" horiz-adv-x="963" unicode="W"/>
<glyph d="M-3 0l258 373l-238 335h108l191 -277l189 277h105l-238 -335l261 -373h-111l-210 314l-211 -314h-104z" glyph-name="X" horiz-adv-x="630" unicode="X"/>
<glyph d="M255 0v305l-264 403h107l199 -320l205 320h101l-264 -403v-305h-84z" glyph-name="Y" horiz-adv-x="594" unicode="Y"/>
<glyph d="M29 0v75l409 555h-403v78h505v-72l-409 -558h414v-78h-516z" glyph-name="Z" horiz-adv-x="574" unicode="Z"/>
<glyph d="M193 732v-60h-93v-768h93v-60h-165v888h165z" glyph-name="bracketleft" horiz-adv-x="259" unicode="["/>
<glyph d="M304 -43l-301 769l63 24l301 -768z" glyph-name="backslash" horiz-adv-x="370" unicode="\"/>
<glyph d="M66 672v60h165v-888h-165v60h93v768h-93z" glyph-name="bracketright" horiz-adv-x="259" unicode="]"/>
<glyph d="M80 275l223 433h60l223 -433h-74l-179 349l-179 -349h-74z" glyph-name="asciicircum" horiz-adv-x="666" unicode="^"/>
<glyph d="M0 -125v50h500v-50h-500z" glyph-name="underscore" horiz-adv-x="500" unicode="_"/>
<glyph d="M85 708l104 -144h-71l-143 144h110z" glyph-name="grave" horiz-adv-x="240" unicode="`"/>
<glyph d="M117 357l-49 51q72 71 186 72q159 0 188 -124q8 -33 8 -74v-201q0 -39 7 -81h-75q-5 22 -5 70h-2q-54 -81 -154 -82q-102 0 -148 60q-26 34 -26 79q0 150 231 162q28 2 64 2h30v14q0 88 -88 101q-13 2 -28 2q-84 -1 -139 -51zM372 225h-78q-162 -1 -163 -90 q2 -80 103 -81q89 0 123 75q14 30 15 66v30z" glyph-name="a" horiz-adv-x="519" unicode="a"/>
<glyph d="M70 0v756h78v-356h2q70 79 168 80q125 0 195 -89q51 -66 51 -157q0 -116 -81 -188q-65 -58 -153 -58q-97 0 -157 63q-14 16 -23 32h-2v-83h-78zM148 234q0 -93 66 -142q43 -32 100 -32q93 0 139 74q27 44 27 100q0 93 -66 142q-43 32 -100 32q-93 0 -139 -74 q-27 -44 -27 -100z" glyph-name="b" horiz-adv-x="611" unicode="b"/>
<glyph d="M469 406l-62 -55q-48 57 -118 57q-101 0 -140 -86q-18 -40 -18 -88q0 -91 62 -141q42 -33 96 -33q77 1 119 58l58 -55q-66 -75 -177 -75q-126 0 -194 90q-48 66 -48 156q0 122 84 192q66 54 158 54q112 -1 180 -74z" glyph-name="c" horiz-adv-x="482" unicode="c"/>
<glyph d="M463 0v83h-2q-35 -64 -117 -87q-31 -8 -63 -8q-106 0 -175 80q-59 70 -59 166q0 123 86 192q66 54 160 54q99 -1 168 -80h2v356h78v-756h-78zM463 234q0 93 -66 142q-43 32 -100 32q-93 0 -139 -74q-27 -44 -27 -100q0 -93 66 -142q43 -32 100 -32q93 0 139 74 q27 44 27 100z" glyph-name="d" horiz-adv-x="611" unicode="d"/>
<glyph d="M433 131l59 -46q-71 -92 -192 -97h-16q-125 0 -191 94q-46 65 -46 152q0 123 86 193q65 53 154 53q125 0 184 -95q38 -62 38 -150v-25h-378q6 -78 66 -122q39 -28 87 -28q93 1 149 71zM131 276h294q-3 87 -74 119q-30 13 -67 13q-93 0 -134 -72q-15 -27 -19 -60z" glyph-name="e" unicode="e"/>
<glyph d="M114 0v402h-102v66h102v105q8 191 166 195q37 0 60 -12l-11 -70q-29 10 -53 10q-64 0 -78 -56q-6 -26 -6 -84v-88h114v-66h-114v-402h-78z" glyph-name="f" horiz-adv-x="315" unicode="f"/>
<glyph d="M541 468v-447q0 -189 -142 -243q-50 -18 -113 -18q-140 1 -230 89l56 64q76 -81 174 -81q176 2 177 189v60h-2q-46 -74 -139 -85q-13 -2 -26 -2q-125 0 -196 86q-53 65 -53 154q0 140 100 206q63 40 149 40q83 0 137 -53q17 -18 28 -39h2v80h78zM131 234q0 -84 64 -134 q45 -34 101 -34q97 0 142 76q25 43 25 94q0 96 -70 144q-42 28 -97 28q-89 0 -136 -71q-29 -45 -29 -103z" glyph-name="g" horiz-adv-x="611" unicode="g"/>
<glyph d="M74 0v756h78v-353h2q26 47 89 67q30 10 61 10q136 0 169 -119q9 -33 9 -72v-289h-78v281q0 114 -87 126q-10 1 -20 1q-117 0 -140 -122q-5 -27 -5 -58v-228h-78z" glyph-name="h" unicode="h"/>
<glyph d="M81 0v468h78v-468h-78zM63 651q0 36 32 51q12 6 25 6q36 0 51 -33q6 -12 6 -24q0 -39 -35 -53q-11 -4 -22 -4q-39 0 -53 35q-4 11 -4 22z" glyph-name="i" horiz-adv-x="240" unicode="i"/>
<glyph d="M159 468v-573q0 -74 -52 -111q-35 -24 -87 -24q-33 0 -54 10l9 68q20 -6 38 -6q57 0 66 62q2 16 2 37v537h78zM63 651q0 36 32 51q12 6 25 6q36 0 51 -33q6 -12 6 -24q0 -39 -35 -53q-11 -4 -22 -4q-39 0 -53 35q-4 11 -4 22z" glyph-name="j" horiz-adv-x="240" unicode="j"/>
<glyph d="M74 0v756h78v-494l213 206h111l-226 -213l249 -255h-115l-232 246v-246h-78z" glyph-name="k" horiz-adv-x="500" unicode="k"/>
<glyph d="M81 0v756h78v-756h-78z" glyph-name="l" horiz-adv-x="240" unicode="l"/>
<glyph d="M74 0v357q0 23 -2 65q-2 32 -2 46h74q0 -12 1 -38t1 -39h2q25 54 90 78q32 11 66 11q107 -2 148 -89q60 86 148 89q146 0 172 -126q6 -32 6 -70v-284h-78v280q-2 127 -114 128q-65 0 -100 -57q-21 -36 -21 -81v-270h-78v265q0 114 -51 136q-17 7 -39 7q-117 0 -140 -122 q-5 -27 -5 -58v-228h-78z" glyph-name="m" horiz-adv-x="852" unicode="m"/>
<glyph d="M74 0v357q0 23 -2 65q-2 32 -2 46h74q0 -12 1 -38t1 -39h2q25 54 90 78q32 11 66 11q136 0 169 -119q9 -33 9 -72v-289h-78v281q0 114 -87 126q-10 1 -20 1q-117 0 -140 -122q-5 -27 -5 -58v-228h-78z" glyph-name="n" unicode="n"/>
<glyph d="M47 234q0 124 89 193q68 53 161 53q123 0 194 -85q56 -67 56 -161q0 -124 -89 -193q-68 -53 -161 -53q-123 0 -194 85q-56 67 -56 161zM131 234q0 -93 66 -142q43 -32 100 -32q93 0 139 74q27 44 27 100q0 93 -66 142q-43 32 -100 32q-93 0 -139 -74q-27 -44 -27 -100z " glyph-name="o" horiz-adv-x="594" unicode="o"/>
<glyph d="M70 -228v696h78v-68h2q70 79 168 80q125 0 195 -89q51 -66 51 -157q0 -116 -81 -188q-65 -58 -153 -58q-97 0 -157 63q-14 16 -23 32h-2v-311h-78zM148 234q0 -93 66 -142q43 -32 100 -32q93 0 139 74q27 44 27 100q0 93 -66 142q-43 32 -100 32q-93 0 -139 -74 q-27 -44 -27 -100z" glyph-name="p" horiz-adv-x="611" unicode="p"/>
<glyph d="M541 468v-696h-78v296h-2q-70 -79 -168 -80q-125 0 -195 89q-51 66 -51 157q0 116 81 188q65 58 153 58q97 0 157 -63q14 -16 23 -32h2v83h78zM463 234q0 93 -66 142q-43 32 -100 32q-93 0 -139 -74q-27 -44 -27 -100q0 -93 66 -142q43 -32 100 -32q93 0 139 74 q27 44 27 100z" glyph-name="q" horiz-adv-x="611" unicode="q"/>
<glyph d="M74 0v357q0 23 -2 65q-2 32 -2 46h74q0 -12 1 -38t1 -39h2q25 54 90 78q32 11 66 11q19 0 32 -5l-5 -79q-20 6 -42 6q-123 0 -136 -142q-1 -16 -1 -32v-228h-78z" glyph-name="r" horiz-adv-x="352" unicode="r"/>
<glyph d="M22 75l62 48q54 -61 120 -63q67 0 93 38q10 16 10 34q0 45 -62 64q-14 5 -38 10q-94 21 -126 46q-39 32 -39 90q0 80 81 118q43 20 94 20q113 -1 159 -85l-65 -43q-35 55 -99 56q-57 0 -82 -33q-10 -15 -10 -32q0 -43 102 -65q8 -1 16 -3q111 -21 140 -80q13 -26 13 -60 q0 -98 -99 -133q-40 -14 -88 -14q-106 0 -163 63q-10 12 -19 24z" glyph-name="s" horiz-adv-x="426" unicode="s"/>
<glyph d="M330 468v-66h-138v-234q0 -67 16 -87q17 -21 54 -21q39 0 69 16l3 -71q-39 -17 -91 -17q-95 0 -118 66q-11 32 -11 91v257h-102v66h102v133h78v-133h138z" glyph-name="t" horiz-adv-x="352" unicode="t"/>
<glyph d="M482 468v-357q0 -23 2 -64q2 -33 2 -47h-74q0 12 -1 38t-1 39h-2q-25 -54 -90 -78q-32 -11 -66 -11q-136 0 -169 119q-9 33 -9 72v289h78v-281q0 -114 87 -126q10 -1 20 -1q117 0 140 122q5 27 5 58v228h78z" glyph-name="u" unicode="u"/>
<glyph d="M472 468l-185 -468h-86l-191 468h91l146 -367h2l139 367h84z" glyph-name="v" horiz-adv-x="482" unicode="v"/>
<glyph d="M727 468l-151 -468h-77l-133 360h-2l-118 -360h-80l-152 468h86l107 -360h2l121 360h82l123 -360h2l106 360h84z" glyph-name="w" horiz-adv-x="741" unicode="w"/>
<glyph d="M3 0l192 252l-168 216h102l124 -168l117 168h95l-161 -216l193 -252h-103l-148 202l-146 -202h-97z" glyph-name="x" horiz-adv-x="500" unicode="x"/>
<glyph d="M472 468l-226 -575q-32 -83 -70 -109q-34 -24 -86 -24q-45 0 -70 12l10 68q22 -8 55 -8q51 0 75 49q6 12 12 28l32 88l-194 471h91l145 -367h2l139 367h85z" glyph-name="y" horiz-adv-x="482" unicode="y"/>
<glyph d="M30 0v61l275 341h-263v66h365v-60l-275 -342h282v-66h-384z" glyph-name="z" horiz-adv-x="444" unicode="z"/>
<glyph d="M294 732v-60h-54q-49 -2 -49 -79v-176q0 -85 -66 -120q-11 -6 -20 -8v-2q37 -5 63 -42q23 -35 23 -87v-175q2 -78 49 -79h54v-60h-70q-52 0 -83 47q-22 34 -22 78v175q0 71 -47 102q-19 12 -39 12v60q42 0 69 45q17 30 17 68v176q0 75 55 110q25 15 50 15h70z" glyph-name="braceleft" horiz-adv-x="333" unicode="{"/>
<glyph d="M78 750h66v-1000h-66v1000z" glyph-name="bar" horiz-adv-x="222" unicode="|"/>
<glyph d="M39 672v60h70q48 0 80 -44q25 -34 25 -81v-176q0 -68 46 -100q20 -13 40 -13v-60q-43 0 -69 -45q-17 -30 -17 -69v-175q0 -76 -55 -110q-24 -15 -50 -15h-70v60h54q49 1 49 79v175q0 91 63 122q13 5 23 7v2q-41 11 -66 52q-20 33 -20 76v176q-2 78 -49 79h-54z" glyph-name="braceright" horiz-adv-x="333" unicode="}"/>
<glyph d="M530 372l33 -48q-41 -55 -68 -72q-27 -16 -58 -16q-37 0 -102 30q-65 29 -72 31q-23 7 -43 7q-52 -1 -84 -70l-33 48q41 57 70 74q26 14 55 14q37 0 102 -30q65 -29 72 -31q23 -7 43 -7q51 1 85 70z" glyph-name="asciitilde" horiz-adv-x="666" unicode="~"/>
<glyph glyph-name="uni00A0" horiz-adv-x="278" unicode=" "/>
<glyph d="M97 -222v510h84v-510h-84zM139 372q-36 0 -53 32q-7 14 -7 28q0 36 33 53q14 7 27 7q34 0 52 -31q8 -14 8 -29q0 -36 -32 -53q-14 -7 -28 -7z" glyph-name="exclamdown" horiz-adv-x="278" unicode="¡"/>
<glyph d="M277 61v345q-88 -17 -116 -104q-10 -32 -10 -68q0 -93 65 -144q27 -21 61 -29zM277 -78v66q-118 15 -175 111q-35 59 -35 135q0 120 82 190q54 46 128 53v69h48v-66q101 -6 164 -74l-62 -55q-43 51 -102 57v-348q64 5 103 58l58 -55q-59 -68 -161 -75v-66h-48z" glyph-name="cent" unicode="¢"/>
<glyph d="M57 0v78h108v252h-96v66h96v80q0 184 130 230q38 14 84 14q99 -1 161 -62l-55 -59q-51 49 -108 49q-107 0 -124 -116q-4 -26 -4 -58v-78h162v-66h-162v-252h246v-78h-438z" glyph-name="sterling" unicode="£"/>
<glyph d="M106 354q0 -79 61 -133q49 -45 111 -45q78 0 131 66q41 51 41 112q0 84 -64 138q-48 40 -108 40q-80 0 -132 -65q-40 -50 -40 -113zM28 148l54 55q-54 69 -54 151q1 87 54 152l-54 54l44 44l54 -53q69 53 152 53q84 -1 152 -53l54 53l44 -44l-54 -54q54 -65 54 -152 q-1 -83 -54 -151l54 -55l-44 -44l-54 55q-72 -55 -152 -55q-81 1 -152 55l-54 -55z" glyph-name="currency" unicode="¤"/>
<glyph d="M236 0v174h-159v60h159v71l-9 16h-150v60h114l-191 327h100l178 -327l178 327h100l-191 -327h114v-60h-150l-9 -16v-71h159v-60h-159v-174h-84z" glyph-name="yen" unicode="¥"/>
<glyph d="M78 675h66v-350h-66v350zM78 175h66v-350h-66v350z" glyph-name="brokenbar" horiz-adv-x="222" unicode="¦"/>
<glyph d="M463 632l-75 -41q-20 54 -87 62q-8 1 -16 1q-65 0 -92 -42q-13 -19 -13 -44q1 -49 44 -72l98 -49q92 -44 124 -84q28 -37 28 -81q-1 -85 -86 -133q68 -46 69 -123q0 -100 -93 -146q-50 -24 -111 -24q-119 0 -176 83q-13 19 -21 40l77 36q27 -86 126 -87q74 0 99 50 q9 19 9 42q0 50 -67 84q-6 3 -33 16l-122 64q-66 35 -72 109q-1 7 -1 13q1 91 101 140q-76 44 -77 118q0 92 85 137q49 25 107 25q100 0 153 -60q14 -16 22 -34zM236 226l89 -43q42 18 59 58q6 15 6 29q0 54 -77 96q-9 4 -20 10l-58 29q-59 -24 -75 -49q-10 -17 -10 -37 q0 -48 61 -81q9 -5 25 -12z" glyph-name="section" unicode="§"/>
<glyph d="M21 684q34 0 49 -31q5 -12 5 -23q0 -34 -31 -49q-11 -5 -23 -5q-34 0 -49 31q-5 11 -5 23q0 34 31 49q11 5 23 5zM219 684q34 0 49 -31q5 -12 5 -23q0 -34 -31 -49q-11 -5 -23 -5q-34 0 -49 31q-5 11 -5 23q0 34 31 49q11 5 23 5z" glyph-name="dieresis" horiz-adv-x="240" unicode="¨"/>
<glyph d="M538 282h62q-22 -99 -103 -138q-39 -18 -82 -18q-117 0 -180 87q-42 60 -42 141q0 124 84 186q56 41 135 41q104 0 156 -73q24 -34 31 -78h-61q-12 60 -69 86q-26 11 -56 11q-95 0 -135 -82q-19 -40 -19 -91q0 -87 59 -138q41 -36 97 -36q71 0 106 57q13 21 17 45z M28 354q0 154 106 261q101 103 247 111h19q147 0 254 -99q109 -101 117 -251q1 -12 1 -22q0 -154 -106 -261q-101 -103 -246 -110q-11 -1 -20 -1q-148 0 -256 100q-108 102 -116 253v19zM94 354q0 -138 93 -231q89 -87 213 -87q130 0 219 94q87 92 87 224q0 138 -93 231 q-89 87 -213 87q-130 0 -219 -94q-87 -92 -87 -224z" glyph-name="copyright" horiz-adv-x="800" unicode="©"/>
<glyph d="M300 601v-128q0 -14 4 -43h-61q-3 24 -3 45h-2q-26 -51 -100 -51q-80 0 -100 56q-5 15 -5 32q0 91 156 95h28h23v14q0 23 -31 37q-19 8 -42 8q-53 0 -85 -27l-4 -4l-31 42q47 43 120 43q114 0 130 -84q3 -17 3 -35zM240 559h-48q-80 0 -91 -33q-2 -6 -2 -13q0 -28 41 -34 q8 -1 16 -1q56 0 77 40q7 12 7 24v17z" glyph-name="ordfeminine" horiz-adv-x="337" unicode="ª"/>
<glyph d="M256 418l-117 -178l117 -178l-55 -36l-143 214l143 214zM442 418l-117 -178l117 -178l-55 -36l-143 214l143 214z" glyph-name="guillemotleft" horiz-adv-x="500" unicode="«"/>
<glyph d="M72 348v66h522v-278h-66v212h-456z" glyph-name="logicalnot" horiz-adv-x="666" unicode="¬"/>
<glyph d="M44 204v72h245v-72h-245z" glyph-name="uni00AD" horiz-adv-x="333" unicode="­"/>
<glyph d="M258 137v435h164q151 -2 152 -124q-2 -106 -115 -119l125 -192h-71l-118 187h-71v-187h-66zM324 518v-140h68q75 0 98 22q18 18 18 51q0 64 -84 67h-13h-87zM28 354q0 154 106 261q101 103 247 111h19q147 0 254 -99q109 -101 117 -251q1 -12 1 -22q0 -154 -106 -261 q-101 -103 -246 -110q-11 -1 -20 -1q-148 0 -256 100q-108 102 -116 253v19zM94 354q0 -138 93 -231q89 -87 213 -87q130 0 219 94q87 92 87 224q0 138 -93 231q-89 87 -213 87q-130 0 -219 -94q-87 -92 -87 -224z" glyph-name="registered" horiz-adv-x="800" unicode="®"/>
<glyph d="M258 660v-60h-276v60h276z" glyph-name="macron" horiz-adv-x="240" unicode="¯"/>
<glyph d="M57 577q0 74 58 116q38 27 85 27q74 0 116 -58q27 -38 27 -85q0 -74 -58 -116q-38 -27 -85 -27q-74 0 -116 58q-27 38 -27 85zM111 577q0 -43 37 -71q24 -18 52 -18q50 0 77 46q12 22 12 43q0 43 -37 71q-24 18 -52 18q-50 0 -77 -46q-12 -22 -12 -43z" glyph-name="degree" horiz-adv-x="400" unicode="°"/>
<glyph d="M72 330v66h228v168h66v-168h228v-66h-228v-168h-66v168h-228zM72 42v66h522v-66h-522z" glyph-name="plusminus" horiz-adv-x="666" unicode="±"/>
<glyph d="M32 289v58l168 151q46 41 54 67q5 14 5 30q0 47 -42 65q-15 6 -30 6q-54 0 -76 -45q-5 -11 -7 -22l-63 5q14 93 103 112q20 4 41 4q91 0 125 -61q15 -28 15 -64q0 -63 -59 -119q-11 -10 -30 -27l-120 -104v-2h213v-54h-297z" glyph-name="twosuperior" horiz-adv-x="361" unicode="²"/>
<glyph d="M140 484v54h17q81 0 91 54q1 8 1 15q-7 56 -71 59q-60 -1 -81 -42l-55 25q36 70 136 71q83 0 119 -52q18 -26 18 -59q0 -52 -48 -83q-15 -9 -31 -14v-2q64 -9 86 -65q8 -20 8 -41q0 -75 -74 -106q-36 -15 -78 -15q-117 1 -147 92l54 23q18 -48 68 -59q13 -2 25 -2 q57 0 78 39q8 14 8 31q0 72 -96 77h-12h-16z" glyph-name="threesuperior" horiz-adv-x="361" unicode="³"/>
<glyph d="M51 564l104 144h110l-143 -144h-71z" glyph-name="acute" horiz-adv-x="240" unicode="´"/>
<glyph d="M482 468v-357q0 -23 2 -64q2 -33 2 -47h-74q0 12 -1 38t-1 39h-2q-25 -54 -90 -78q-32 -11 -66 -11q-57 1 -100 25v-241h-78v696h78v-281q0 -114 87 -126q10 -1 20 -1q117 0 140 122q5 27 5 58v228h78z" glyph-name="mu" unicode="µ"/>
<glyph d="M292 -126v442q-107 0 -168 72q-41 50 -41 114q0 128 103 180q53 26 125 26h243v-834h-72v768h-118v-768h-72z" glyph-name="paragraph" horiz-adv-x="600" unicode="¶"/>
<glyph d="M139 369q36 0 53 -32q7 -14 7 -28q0 -36 -33 -53q-14 -7 -27 -7q-34 0 -52 31q-8 14 -8 29q0 36 32 53q14 7 28 7z" glyph-name="periodcentered" horiz-adv-x="278" unicode="·"/>
<glyph d="M158 0l-45 -64q3 0 9 1q16 3 26 3q47 0 69 -33q11 -16 11 -36q0 -62 -69 -82q-23 -6 -48 -6q-54 0 -99 21l17 37q36 -16 72 -16q51 0 60 31q1 5 1 10q0 31 -40 37q-6 1 -12 1q-16 0 -39 -8l-20 19l62 85h45z" glyph-name="cedilla" horiz-adv-x="240" unicode="¸"/>
<glyph d="M173 289v352h-2l-81 -66l-33 46l124 93h58v-425h-66z" glyph-name="onesuperior" horiz-adv-x="361" unicode="¹"/>
<glyph d="M30 573q0 82 69 123q41 24 94 24q91 0 136 -62q27 -38 27 -85q0 -85 -70 -126q-41 -23 -93 -23q-92 0 -137 64q-26 37 -26 85zM96 573q0 -54 44 -81q24 -14 53 -14q60 0 86 50q11 22 11 45q0 51 -43 78q-24 15 -54 15q-59 0 -85 -48q-12 -22 -12 -45z" glyph-name="ordmasculine" horiz-adv-x="386" unicode="º"/>
<glyph d="M58 62l117 178l-117 178l55 36l143 -214l-143 -214zM244 62l117 178l-117 178l55 36l143 -214l-143 -214z" glyph-name="guillemotright" horiz-adv-x="500" unicode="»"/>
<glyph d="M739 425v-281h56v-54h-56v-90h-66v90h-195v63l183 272h78zM149 0l444 740l55 -32l-444 -740zM673 144v203h-2l-133 -203h135zM155 289v353h-2l-81 -67l-33 46l124 93h58v-425h-66z" glyph-name="onequarter" horiz-adv-x="834" unicode="¼"/>
<glyph d="M132 0l444 740l55 -32l-444 -740zM149 289v353h-2l-81 -67l-33 46l124 93h58v-425h-66zM504 0v58l168 151q46 41 54 67q5 14 5 30q0 47 -42 65q-15 6 -30 6q-54 0 -76 -45q-5 -11 -7 -22l-63 5q14 93 103 112q20 4 41 4q91 0 125 -61q15 -28 15 -64q0 -63 -59 -119 q-11 -10 -30 -27l-120 -104v-2h213v-54h-297z" glyph-name="onehalf" horiz-adv-x="834" unicode="½"/>
<glyph d="M753 425v-281h56v-54h-56v-90h-66v90h-195v63l183 272h78zM188 0l444 740l55 -32l-444 -740zM687 144v203h-2l-133 -201v-2h135zM135 484v54h16q84 0 92 58q1 6 1 11q-7 56 -71 59q-60 -1 -81 -42l-55 25q36 70 136 71q83 0 119 -52q18 -26 18 -59q0 -52 -48 -83 q-15 -9 -31 -14v-2q64 -9 86 -65q8 -20 8 -41q0 -75 -74 -106q-36 -15 -78 -15q-116 1 -148 92l55 23q18 -48 68 -59q13 -2 25 -2q57 0 78 39q8 14 8 31q0 72 -96 77h-12h-16z" glyph-name="threequarters" horiz-adv-x="834" unicode="¾"/>
<glyph d="M365 -59l90 -10q-18 -107 -112 -150q-46 -21 -101 -21q-109 0 -162 71q-33 45 -33 107q0 77 65 146q15 16 49 47q38 36 44 62q4 17 4 49v46h84v-63q0 -61 -25 -94q-11 -14 -44 -47q-50 -51 -61 -66q-26 -37 -26 -77q0 -71 55 -98q23 -11 51 -11q77 0 109 67q9 19 13 42z M251 372q-36 0 -53 32q-7 14 -7 28q0 36 33 53q14 7 27 7q34 0 52 -31q8 -14 8 -29q0 -36 -32 -53q-14 -7 -28 -7z" glyph-name="questiondown" horiz-adv-x="482" unicode="¿"/>
<glyph d="M6 0l312 708h79l301 -708h-98l-72 174h-354l-73 -174h-95zM496 252l-140 348h-2l-147 -348h289zM317 902l104 -144h-71l-143 144h110z" glyph-name="Agrave" horiz-adv-x="704" unicode="À"/>
<glyph d="M6 0l312 708h79l301 -708h-98l-72 174h-354l-73 -174h-95zM496 252l-140 348h-2l-147 -348h289zM283 758l104 144h110l-143 -144h-71z" glyph-name="Aacute" horiz-adv-x="704" unicode="Á"/>
<glyph d="M6 0l312 708h79l301 -708h-98l-72 174h-354l-73 -174h-95zM496 252l-140 348h-2l-147 -348h289zM195 758l111 144h91l112 -144h-81l-79 102l-78 -102h-76z" glyph-name="Acircumflex" horiz-adv-x="704" unicode="Â"/>
<glyph d="M6 0l312 708h79l301 -708h-98l-72 174h-354l-73 -174h-95zM496 252l-140 348h-2l-147 -348h289zM233 770h-48q10 68 58 94q20 10 42 10q29 0 84 -23q38 -15 41 -16q7 -1 13 -1q35 1 48 44h48q-14 -89 -74 -102q-10 -2 -19 -2q-29 0 -81 21q-48 19 -66 19q-32 0 -45 -41 q-1 -2 -1 -3z" glyph-name="Atilde" horiz-adv-x="704" unicode="Ã"/>
<glyph d="M6 0l312 708h79l301 -708h-98l-72 174h-354l-73 -174h-95zM496 252l-140 348h-2l-147 -348h289zM253 878q34 0 49 -31q5 -12 5 -23q0 -34 -31 -49q-11 -5 -23 -5q-34 0 -49 31q-5 11 -5 23q0 34 31 49q11 5 23 5zM451 878q34 0 49 -31q5 -12 5 -23q0 -34 -31 -49 q-11 -5 -23 -5q-34 0 -49 31q-5 11 -5 23q0 34 31 49q11 5 23 5z" glyph-name="Adieresis" horiz-adv-x="704" unicode="Ä"/>
<glyph d="M6 0l312 708h79l301 -708h-98l-72 174h-354l-73 -174h-95zM496 252l-140 348h-2l-147 -348h289zM253 829q0 53 44 83q25 16 55 16q57 0 85 -48q14 -24 14 -51q0 -55 -45 -84q-25 -15 -54 -15q-57 0 -85 48q-14 24 -14 51zM295 829q0 -36 33 -52q12 -5 24 -5q34 0 50 30 q7 13 7 27q0 34 -32 51q-13 6 -25 6q-33 0 -50 -31q-7 -13 -7 -26z" glyph-name="Aring" horiz-adv-x="704" unicode="Å"/>
<glyph d="M-10 0l460 708h435v-78h-294v-222h276v-78h-276v-252h306v-78h-390v192h-293l-123 -192h-101zM507 270v360h-12l-231 -360h243z" glyph-name="AE" horiz-adv-x="944" unicode="Æ"/>
<glyph d="M657 615l-73 -53q-57 77 -157 85q-11 1 -20 1q-121 0 -200 -96q-70 -85 -70 -198q0 -134 85 -219q76 -75 185 -75q128 1 205 99l63 -53q-93 -124 -268 -124l-32 -46q3 0 9 1q16 3 26 3q47 0 69 -33q11 -16 11 -36q0 -62 -69 -82q-23 -6 -48 -6q-54 0 -99 21l17 37 q36 -16 72 -16q51 0 60 31q1 5 1 10q0 31 -40 37q-6 1 -12 1q-16 0 -39 -8l-20 19l51 70q-143 15 -233 125q-84 102 -84 244q0 158 101 264q104 108 259 108t240 -99q6 -6 10 -12z" glyph-name="Ccedilla" horiz-adv-x="704" unicode="Ç"/>
<glyph d="M88 0v708h445v-78h-361v-222h337v-78h-337v-252h379v-78h-463zM262 902l104 -144h-71l-143 144h110z" glyph-name="Egrave" horiz-adv-x="593" unicode="È"/>
<glyph d="M88 0v708h445v-78h-361v-222h337v-78h-337v-252h379v-78h-463zM228 758l104 144h110l-143 -144h-71z" glyph-name="Eacute" horiz-adv-x="593" unicode="É"/>
<glyph d="M88 0v708h445v-78h-361v-222h337v-78h-337v-252h379v-78h-463zM140 758l111 144h91l112 -144h-81l-79 102l-78 -102h-76z" glyph-name="Ecircumflex" horiz-adv-x="593" unicode="Ê"/>
<glyph d="M88 0v708h445v-78h-361v-222h337v-78h-337v-252h379v-78h-463zM198 878q34 0 49 -31q5 -12 5 -23q0 -34 -31 -49q-11 -5 -23 -5q-34 0 -49 31q-5 11 -5 23q0 34 31 49q11 5 23 5zM396 878q34 0 49 -31q5 -12 5 -23q0 -34 -31 -49q-11 -5 -23 -5q-34 0 -49 31q-5 11 -5 23 q0 34 31 49q11 5 23 5z" glyph-name="Edieresis" horiz-adv-x="593" unicode="Ë"/>
<glyph d="M88 0v708h84v-708h-84zM95 902l104 -144h-71l-143 144h110z" glyph-name="Igrave" horiz-adv-x="260" unicode="Ì"/>
<glyph d="M88 0v708h84v-708h-84zM61 758l104 144h110l-143 -144h-71z" glyph-name="Iacute" horiz-adv-x="260" unicode="Í"/>
<glyph d="M88 0v708h84v-708h-84zM-27 758l111 144h91l112 -144h-81l-79 102l-78 -102h-76z" glyph-name="Icircumflex" horiz-adv-x="260" unicode="Î"/>
<glyph d="M88 0v708h84v-708h-84zM31 878q34 0 49 -31q5 -12 5 -23q0 -34 -31 -49q-11 -5 -23 -5q-34 0 -49 31q-5 11 -5 23q0 34 31 49q11 5 23 5zM229 878q34 0 49 -31q5 -12 5 -23q0 -34 -31 -49q-11 -5 -23 -5q-34 0 -49 31q-5 11 -5 23q0 34 31 49q11 5 23 5z" glyph-name="Idieresis" horiz-adv-x="260" unicode="Ï"/>
<glyph d="M75 402v306h272q117 0 212 -69q134 -99 135 -285q0 -195 -146 -293q-92 -61 -201 -61h-272v336h-72v66h72zM159 630v-228h252v-66h-252v-258h160q177 0 247 118q38 65 38 158q0 190 -147 251q-60 25 -138 25h-160z" glyph-name="Eth" horiz-adv-x="741" unicode="Ð"/>
<glyph d="M88 0v708h106l410 -588h2v588h84v-708h-106l-410 588h-2v-588h-84zM270 770h-48q10 68 58 94q20 10 42 10q29 0 84 -23q38 -15 41 -16q7 -1 13 -1q35 1 48 44h48q-14 -89 -74 -102q-10 -2 -19 -2q-29 0 -81 21q-48 19 -66 19q-32 0 -45 -41q-1 -2 -1 -3z" glyph-name="Ntilde" horiz-adv-x="778" unicode="Ñ"/>
<glyph d="M417 -18q-164 0 -269 109q-101 106 -101 263q0 163 107 268q105 104 263 104q164 0 269 -109q101 -106 101 -263q0 -163 -107 -268q-105 -104 -263 -104zM417 60q131 0 212 97q68 83 68 197q0 133 -87 218q-79 76 -193 76q-131 0 -212 -97q-68 -83 -68 -197 q0 -133 87 -218q79 -76 193 -76zM382 902l104 -144h-71l-143 144h110z" glyph-name="Ograve" horiz-adv-x="834" unicode="Ò"/>
<glyph d="M417 -18q-164 0 -269 109q-101 106 -101 263q0 163 107 268q105 104 263 104q164 0 269 -109q101 -106 101 -263q0 -163 -107 -268q-105 -104 -263 -104zM417 60q131 0 212 97q68 83 68 197q0 133 -87 218q-79 76 -193 76q-131 0 -212 -97q-68 -83 -68 -197 q0 -133 87 -218q79 -76 193 -76zM348 758l104 144h110l-143 -144h-71z" glyph-name="Oacute" horiz-adv-x="834" unicode="Ó"/>
<glyph d="M417 -18q-164 0 -269 109q-101 106 -101 263q0 163 107 268q105 104 263 104q164 0 269 -109q101 -106 101 -263q0 -163 -107 -268q-105 -104 -263 -104zM417 60q131 0 212 97q68 83 68 197q0 133 -87 218q-79 76 -193 76q-131 0 -212 -97q-68 -83 -68 -197 q0 -133 87 -218q79 -76 193 -76zM260 758l111 144h91l112 -144h-81l-79 102l-78 -102h-76z" glyph-name="Ocircumflex" horiz-adv-x="834" unicode="Ô"/>
<glyph d="M417 -18q-164 0 -269 109q-101 106 -101 263q0 163 107 268q105 104 263 104q164 0 269 -109q101 -106 101 -263q0 -163 -107 -268q-105 -104 -263 -104zM417 60q131 0 212 97q68 83 68 197q0 133 -87 218q-79 76 -193 76q-131 0 -212 -97q-68 -83 -68 -197 q0 -133 87 -218q79 -76 193 -76zM298 770h-48q10 68 58 94q20 10 42 10q29 0 84 -23q38 -15 41 -16q7 -1 13 -1q35 1 48 44h48q-14 -89 -74 -102q-10 -2 -19 -2q-29 0 -81 21q-48 19 -66 19q-32 0 -45 -41q-1 -2 -1 -3z" glyph-name="Otilde" horiz-adv-x="834" unicode="Õ"/>
<glyph d="M417 -18q-164 0 -269 109q-101 106 -101 263q0 163 107 268q105 104 263 104q164 0 269 -109q101 -106 101 -263q0 -163 -107 -268q-105 -104 -263 -104zM417 60q131 0 212 97q68 83 68 197q0 133 -87 218q-79 76 -193 76q-131 0 -212 -97q-68 -83 -68 -197 q0 -133 87 -218q79 -76 193 -76zM318 878q34 0 49 -31q5 -12 5 -23q0 -34 -31 -49q-11 -5 -23 -5q-34 0 -49 31q-5 11 -5 23q0 34 31 49q11 5 23 5zM516 878q34 0 49 -31q5 -12 5 -23q0 -34 -31 -49q-11 -5 -23 -5q-34 0 -49 31q-5 11 -5 23q0 34 31 49q11 5 23 5z" glyph-name="Odieresis" horiz-adv-x="834" unicode="Ö"/>
<glyph d="M141 544l192 -193l193 193l48 -47l-194 -194l194 -192l-48 -49l-193 194l-193 -194l-48 47l193 194l-193 192z" glyph-name="multiply" horiz-adv-x="666" unicode="×"/>
<glyph d="M630 550l-391 -426q74 -64 178 -64q131 0 212 97q68 83 68 197q-1 115 -67 196zM200 164l390 425q-74 59 -173 59q-131 0 -212 -97q-68 -83 -68 -197q1 -111 63 -190zM60 11l81 88q-94 104 -94 255q0 163 107 268q105 104 263 104q132 -1 230 -75l79 87l42 -38l-79 -86 q98 -105 98 -260q0 -163 -107 -268q-105 -104 -263 -104q-138 1 -236 79l-81 -88z" glyph-name="Oslash" horiz-adv-x="834" unicode="Ø"/>
<glyph d="M619 708v-438q0 -175 -110 -247q-64 -41 -157 -41q-185 0 -244 152q-23 60 -23 136v438h84v-426q0 -171 113 -211q32 -11 70 -11q148 0 177 151q6 33 6 71v426h84zM317 902l104 -144h-71l-143 144h110z" glyph-name="Ugrave" horiz-adv-x="704" unicode="Ù"/>
<glyph d="M619 708v-438q0 -175 -110 -247q-64 -41 -157 -41q-185 0 -244 152q-23 60 -23 136v438h84v-426q0 -171 113 -211q32 -11 70 -11q148 0 177 151q6 33 6 71v426h84zM283 758l104 144h110l-143 -144h-71z" glyph-name="Uacute" horiz-adv-x="704" unicode="Ú"/>
<glyph d="M619 708v-438q0 -175 -110 -247q-64 -41 -157 -41q-185 0 -244 152q-23 60 -23 136v438h84v-426q0 -171 113 -211q32 -11 70 -11q148 0 177 151q6 33 6 71v426h84zM195 758l111 144h91l112 -144h-81l-79 102l-78 -102h-76z" glyph-name="Ucircumflex" horiz-adv-x="704" unicode="Û"/>
<glyph d="M619 708v-438q0 -175 -110 -247q-64 -41 -157 -41q-185 0 -244 152q-23 60 -23 136v438h84v-426q0 -171 113 -211q32 -11 70 -11q148 0 177 151q6 33 6 71v426h84zM253 878q34 0 49 -31q5 -12 5 -23q0 -34 -31 -49q-11 -5 -23 -5q-34 0 -49 31q-5 11 -5 23q0 34 31 49 q11 5 23 5zM451 878q34 0 49 -31q5 -12 5 -23q0 -34 -31 -49q-11 -5 -23 -5q-34 0 -49 31q-5 11 -5 23q0 34 31 49q11 5 23 5z" glyph-name="Udieresis" horiz-adv-x="704" unicode="Ü"/>
<glyph d="M255 0v305l-264 403h107l199 -320l205 320h101l-264 -403v-305h-84zM228 758l104 144h110l-143 -144h-71z" glyph-name="Yacute" horiz-adv-x="594" unicode="Ý"/>
<glyph d="M88 0v708h84v-125h126q191 0 236 -119q12 -34 12 -75q0 -138 -131 -181q-47 -15 -101 -15h-142v-193h-84zM172 505v-234h142q108 0 135 72q7 21 7 45q0 88 -88 111q-25 6 -54 6h-142z" glyph-name="Thorn" horiz-adv-x="593" unicode="Þ"/>
<glyph d="M74 0v540q0 137 91 195q53 33 128 33q107 0 161 -70q35 -45 35 -108q0 -106 -89 -149q-11 -5 -21 -9v-2q102 -10 146 -103q24 -49 24 -109q0 -121 -90 -186q-63 -44 -149 -44q-37 0 -62 9v71q23 -8 52 -8q99 0 142 74q23 40 23 91q0 105 -82 148q-42 22 -95 22h-23v66h22 q77 0 109 58q15 28 15 62q0 73 -62 102q-27 13 -60 13q-124 0 -136 -137q-1 -13 -1 -26v-533h-78z" glyph-name="germandbls" horiz-adv-x="593" unicode="ß"/>
<glyph d="M117 357l-49 51q72 71 186 72q159 0 188 -124q8 -33 8 -74v-201q0 -39 7 -81h-75q-5 22 -5 70h-2q-54 -81 -154 -82q-102 0 -148 60q-26 34 -26 79q0 150 231 162q28 2 64 2h30v14q0 88 -88 101q-13 2 -28 2q-84 -1 -139 -51zM372 225h-78q-162 -1 -163 -90 q2 -80 103 -81q89 0 123 75q14 30 15 66v30zM225 724l104 -144h-71l-143 144h110z" glyph-name="agrave" horiz-adv-x="519" unicode="à"/>
<glyph d="M117 357l-49 51q72 71 186 72q159 0 188 -124q8 -33 8 -74v-201q0 -39 7 -81h-75q-5 22 -5 70h-2q-54 -81 -154 -82q-102 0 -148 60q-26 34 -26 79q0 150 231 162q28 2 64 2h30v14q0 88 -88 101q-13 2 -28 2q-84 -1 -139 -51zM372 225h-78q-162 -1 -163 -90 q2 -80 103 -81q89 0 123 75q14 30 15 66v30zM191 580l104 144h110l-143 -144h-71z" glyph-name="aacute" horiz-adv-x="519" unicode="á"/>
<glyph d="M117 357l-49 51q72 71 186 72q159 0 188 -124q8 -33 8 -74v-201q0 -39 7 -81h-75q-5 22 -5 70h-2q-54 -81 -154 -82q-102 0 -148 60q-26 34 -26 79q0 150 231 162q28 2 64 2h30v14q0 88 -88 101q-13 2 -28 2q-84 -1 -139 -51zM372 225h-78q-162 -1 -163 -90 q2 -80 103 -81q89 0 123 75q14 30 15 66v30zM103 580l111 144h91l112 -144h-81l-79 102l-78 -102h-76z" glyph-name="acircumflex" horiz-adv-x="519" unicode="â"/>
<glyph d="M117 357l-49 51q72 71 186 72q159 0 188 -124q8 -33 8 -74v-201q0 -39 7 -81h-75q-5 22 -5 70h-2q-54 -81 -154 -82q-102 0 -148 60q-26 34 -26 79q0 150 231 162q28 2 64 2h30v14q0 88 -88 101q-13 2 -28 2q-84 -1 -139 -51zM372 225h-78q-162 -1 -163 -90 q2 -80 103 -81q89 0 123 75q14 30 15 66v30zM141 592h-48q10 68 58 94q20 10 42 10q29 0 84 -23q38 -15 41 -16q7 -1 13 -1q35 1 48 44h48q-14 -89 -74 -102q-10 -2 -19 -2q-29 0 -81 21q-48 19 -66 19q-32 0 -45 -41q-1 -2 -1 -3z" glyph-name="atilde" horiz-adv-x="519" unicode="ã"/>
<glyph d="M117 357l-49 51q72 71 186 72q159 0 188 -124q8 -33 8 -74v-201q0 -39 7 -81h-75q-5 22 -5 70h-2q-54 -81 -154 -82q-102 0 -148 60q-26 34 -26 79q0 150 231 162q28 2 64 2h30v14q0 88 -88 101q-13 2 -28 2q-84 -1 -139 -51zM372 225h-78q-162 -1 -163 -90 q2 -80 103 -81q89 0 123 75q14 30 15 66v30zM161 700q34 0 49 -31q5 -12 5 -23q0 -34 -31 -49q-11 -5 -23 -5q-34 0 -49 31q-5 11 -5 23q0 34 31 49q11 5 23 5zM359 700q34 0 49 -31q5 -12 5 -23q0 -34 -31 -49q-11 -5 -23 -5q-34 0 -49 31q-5 11 -5 23q0 34 31 49 q11 5 23 5z" glyph-name="adieresis" horiz-adv-x="519" unicode="ä"/>
<glyph d="M117 357l-49 51q72 71 186 72q159 0 188 -124q8 -33 8 -74v-201q0 -39 7 -81h-75q-5 22 -5 70h-2q-54 -81 -154 -82q-102 0 -148 60q-26 34 -26 79q0 150 231 162q28 2 64 2h30v14q0 88 -88 101q-13 2 -28 2q-84 -1 -139 -51zM372 225h-78q-162 -1 -163 -90 q2 -80 103 -81q89 0 123 75q14 30 15 66v30zM161 661q0 53 44 83q25 16 55 16q57 0 85 -48q14 -24 14 -51q0 -55 -45 -84q-25 -15 -54 -15q-57 0 -85 48q-14 24 -14 51zM203 661q0 -36 33 -52q12 -5 24 -5q34 0 50 30q7 13 7 27q0 34 -32 51q-13 6 -25 6q-33 0 -50 -31 q-7 -13 -7 -26z" glyph-name="aring" horiz-adv-x="519" unicode="å"/>
<glyph d="M734 131l59 -46q-71 -92 -192 -97h-16q-98 0 -158 71q-12 15 -20 30q-52 -101 -187 -101q-93 0 -141 54q-32 36 -32 87q1 147 234 147h96v12q0 83 -64 110q-24 10 -53 10q-75 -1 -137 -46l-50 52q77 66 187 66q114 -1 162 -79q75 79 166 79q125 0 184 -95q38 -62 38 -150 v-25h-361q1 -79 57 -123q35 -27 79 -27q93 1 149 71zM377 210h-117q-102 0 -124 -52q-5 -12 -5 -26q0 -53 69 -68q19 -4 40 -4q81 0 118 62q19 34 19 75v13zM449 276h277q-3 87 -74 119q-30 13 -67 13q-69 0 -110 -59q-24 -35 -26 -73z" glyph-name="ae" horiz-adv-x="852" unicode="æ"/>
<glyph d="M469 406l-62 -55q-48 57 -118 57q-101 0 -140 -86q-18 -40 -18 -88q0 -91 62 -141q42 -33 96 -33q77 1 119 58l58 -55q-62 -69 -159 -73l-38 -54q3 0 9 1q16 3 26 3q47 0 69 -33q11 -16 11 -36q0 -62 -69 -82q-23 -6 -48 -6q-54 0 -99 21l17 37q36 -16 72 -16q51 0 60 31 q1 5 1 10q0 31 -40 37q-6 1 -12 1q-16 0 -39 -8l-20 19l55 76q-118 9 -177 102q-38 61 -38 141q0 122 84 192q66 54 158 54q112 -1 180 -74z" glyph-name="ccedilla" horiz-adv-x="482" unicode="ç"/>
<glyph d="M433 131l59 -46q-71 -92 -192 -97h-16q-125 0 -191 94q-46 65 -46 152q0 123 86 193q65 53 154 53q125 0 184 -95q38 -62 38 -150v-25h-378q6 -78 66 -122q39 -28 87 -28q93 1 149 71zM131 276h294q-3 87 -74 119q-30 13 -67 13q-93 0 -134 -72q-15 -27 -19 -60zM243 724 l104 -144h-71l-143 144h110z" glyph-name="egrave" unicode="è"/>
<glyph d="M433 131l59 -46q-71 -92 -192 -97h-16q-125 0 -191 94q-46 65 -46 152q0 123 86 193q65 53 154 53q125 0 184 -95q38 -62 38 -150v-25h-378q6 -78 66 -122q39 -28 87 -28q93 1 149 71zM131 276h294q-3 87 -74 119q-30 13 -67 13q-93 0 -134 -72q-15 -27 -19 -60zM209 580 l104 144h110l-143 -144h-71z" glyph-name="eacute" unicode="é"/>
<glyph d="M433 131l59 -46q-71 -92 -192 -97h-16q-125 0 -191 94q-46 65 -46 152q0 123 86 193q65 53 154 53q125 0 184 -95q38 -62 38 -150v-25h-378q6 -78 66 -122q39 -28 87 -28q93 1 149 71zM131 276h294q-3 87 -74 119q-30 13 -67 13q-93 0 -134 -72q-15 -27 -19 -60zM121 580 l111 144h91l112 -144h-81l-79 102l-78 -102h-76z" glyph-name="ecircumflex" unicode="ê"/>
<glyph d="M433 131l59 -46q-71 -92 -192 -97h-16q-125 0 -191 94q-46 65 -46 152q0 123 86 193q65 53 154 53q125 0 184 -95q38 -62 38 -150v-25h-378q6 -78 66 -122q39 -28 87 -28q93 1 149 71zM131 276h294q-3 87 -74 119q-30 13 -67 13q-93 0 -134 -72q-15 -27 -19 -60zM179 700 q34 0 49 -31q5 -12 5 -23q0 -34 -31 -49q-11 -5 -23 -5q-34 0 -49 31q-5 11 -5 23q0 34 31 49q11 5 23 5zM377 700q34 0 49 -31q5 -12 5 -23q0 -34 -31 -49q-11 -5 -23 -5q-34 0 -49 31q-5 11 -5 23q0 34 31 49q11 5 23 5z" glyph-name="edieresis" unicode="ë"/>
<glyph d="M81 0v468h78v-468h-78zM85 724l104 -144h-71l-143 144h110z" glyph-name="igrave" horiz-adv-x="240" unicode="ì"/>
<glyph d="M81 0v468h78v-468h-78zM51 580l104 144h110l-143 -144h-71z" glyph-name="iacute" horiz-adv-x="240" unicode="í"/>
<glyph d="M81 0v468h78v-468h-78zM-37 580l111 144h91l112 -144h-81l-79 102l-78 -102h-76z" glyph-name="icircumflex" horiz-adv-x="240" unicode="î"/>
<glyph d="M81 0v468h78v-468h-78zM21 700q34 0 49 -31q5 -12 5 -23q0 -34 -31 -49q-11 -5 -23 -5q-34 0 -49 31q-5 11 -5 23q0 34 31 49q11 5 23 5zM219 700q34 0 49 -31q5 -12 5 -23q0 -34 -31 -49q-11 -5 -23 -5q-34 0 -49 31q-5 11 -5 23q0 34 31 49q11 5 23 5z" glyph-name="idieresis" horiz-adv-x="240" unicode="ï"/>
<glyph d="M128 610l106 53q-37 36 -88 76l69 40q56 -47 91 -80l107 54l46 -39l-111 -56q132 -124 174 -242q25 -72 25 -151q0 -168 -105 -238q-60 -39 -145 -39q-123 0 -194 85q-56 67 -56 161q0 124 89 193q68 53 161 53q81 -1 130 -49l1 2q-46 85 -151 190l-107 -54zM131 234 q0 -93 66 -142q43 -32 100 -32q93 0 139 74q27 44 27 100q0 93 -66 142q-43 32 -100 32q-93 0 -139 -74q-27 -44 -27 -100z" glyph-name="eth" horiz-adv-x="594" unicode="ð"/>
<glyph d="M74 0v357q0 23 -2 65q-2 32 -2 46h74q0 -12 1 -38t1 -39h2q25 54 90 78q32 11 66 11q136 0 169 -119q9 -33 9 -72v-289h-78v281q0 114 -87 126q-10 1 -20 1q-117 0 -140 -122q-5 -27 -5 -58v-228h-78zM159 592h-48q10 68 58 94q20 10 42 10q29 0 84 -23q38 -15 41 -16 q7 -1 13 -1q35 1 48 44h48q-14 -89 -74 -102q-10 -2 -19 -2q-29 0 -81 21q-48 19 -66 19q-32 0 -45 -41q-1 -2 -1 -3z" glyph-name="ntilde" unicode="ñ"/>
<glyph d="M47 234q0 124 89 193q68 53 161 53q123 0 194 -85q56 -67 56 -161q0 -124 -89 -193q-68 -53 -161 -53q-123 0 -194 85q-56 67 -56 161zM131 234q0 -93 66 -142q43 -32 100 -32q93 0 139 74q27 44 27 100q0 93 -66 142q-43 32 -100 32q-93 0 -139 -74q-27 -44 -27 -100z M262 724l104 -144h-71l-143 144h110z" glyph-name="ograve" horiz-adv-x="594" unicode="ò"/>
<glyph d="M47 234q0 124 89 193q68 53 161 53q123 0 194 -85q56 -67 56 -161q0 -124 -89 -193q-68 -53 -161 -53q-123 0 -194 85q-56 67 -56 161zM131 234q0 -93 66 -142q43 -32 100 -32q93 0 139 74q27 44 27 100q0 93 -66 142q-43 32 -100 32q-93 0 -139 -74q-27 -44 -27 -100z M228 580l104 144h110l-143 -144h-71z" glyph-name="oacute" horiz-adv-x="594" unicode="ó"/>
<glyph d="M47 234q0 124 89 193q68 53 161 53q123 0 194 -85q56 -67 56 -161q0 -124 -89 -193q-68 -53 -161 -53q-123 0 -194 85q-56 67 -56 161zM131 234q0 -93 66 -142q43 -32 100 -32q93 0 139 74q27 44 27 100q0 93 -66 142q-43 32 -100 32q-93 0 -139 -74q-27 -44 -27 -100z M140 580l111 144h91l112 -144h-81l-79 102l-78 -102h-76z" glyph-name="ocircumflex" horiz-adv-x="594" unicode="ô"/>
<glyph d="M47 234q0 124 89 193q68 53 161 53q123 0 194 -85q56 -67 56 -161q0 -124 -89 -193q-68 -53 -161 -53q-123 0 -194 85q-56 67 -56 161zM131 234q0 -93 66 -142q43 -32 100 -32q93 0 139 74q27 44 27 100q0 93 -66 142q-43 32 -100 32q-93 0 -139 -74q-27 -44 -27 -100z M178 592h-48q10 68 58 94q20 10 42 10q29 0 84 -23q38 -15 41 -16q7 -1 13 -1q35 1 48 44h48q-14 -89 -74 -102q-10 -2 -19 -2q-29 0 -81 21q-48 19 -66 19q-32 0 -45 -41q-1 -2 -1 -3z" glyph-name="otilde" horiz-adv-x="594" unicode="õ"/>
<glyph d="M47 234q0 124 89 193q68 53 161 53q123 0 194 -85q56 -67 56 -161q0 -124 -89 -193q-68 -53 -161 -53q-123 0 -194 85q-56 67 -56 161zM131 234q0 -93 66 -142q43 -32 100 -32q93 0 139 74q27 44 27 100q0 93 -66 142q-43 32 -100 32q-93 0 -139 -74q-27 -44 -27 -100z M198 700q34 0 49 -31q5 -12 5 -23q0 -34 -31 -49q-11 -5 -23 -5q-34 0 -49 31q-5 11 -5 23q0 34 31 49q11 5 23 5zM396 700q34 0 49 -31q5 -12 5 -23q0 -34 -31 -49q-11 -5 -23 -5q-34 0 -49 31q-5 11 -5 23q0 34 31 49q11 5 23 5z" glyph-name="odieresis" horiz-adv-x="594" unicode="ö"/>
<glyph d="M72 270v66h522v-66h-522zM276 468q0 36 33 51q12 6 24 6q34 0 51 -31q6 -13 6 -26q0 -36 -33 -51q-12 -6 -24 -6q-34 0 -51 31q-6 13 -6 26zM276 138q0 36 33 51q12 6 24 6q34 0 51 -31q6 -13 6 -26q0 -36 -33 -51q-12 -6 -24 -6q-34 0 -51 31q-6 13 -6 26z" glyph-name="divide" horiz-adv-x="666" unicode="÷"/>
<glyph d="M162 130l239 243q-44 35 -104 35q-93 0 -139 -74q-27 -44 -27 -100q1 -61 31 -104zM432 338l-239 -243q42 -35 104 -35q93 0 139 74q27 44 27 100q-1 61 -31 104zM37 2l68 70q-58 65 -58 162q0 124 89 193q68 53 161 53q92 -1 159 -51l67 69l34 -32l-67 -69 q57 -67 57 -163q0 -124 -89 -193q-68 -53 -161 -53q-94 1 -158 52l-68 -70z" glyph-name="oslash" horiz-adv-x="594" unicode="ø"/>
<glyph d="M482 468v-357q0 -23 2 -64q2 -33 2 -47h-74q0 12 -1 38t-1 39h-2q-25 -54 -90 -78q-32 -11 -66 -11q-136 0 -169 119q-9 33 -9 72v289h78v-281q0 -114 87 -126q10 -1 20 -1q117 0 140 122q5 27 5 58v228h78zM243 724l104 -144h-71l-143 144h110z" glyph-name="ugrave" unicode="ù"/>
<glyph d="M482 468v-357q0 -23 2 -64q2 -33 2 -47h-74q0 12 -1 38t-1 39h-2q-25 -54 -90 -78q-32 -11 -66 -11q-136 0 -169 119q-9 33 -9 72v289h78v-281q0 -114 87 -126q10 -1 20 -1q117 0 140 122q5 27 5 58v228h78zM209 580l104 144h110l-143 -144h-71z" glyph-name="uacute" unicode="ú"/>
<glyph d="M482 468v-357q0 -23 2 -64q2 -33 2 -47h-74q0 12 -1 38t-1 39h-2q-25 -54 -90 -78q-32 -11 -66 -11q-136 0 -169 119q-9 33 -9 72v289h78v-281q0 -114 87 -126q10 -1 20 -1q117 0 140 122q5 27 5 58v228h78zM121 580l111 144h91l112 -144h-81l-79 102l-78 -102h-76z" glyph-name="ucircumflex" unicode="û"/>
<glyph d="M482 468v-357q0 -23 2 -64q2 -33 2 -47h-74q0 12 -1 38t-1 39h-2q-25 -54 -90 -78q-32 -11 -66 -11q-136 0 -169 119q-9 33 -9 72v289h78v-281q0 -114 87 -126q10 -1 20 -1q117 0 140 122q5 27 5 58v228h78zM179 700q34 0 49 -31q5 -12 5 -23q0 -34 -31 -49 q-11 -5 -23 -5q-34 0 -49 31q-5 11 -5 23q0 34 31 49q11 5 23 5zM377 700q34 0 49 -31q5 -12 5 -23q0 -34 -31 -49q-11 -5 -23 -5q-34 0 -49 31q-5 11 -5 23q0 34 31 49q11 5 23 5z" glyph-name="udieresis" unicode="ü"/>
<glyph d="M472 468l-226 -575q-32 -83 -70 -109q-34 -24 -86 -24q-45 0 -70 12l10 68q22 -8 55 -8q51 0 75 49q6 12 12 28l32 88l-194 471h91l145 -367h2l139 367h85zM172 580l104 144h110l-143 -144h-71z" glyph-name="yacute" horiz-adv-x="482" unicode="ý"/>
<glyph d="M70 -228v984h78v-356h2q70 79 168 80q125 0 195 -89q51 -66 51 -157q0 -116 -81 -188q-65 -58 -153 -58q-97 0 -157 63q-14 16 -23 32h-2v-311h-78zM148 234q0 -93 66 -142q43 -32 100 -32q93 0 139 74q27 44 27 100q0 93 -66 142q-43 32 -100 32q-93 0 -139 -74 q-27 -44 -27 -100z" glyph-name="thorn" horiz-adv-x="611" unicode="þ"/>
</font>
</defs>
</svg>
