<?xml version="1.0" encoding="UTF-8"?>
<!DOCTYPE svg  PUBLIC '-//W3C//DTD SVG 1.1//EN'  'http://www.w3.org/Graphics/SVG/1.1/DTD/svg11.dtd'>
<svg version="1.1" xmlns="http://www.w3.org/2000/svg">
<defs>
<font id="AvenirLTStd-Black" horiz-adv-x="592">
<font-face font-family="Avenir LT Std 65 Medium" font-weight="750" ascent="756" bbox="-73 -250 1002 953" cap-height="708" descent="-244" panose-1="2 11 8 3 2 2 3 2 2 4" underline-position="-100" underline-thickness="50" unicode-range="U+0020-00FE" units-per-em="1000" x-height="486"/>
<missing-glyph/>
<glyph glyph-name="space" horiz-adv-x="296" unicode=" "/>
<glyph d="M297 708v-474h-150v474h150zM130 86q0 52 44 78q22 14 48 14q52 0 78 -44q14 -22 14 -48q0 -52 -44 -78q-22 -14 -48 -14q-52 0 -78 44q-14 22 -14 48z" glyph-name="exclam" horiz-adv-x="444" unicode="!"/>
<glyph d="M313 426v282h126v-282h-126zM81 426v282h126v-282h-126z" glyph-name="quotedbl" horiz-adv-x="520" unicode='"'/>
<glyph d="M101 0l28 201h-84v90h96l17 126h-84v90h96l28 201h97l-28 -201h99l28 201h97l-28 -201h84v-90h-96l-17 -126h84v-90h-96l-28 -201h-97l28 201h-99l-28 -201h-97zM337 291l17 126h-99l-17 -126h99z" glyph-name="numbersign" unicode="#"/>
<glyph d="M328 790v-70q135 -1 214 -63l-96 -117q-45 38 -118 42v-159l96 -28q113 -33 138 -129q7 -25 7 -52q0 -131 -118 -192q-54 -27 -123 -34v-70h-66v70q-158 1 -247 81l106 119q46 -55 141 -62v169l-73 22q-124 39 -148 131q-7 26 -7 56q0 110 101 173q56 34 127 43v70h66z M262 439v140q-71 -17 -72 -68q0 -17 5 -29.5t16 -20t18 -11.5t20 -8zM328 278v-150q84 18 85 74q0 40 -44 60q-9 4 -22 9z" glyph-name="dollar" unicode="$"/>
<glyph d="M508 187q0 92 70 152q55 46 127 46q92 0 151 -70q46 -56 46 -128q0 -92 -69 -152q-56 -47 -128 -47q-91 0 -150 70q-47 56 -47 129zM800 187q0 53 -44 81q-24 15 -51 15q-53 0 -81 -45q-14 -24 -14 -51q0 -54 45 -83q23 -14 50 -14q53 0 81 46q14 24 14 51zM5 522 q0 92 70 152q55 46 127 46q92 0 151 -70q46 -56 46 -128q0 -92 -70 -152q-55 -46 -127 -46q-92 0 -151 70q-46 56 -46 128zM297 522q0 53 -44 81q-24 15 -51 15q-53 0 -81 -45q-14 -24 -14 -51q0 -53 44 -81q24 -15 51 -15q53 0 81 45q14 24 14 51zM210 11l405 729l84 -47 l-413 -725z" glyph-name="percent" horiz-adv-x="907" unicode="%"/>
<glyph d="M744 365l-149 -198l158 -167h-193l-59 67q-83 -85 -208 -85q-121 0 -193 69q-58 58 -58 143q0 93 78 154q33 26 72 39q-56 61 -69 102q-9 27 -9 57q0 116 109 160q50 20 112 20q116 0 172 -69q34 -44 34 -105q0 -101 -105 -169q-13 -8 -26 -15l91 -97l69 94h174zM333 606 q-46 0 -63 -38q-6 -13 -6 -28q0 -35 59 -89q79 47 80 91q0 46 -44 60q-13 4 -26 4zM410 166l-125 136q-52 -32 -67 -54q-14 -22 -14 -47q0 -51 48 -76q23 -11 47 -11q51 0 107 48z" glyph-name="ampersand" horiz-adv-x="759" unicode="&amp;"/>
<glyph d="M85 426v282h126v-282h-126z" glyph-name="quotesingle" horiz-adv-x="296" unicode="'"/>
<glyph d="M190 732l103 -60q-91 -143 -115 -251q-14 -63 -14 -133q0 -150 72 -288q23 -42 57 -96l-103 -60l-2 4q-144 214 -144 440q1 228 144 440z" glyph-name="parenleft" horiz-adv-x="314" unicode="("/>
<glyph d="M124 -156l-103 60q91 143 115 251q14 63 14 133q0 150 -72 288q-23 42 -57 96l103 60l2 -4q144 -214 144 -440q-1 -228 -144 -440z" glyph-name="parenright" horiz-adv-x="314" unicode=")"/>
<glyph d="M293 708v-138l131 43l30 -95l-131 -42l83 -114l-83 -61l-84 115l-81 -110l-81 61l84 109l-133 46l32 95l131 -47v138h102z" glyph-name="asterisk" horiz-adv-x="482" unicode="*"/>
<glyph d="M59 240v126h211v211h126v-211h211v-126h-211v-211h-126v211h-211z" glyph-name="plus" horiz-adv-x="666" unicode="+"/>
<glyph d="M17 -120l74 282h144l-90 -282h-128z" glyph-name="comma" horiz-adv-x="296" unicode=","/>
<glyph d="M271 309v-120h-246v120h246z" glyph-name="hyphen" horiz-adv-x="296" unicode="-"/>
<glyph d="M56 86q0 52 44 78q22 14 48 14q52 0 78 -44q14 -22 14 -48q0 -52 -44 -78q-22 -14 -48 -14q-52 0 -78 44q-14 22 -14 48z" glyph-name="period" horiz-adv-x="296" unicode="."/>
<glyph d="M-3 -18l299 779l114 -35l-300 -779z" glyph-name="slash" horiz-adv-x="407" unicode="/"/>
<glyph d="M33 354q0 220 105 312q63 54 158 54q186 0 242 -198q21 -75 21 -168q0 -220 -105 -312q-63 -54 -158 -54q-186 0 -242 198q-21 75 -21 168zM183 354q1 -227 113 -228q113 1 113 228q-1 227 -113 228q-113 -1 -113 -228z" glyph-name="zero" unicode="0"/>
<glyph d="M288 0v540l-142 -125l-85 98l231 195h140v-708h-144z" glyph-name="one" unicode="1"/>
<glyph d="M49 0v159l275 247q45 42 56 65q7 17 7 34q0 50 -48 69q-19 8 -39 8q-62 0 -84 -56q-6 -16 -8 -34l-150 11q9 144 130 195q53 22 120 22q131 0 191 -84q38 -53 38 -129q0 -100 -73 -171q-9 -10 -20 -19l-215 -185h314v-132h-494z" glyph-name="two" unicode="2"/>
<glyph d="M216 299v130h49q113 2 114 79q0 45 -45 65q-20 9 -43 9q-58 0 -81 -48q-5 -9 -7 -18l-165 34q37 148 205 167q23 3 47 3q131 0 196 -75q43 -49 43 -122q0 -94 -71 -136q-23 -13 -50 -19v-3q82 -11 117 -87q16 -36 16 -78q0 -125 -110 -181q-63 -31 -145 -31 q-166 0 -230 117q-16 30 -24 66l158 37q18 -81 105 -82q78 0 93 64q3 13 3 27q0 67 -75 79q-23 3 -65 3h-35z" glyph-name="three" unicode="3"/>
<glyph d="M333 0v142h-309v126l289 440h164v-440h91v-126h-91v-142h-144zM333 268v244h-2l-157 -244h159z" glyph-name="four" unicode="4"/>
<glyph d="M517 708v-132h-281l-3 -109q24 8 63 8q131 0 198 -87q47 -61 47 -147q0 -139 -104 -208q-70 -45 -166 -45q-163 0 -222 133q-10 23 -17 48l157 36q10 -61 63 -79q16 -6 34 -6q67 0 94 55q11 23 11 51q0 100 -124 115q-19 2 -39 2q-71 0 -147 -26l8 391h428z" glyph-name="five" unicode="5"/>
<glyph d="M453 708l-166 -253q28 7 49 7q112 0 176 -85q46 -62 46 -146q0 -121 -93 -190q-72 -53 -171 -53q-126 0 -202 81q-62 67 -62 162q0 93 55 187l30 48l155 242h183zM408 237q0 65 -53 96q-28 15 -61 15q-68 0 -99 -54q-15 -26 -15 -57q0 -65 53 -96q28 -15 61 -15 q68 0 99 54q15 26 15 57z" glyph-name="six" unicode="6"/>
<glyph d="M97 0l290 570h-350v138h518v-132l-283 -576h-175z" glyph-name="seven" unicode="7"/>
<glyph d="M59 525q0 117 105 168q57 27 132 27q132 0 196 -76q41 -49 41 -119q0 -97 -81 -141q-19 -10 -39 -16v-2q110 -30 129 -134q3 -19 3 -38q0 -117 -104 -173q-63 -33 -145 -33q-127 0 -197 72q-52 54 -52 134q0 119 104 162q14 6 28 10v2q-90 26 -114 109q-6 23 -6 48z M209 504q0 -48 44 -70q20 -9 43 -9q56 0 79 44q8 17 8 35q0 47 -43 68q-20 10 -44 10q-56 0 -79 -44q-8 -16 -8 -34zM197 215q0 -52 47 -77q24 -12 52 -12q61 0 88 47q11 20 11 42q0 53 -47 78q-24 12 -52 12q-61 0 -88 -47q-11 -20 -11 -43z" glyph-name="eight" unicode="8"/>
<glyph d="M139 0l166 253q-28 -7 -49 -7q-112 0 -176 85q-46 62 -46 146q0 121 93 190q72 53 171 53q126 0 202 -81q62 -67 62 -162q0 -93 -55 -187l-30 -48l-155 -242h-183zM184 471q0 -65 53 -96q28 -15 61 -15q68 0 99 54q15 26 15 57q0 65 -53 96q-28 15 -61 15q-68 0 -99 -54 q-15 -26 -15 -57z" glyph-name="nine" unicode="9"/>
<glyph d="M56 86q0 52 44 78q22 14 48 14q52 0 78 -44q14 -22 14 -48q0 -52 -44 -78q-22 -14 -48 -14q-52 0 -78 44q-14 22 -14 48zM56 406q0 52 44 78q22 14 48 14q52 0 78 -44q14 -22 14 -48q0 -52 -44 -78q-22 -14 -48 -14q-52 0 -78 44q-14 22 -14 48z" glyph-name="colon" horiz-adv-x="296" unicode=":"/>
<glyph d="M17 -120l74 282h144l-90 -282h-128zM56 406q0 52 44 78q22 14 48 14q52 0 78 -44q14 -22 14 -48q0 -52 -44 -78q-22 -14 -48 -14q-52 0 -78 44q-14 22 -14 48z" glyph-name="semicolon" horiz-adv-x="296" unicode=";"/>
<glyph d="M586 564v-136l-317 -124v-2l317 -124v-136l-506 198v126z" glyph-name="less" horiz-adv-x="666" unicode="&lt;"/>
<glyph d="M59 336v126h548v-126h-548zM59 144v126h548v-126h-548z" glyph-name="equal" horiz-adv-x="666" unicode="="/>
<glyph d="M80 42v136l317 124v2l-317 124v136l506 -198v-126z" glyph-name="greater" horiz-adv-x="666" unicode="&gt;"/>
<glyph d="M216 234v44q1 57 35 90q18 18 51 47q59 52 70 75q7 15 7 28q0 51 -45 66q-13 4 -27 4q-69 0 -92 -58q-6 -15 -7 -31l-154 10q14 142 130 193q53 24 120 24q119 0 182 -73q43 -51 43 -124t-49 -128q-27 -31 -75 -69q-39 -31 -39 -69v-29h-150zM199 86q0 52 44 78 q22 14 48 14q52 0 78 -44q14 -22 14 -48q0 -52 -44 -78q-22 -14 -48 -14q-52 0 -78 44q-14 22 -14 48z" glyph-name="question" horiz-adv-x="556" unicode="?"/>
<glyph d="M475 364q0 74 -52 89q-11 3 -22 3q-60 0 -87 -59q-13 -30 -13 -65q2 -88 69 -89q88 0 103 90q2 16 2 31zM605 534l-37 -197q-9 -43 -9 -66q2 -27 27 -28q46 0 70 56q16 38 16 93q0 148 -114 210q-63 34 -147 34q-138 0 -216 -97q-61 -77 -61 -186q0 -147 106 -225 q78 -56 188 -56q113 1 189 61h110q-85 -117 -233 -144q-37 -7 -74 -7q-159 0 -269 100q-115 103 -119 260v11q0 155 108 262q104 105 258 111h16q140 0 241 -83q112 -94 113 -246q0 -170 -130 -225q-45 -19 -92 -19q-65 0 -77 42q-2 6 -2 12h-2q-53 -53 -128 -54 q-82 0 -121 71q-23 42 -23 97q0 105 67 171q55 54 133 54q80 -1 108 -57h2l8 45h94z" glyph-name="at" horiz-adv-x="800" unicode="@"/>
<glyph d="M-1 0l306 708h129l308 -708h-176l-61 150h-275l-59 -150h-172zM452 282l-87 220l-86 -220h173z" glyph-name="A" horiz-adv-x="741" unicode="A"/>
<glyph d="M72 0v708h264q213 0 250 -119q9 -28 9 -61q0 -98 -90 -143q-16 -8 -32 -13v-2q93 -12 134 -87q21 -39 21 -86q0 -129 -134 -176q-59 -21 -132 -21h-290zM228 576v-151h113q72 0 92 47q6 14 6 30q0 68 -91 74h-14h-106zM228 293v-161h140q73 0 96 46q8 17 8 37 q-1 78 -126 78h-118z" glyph-name="B" horiz-adv-x="648" unicode="B"/>
<glyph d="M655 622l-120 -98q-50 58 -134 58q-100 0 -160 -80q-45 -63 -45 -148q0 -114 75 -180q54 -48 125 -48q95 1 146 76l130 -97q-69 -99 -201 -119q-28 -4 -55 -4q-176 0 -283 110q-99 103 -99 262q0 178 120 282q105 90 262 90q122 0 204 -68q20 -17 35 -36z" glyph-name="C" horiz-adv-x="685" unicode="C"/>
<glyph d="M72 0v708h234q243 0 350 -134q69 -87 69 -222q0 -175 -135 -273q-109 -79 -263 -79h-255zM228 564v-420h81q252 4 254 216q0 126 -111 177q-57 27 -132 27h-92z" glyph-name="D" horiz-adv-x="759" unicode="D"/>
<glyph d="M78 0v708h481v-144h-325v-132h307v-144h-307v-144h343v-144h-499z" glyph-name="E" horiz-adv-x="630" unicode="E"/>
<glyph d="M78 0v708h475v-144h-319v-144h295v-144h-295v-276h-156z" glyph-name="F" horiz-adv-x="593" unicode="F"/>
<glyph d="M713 420v-370q-131 -68 -297 -68q-176 0 -283 110q-99 103 -99 262q0 178 120 282q105 90 262 90q184 -1 282 -91l-110 -120q-65 67 -172 67q-117 0 -179 -87q-41 -60 -41 -141q0 -118 81 -182q58 -46 139 -46q84 0 147 35v115h-127v144h277z" glyph-name="G" horiz-adv-x="778" unicode="G"/>
<glyph d="M72 0v708h156v-264h303v264h156v-708h-156v306h-303v-306h-156z" glyph-name="H" horiz-adv-x="759" unicode="H"/>
<glyph d="M70 0v708h156v-708h-156z" glyph-name="I" horiz-adv-x="296" unicode="I"/>
<glyph d="M438 708v-471q0 -167 -89 -223q-53 -32 -137 -32q-154 0 -204 120q-8 22 -13 45l143 35q4 -37 41 -55q14 -7 29 -7q69 0 73 103q1 13 1 31v454h156z" glyph-name="J" horiz-adv-x="500" unicode="J"/>
<glyph d="M78 0v708h156v-294l275 294h204l-315 -329l342 -379h-218l-288 336v-336h-156z" glyph-name="K" horiz-adv-x="722" unicode="K"/>
<glyph d="M78 0v708h156v-564h289v-144h-445z" glyph-name="L" horiz-adv-x="537" unicode="L"/>
<glyph d="M72 0v708h236l163 -462h2l164 462h235v-708h-156v543h-2l-186 -543h-119l-179 543h-2v-543h-156z" glyph-name="M" horiz-adv-x="944" unicode="M"/>
<glyph d="M72 0v708h212l301 -492h2v492h156v-708h-204l-309 504h-2v-504h-156z" glyph-name="N" horiz-adv-x="815" unicode="N"/>
<glyph d="M34 354q0 178 120 282q105 90 262 90q176 0 283 -110q99 -103 99 -262q0 -178 -120 -282q-105 -90 -262 -90q-176 0 -283 110q-99 103 -99 262zM196 354q0 -118 81 -182q58 -46 139 -46q117 0 179 87q41 60 41 141q0 118 -81 182q-58 46 -139 46q-117 0 -179 -87 q-41 -60 -41 -141z" glyph-name="O" horiz-adv-x="832" unicode="O"/>
<glyph d="M72 0v708h263q268 -2 269 -215q-2 -216 -262 -217h-114v-276h-156zM228 576v-168h104q100 0 109 71q1 7 1 14q-1 83 -134 83h-80z" glyph-name="P" horiz-adv-x="630" unicode="P"/>
<glyph d="M847 120v-120h-429q-183 0 -289 110q-95 99 -95 253q0 159 111 263q109 100 267 100q159 0 267 -101q111 -104 111 -262q0 -127 -80 -201q-28 -25 -61 -40v-2h198zM196 363q0 -101 75 -166q61 -53 141 -53q98 0 162 74q54 63 54 145q0 101 -75 166q-61 53 -141 53 q-98 0 -162 -74q-54 -63 -54 -145z" glyph-name="Q" horiz-adv-x="852" unicode="Q"/>
<glyph d="M72 0v708h274q256 0 267 -199v-16q0 -114 -82 -167q-31 -20 -71 -27l180 -299h-187l-148 283h-77v-283h-156zM228 576v-161h92q84 0 111 26q20 20 20 53q-1 82 -121 82h-102z" glyph-name="R" horiz-adv-x="648" unicode="R"/>
<glyph d="M529 652l-107 -117q-32 41 -99 46q-8 1 -14 1q-61 0 -90 -33q-15 -18 -15 -40q0 -45 62 -70q19 -8 62 -20q99 -30 139 -61q63 -51 63 -143q0 -137 -117 -198q-67 -35 -156 -35q-142 1 -238 89l111 122q45 -59 121 -66q8 -1 15 -1q65 0 95 36q13 18 13 38q0 46 -65 74 q-19 8 -64 22q-102 33 -142 64q-61 51 -61 136q0 124 106 188q72 42 164 42q133 -1 217 -74z" glyph-name="S" horiz-adv-x="574" unicode="S"/>
<glyph d="M209 0v570h-202v138h560v-138h-202v-570h-156z" glyph-name="T" horiz-adv-x="574" unicode="T"/>
<glyph d="M669 708v-435q0 -155 -104 -233q-77 -58 -194 -58q-176 0 -253 121q-46 71 -46 170v435h156v-429q0 -83 61 -127q36 -26 82 -26q76 0 117 63q25 40 25 90v429h156z" glyph-name="U" horiz-adv-x="741" unicode="U"/>
<glyph d="M285 0l-283 708h178l175 -464h2l178 464h167l-292 -708h-125z" glyph-name="V" horiz-adv-x="704" unicode="V"/>
<glyph d="M208 0l-210 708h170l113 -454h2l148 454h145l147 -466h2l119 466h158l-207 -708h-139l-156 490h-2l-156 -490h-134z" glyph-name="W" horiz-adv-x="1000" unicode="W"/>
<glyph d="M0 0l248 370l-234 338h196l151 -248l145 248h189l-229 -335l256 -373h-196l-173 285l-168 -285h-185z" glyph-name="X" horiz-adv-x="722" unicode="X"/>
<glyph d="M246 0v302l-266 406h194l150 -265l159 265h185l-266 -406v-302h-156z" glyph-name="Y" horiz-adv-x="648" unicode="Y"/>
<glyph d="M35 0v144l359 426h-346v138h535v-138l-352 -426h364v-144h-560z" glyph-name="Z" horiz-adv-x="630" unicode="Z"/>
<glyph d="M276 732v-90h-90v-708h90v-90h-210v888h210z" glyph-name="bracketleft" horiz-adv-x="296" unicode="["/>
<glyph d="M410 -18l-113 -35l-300 779l114 35z" glyph-name="backslash" horiz-adv-x="407" unicode="\"/>
<glyph d="M20 -156v90h90v708h-90v90h210v-888h-210z" glyph-name="bracketright" horiz-adv-x="296" unicode="]"/>
<glyph d="M80 343l180 365h146l180 -365h-142l-111 238l-112 -238h-141z" glyph-name="asciicircum" horiz-adv-x="666" unicode="^"/>
<glyph d="M500 -125h-500v50h500v-50z" glyph-name="underscore" horiz-adv-x="500" unicode="_"/>
<glyph d="M131 708l101 -144h-132l-173 144h204z" glyph-name="grave" horiz-adv-x="260" unicode="`"/>
<glyph d="M358 0v61h-2q-47 -73 -154 -73q-93 0 -142 59q-31 39 -31 91q0 149 221 168q41 3 108 3q0 54 -49 77q-22 10 -47 10q-71 -1 -122 -58l-80 82q89 75 214 78q152 0 197 -98q25 -56 25 -153v-247h-138zM358 213h-37q-147 -1 -148 -70q0 -37 44 -49q14 -4 27 -4q70 0 100 44 q14 21 14 47v32z" glyph-name="a" horiz-adv-x="537" unicode="a"/>
<glyph d="M67 0v756h150v-322h2q47 64 154 64q111 0 175 -96q47 -71 47 -163q0 -130 -86 -200q-64 -51 -153 -51q-74 0 -130 53q-12 12 -19 23h-2v-64h-138zM205 243q0 -80 61 -110q26 -13 59 -13q80 0 109 65q11 27 11 58q0 80 -61 110q-26 13 -59 13q-80 0 -109 -65 q-11 -27 -11 -58z" glyph-name="b" horiz-adv-x="630" unicode="b"/>
<glyph d="M481 433l-99 -104q-27 36 -74 37q-80 0 -109 -65q-11 -27 -11 -58q0 -80 61 -110q26 -13 59 -13q43 1 74 37l99 -104q-64 -65 -173 -65q-127 0 -205 83q-65 70 -65 172q0 127 96 200q73 55 174 55q109 -1 173 -65z" glyph-name="c" horiz-adv-x="482" unicode="c"/>
<glyph d="M563 756v-756h-138v64h-2q-30 -45 -91 -66q-29 -10 -58 -10q-125 0 -192 92q-47 67 -47 159q0 118 71 194q62 65 151 65q108 -1 154 -64h2v322h150zM425 243q0 80 -61 110q-26 13 -59 13q-80 0 -109 -65q-11 -27 -11 -58q0 -80 61 -110q26 -13 59 -13q80 0 109 65 q11 27 11 58z" glyph-name="d" horiz-adv-x="630" unicode="d"/>
<glyph d="M408 161l105 -77q-60 -77 -164 -93q-21 -3 -41 -3q-127 0 -205 83q-65 70 -65 172q0 127 96 200q73 55 174 55q128 0 189 -100q39 -64 39 -155v-47h-348q14 -67 73 -87q19 -7 40 -7q64 1 107 59zM188 298h198q1 51 -42 78q-23 14 -50 14q-69 0 -96 -56q-8 -17 -10 -36z " glyph-name="e" horiz-adv-x="574" unicode="e"/>
<glyph d="M105 0v366h-99v120h99v86q0 121 61 164q47 32 129 32q52 0 88 -9l-7 -127q-29 10 -49 10q-52 0 -65 -33q-7 -18 -7 -46v-77h111v-120h-111v-366h-150z" glyph-name="f" horiz-adv-x="370" unicode="f"/>
<glyph d="M563 486v-445q0 -257 -237 -279q-22 -2 -44 -2q-155 1 -244 71l83 124q75 -63 158 -63q103 0 128 77q6 20 6 42v47h-2q-42 -59 -126 -64h-11q-125 0 -192 92q-47 67 -47 159q0 112 69 186q63 67 153 67q95 0 151 -58q9 -9 15 -18h2v64h138zM185 246q0 -60 50 -97 q32 -23 70 -23q63 0 99 53q21 31 21 67q0 60 -50 97q-32 23 -70 23q-63 0 -99 -53q-21 -31 -21 -67z" glyph-name="g" horiz-adv-x="630" unicode="g"/>
<glyph d="M53 756h150v-336h2q16 44 71 66q30 12 65 12q134 0 167 -111q13 -46 13 -119v-268h-150v238q0 80 -22 106q-20 22 -56 22q-79 0 -88 -90q-2 -15 -2 -34v-242h-150v756z" glyph-name="h" horiz-adv-x="574" unicode="h"/>
<glyph d="M55 0v486h150v-486h-150zM43 639q0 49 42 74q21 13 45 13q49 0 74 -42q13 -21 13 -45q0 -49 -42 -74q-21 -13 -45 -13q-49 0 -74 42q-13 21 -13 45z" glyph-name="i" horiz-adv-x="260" unicode="i"/>
<glyph d="M205 486v-522q0 -161 -107 -194q-32 -10 -73 -10q-45 0 -70 8l8 133q19 -9 39 -9q52 0 53 87v11v496h150zM43 639q0 49 42 74q21 13 45 13q49 0 74 -42q13 -21 13 -45q0 -49 -42 -74q-21 -13 -45 -13q-49 0 -74 42q-13 21 -13 45z" glyph-name="j" horiz-adv-x="260" unicode="j"/>
<glyph d="M53 0v756h150v-462l166 192h184l-193 -219l198 -267h-189l-164 246h-2v-246h-150z" glyph-name="k" horiz-adv-x="556" unicode="k"/>
<glyph d="M55 0v756h150v-756h-150z" glyph-name="l" horiz-adv-x="260" unicode="l"/>
<glyph d="M53 0v486h144v-66h2q28 54 94 72q23 6 48 6q108 0 148 -82q1 -3 2 -5q44 79 131 86q12 1 23 1q171 -2 172 -211v-287h-150v283q-3 81 -66 83q-90 -2 -91 -109v-257h-150v257q0 71 -24 94q-17 15 -43 15q-79 0 -88 -90q-2 -15 -2 -34v-242h-150z" glyph-name="m" horiz-adv-x="870" unicode="m"/>
<glyph d="M53 0v486h144v-66h2q28 54 94 72q23 6 48 6q134 0 167 -111q13 -46 13 -119v-268h-150v238q0 80 -22 106q-20 22 -56 22q-79 0 -88 -90q-2 -15 -2 -34v-242h-150z" glyph-name="n" horiz-adv-x="574" unicode="n"/>
<glyph d="M35 243q0 127 96 200q73 55 174 55q127 0 205 -83q65 -70 65 -172q0 -127 -96 -200q-73 -55 -174 -55q-127 0 -205 83q-65 70 -65 172zM185 243q0 -80 61 -110q26 -13 59 -13q80 0 109 65q11 27 11 58q0 80 -61 110q-26 13 -59 13q-80 0 -109 -65q-11 -27 -11 -58z" glyph-name="o" horiz-adv-x="610" unicode="o"/>
<glyph d="M67 -228v714h138v-64h2q30 45 91 66q29 10 58 10q125 0 192 -92q47 -67 47 -159q0 -118 -71 -194q-62 -65 -151 -65q-108 1 -154 64h-2v-280h-150zM205 243q0 -80 61 -110q26 -13 59 -13q80 0 109 65q11 27 11 58q0 80 -61 110q-26 13 -59 13q-80 0 -109 -65 q-11 -27 -11 -58z" glyph-name="p" horiz-adv-x="630" unicode="p"/>
<glyph d="M563 486v-714h-150v280h-2q-47 -64 -154 -64q-111 0 -175 96q-47 71 -47 163q0 130 86 200q64 51 153 51q74 0 130 -53q12 -12 19 -23h2v64h138zM425 243q0 80 -61 110q-26 13 -59 13q-80 0 -109 -65q-11 -27 -11 -58q0 -80 61 -110q26 -13 59 -13q80 0 109 65 q11 27 11 58z" glyph-name="q" horiz-adv-x="630" unicode="q"/>
<glyph d="M53 0v486h150v-78h2q51 89 140 90q33 0 50 -5v-137q-35 10 -64 10q-94 0 -117 -68q-11 -33 -11 -95v-203h-150z" glyph-name="r" horiz-adv-x="407" unicode="r"/>
<glyph d="M420 434l-92 -91q-34 41 -87 41q-42 0 -53 -27q-2 -7 -2 -13q0 -25 51 -38q10 -3 32 -8q92 -19 126 -48q44 -37 44 -102q0 -115 -129 -149q-44 -11 -95 -11q-126 1 -191 66l91 101q45 -53 106 -53q65 2 68 35q0 27 -51 41q-11 3 -36 8q-89 19 -123 47q-43 37 -43 101 q0 101 98 144q48 20 106 20q120 -1 180 -64z" glyph-name="s" horiz-adv-x="463" unicode="s"/>
<glyph d="M384 486v-120h-132v-162q0 -61 24 -78q17 -12 47 -12q45 1 61 14v-125q-42 -15 -105 -15q-141 0 -170 97q-7 23 -7 50v231h-96v120h96v144h150v-144h132z" glyph-name="t" horiz-adv-x="407" unicode="t"/>
<glyph d="M521 486v-486h-144v66h-2q-28 -54 -94 -72q-23 -6 -48 -6q-134 0 -167 111q-13 46 -13 119v268h150v-238q0 -80 22 -106q20 -22 56 -22q79 0 88 90q2 15 2 34v242h150z" glyph-name="u" horiz-adv-x="574" unicode="u"/>
<glyph d="M203 0l-201 486h162l123 -330h2l114 330h151l-192 -486h-159z" glyph-name="v" horiz-adv-x="556" unicode="v"/>
<glyph d="M173 0l-178 486h160l99 -305h2l83 305h164l90 -305h2l91 305h152l-173 -486h-148l-101 323h-2l-90 -323h-151z" glyph-name="w" horiz-adv-x="833" unicode="w"/>
<glyph d="M-8 0l192 260l-162 226h177l86 -132l83 132h167l-158 -226l187 -260h-177l-106 162l-114 -162h-175z" glyph-name="x" horiz-adv-x="556" unicode="x"/>
<glyph d="M553 486l-220 -565q-33 -85 -58 -113q-45 -48 -148 -48q-58 0 -112 18l20 123q35 -15 70 -15q46 0 64 17.5t36 63.5v1l11 28l-213 490h162l125 -321h2l107 321h154z" glyph-name="y" horiz-adv-x="556" unicode="y"/>
<glyph d="M34 0v150l252 216h-246v120h420v-144l-264 -222h270v-120h-432z" glyph-name="z" horiz-adv-x="500" unicode="z"/>
<glyph d="M356 -42v-114h-105q-90 0 -119 79q-10 29 -10 67v172q0 56 -83 67q-13 2 -25 2v114q69 0 96 34q12 16 12 35v173q0 125 100 143q14 2 29 2h105v-114h-49q-61 0 -65 -54v-10v-161q-1 -85 -69 -100q-12 -2 -31 -4v-2q62 -4 83 -36q16 -25 17 -67v-162q0 -52 41 -62 q11 -2 24 -2h49z" glyph-name="braceleft" horiz-adv-x="370" unicode="{"/>
<glyph d="M48 750h126v-1000h-126v1000z" glyph-name="bar" horiz-adv-x="222" unicode="|"/>
<glyph d="M14 618v114h108q85 0 114 -74q12 -31 12 -72v-172q0 -58 86 -68q11 -1 22 -1v-114q-76 0 -100 -39q-8 -14 -8 -30v-173q0 -125 -100 -143q-14 -2 -29 -2h-105v114h49q61 0 65 54v10v161q1 85 69 100q12 2 31 4v2q-62 4 -83 36q-16 25 -17 67v162q0 52 -41 62q-11 2 -24 2 h-49z" glyph-name="braceright" horiz-adv-x="370" unicode="}"/>
<glyph d="M528 400l36 -108q-46 -85 -125 -86q-40 0 -111 32q-72 31 -86 34q-9 2 -16 2q-37 0 -75 -51q-3 -3 -13 -17l-36 108q46 85 125 86q40 0 111 -32q72 -31 86 -34q9 -2 16 -2q37 0 75 51q3 3 13 17z" glyph-name="asciitilde" horiz-adv-x="666" unicode="~"/>
<glyph glyph-name="uni00A0" horiz-adv-x="296" unicode=" "/>
<glyph d="M147 -222v474h150v-474h-150zM314 400q0 -52 -44 -78q-22 -14 -48 -14q-52 0 -78 44q-14 22 -14 48q0 52 44 78q22 14 48 14q52 0 78 -44q14 -22 14 -48z" glyph-name="exclamdown" horiz-adv-x="444" unicode="¡"/>
<glyph d="M310 -81v69q-122 7 -188 101q-46 67 -46 154q0 137 102 207q56 39 132 48v66h60v-66q99 -1 172 -62l-96 -102q-37 38 -76 38v-258q40 1 83 43l91 -107q-59 -57 -163 -62h-11v-69h-60zM310 114v258q-70 -14 -86 -90q-4 -19 -4 -38q0 -95 79 -126q6 -2 11 -4z" glyph-name="cent" unicode="¢"/>
<glyph d="M48 0v114h96v198h-96v102h96v71q0 105 74 172q69 63 174 63q134 -1 209 -68l-100 -107q-44 41 -91 43q-96 0 -113 -91q-3 -17 -3 -34v-49h156v-102h-156v-198h253v-114h-499z" glyph-name="sterling" unicode="£"/>
<glyph d="M36 153l49 49q-49 69 -49 152q1 84 49 152l-49 49l60 59l49 -48q68 48 151 48q84 -1 151 -48l49 48l60 -59l-49 -49q49 -68 49 -152q-1 -85 -49 -152l49 -49l-60 -59l-49 48q-68 -48 -151 -48q-84 1 -151 48l-49 -48zM168 354q0 -70 54 -110q34 -24 74 -24q66 0 104 55 q24 36 24 79q0 70 -54 110q-34 24 -74 24q-66 0 -104 -55q-24 -36 -24 -79z" glyph-name="currency" unicode="¤"/>
<glyph d="M218 0v158h-169v96h169v48l-12 20h-157v96h100l-185 290h182l150 -264l150 264h182l-185 -290h100v-96h-157l-12 -20v-48h169v-96h-169v-158h-156z" glyph-name="yen" unicode="¥"/>
<glyph d="M48 675h126v-350h-126v350zM48 175h126v-350h-126v350z" glyph-name="brokenbar" horiz-adv-x="222" unicode="¦"/>
<glyph d="M517 617l-126 -72q-17 46 -68 58q-12 3 -24 3q-45 0 -60 -31q-5 -11 -5 -22q0 -36 67 -68q17 -7 53 -22q105 -42 143 -77q49 -44 49 -105q0 -66 -56 -112q-14 -11 -28 -18q53 -46 55 -119q0 -106 -111 -155q-62 -28 -135 -28q-174 1 -233 126l128 63q13 -51 76 -65 q17 -4 33 -4q60 0 76 33q4 9 4 19q0 34 -62 62q-15 7 -49 21q-101 40 -140 75q-50 47 -50 114q1 94 87 148q-62 43 -63 115q0 97 96 144q55 26 119 26q148 0 209 -84q9 -12 15 -25zM272 239l102 -47q33 21 34 61q-1 44 -65 72l-116 55q-34 -21 -35 -59q0 -42 53 -69 q7 -4 27 -13z" glyph-name="section" unicode="§"/>
<glyph d="M25 558q-48 0 -72 43q-11 21 -11 43q0 44 38 69q21 13 43 13q49 0 75 -39q12 -20 12 -43q0 -51 -42 -75q-20 -11 -43 -11zM233 558q-48 0 -72 43q-11 21 -11 43q0 44 38 69q21 13 43 13q49 0 75 -39q12 -20 12 -43q0 -51 -42 -75q-20 -11 -43 -11z" glyph-name="dieresis" horiz-adv-x="260" unicode="¨"/>
<glyph d="M494 300h94q-14 -101 -98 -140q-37 -17 -80 -17q-112 0 -166 89q-33 54 -33 125q0 127 85 181q47 29 112 29q106 0 155 -77q19 -31 25 -71h-94q-13 57 -78 58q-80 0 -94 -84q-3 -16 -3 -34q0 -83 51 -114q20 -12 44 -12q74 0 80 63v4zM28 354q0 148 102 255 q99 106 243 116q14 1 27 1q148 0 255 -102q106 -99 116 -243q1 -14 1 -27q0 -148 -102 -255q-99 -106 -243 -116q-14 -1 -27 -1q-148 0 -255 102q-106 99 -116 243q-1 14 -1 27zM130 354q0 -120 83 -203q79 -79 187 -79q114 0 194 86q76 83 76 196q0 120 -83 203 q-79 79 -187 79q-114 0 -194 -86q-76 -83 -76 -196z" glyph-name="copyright" horiz-adv-x="800" unicode="©"/>
<glyph d="M230 431v37h-2q-20 -43 -93 -43q-69 0 -99 44q-13 20 -13 45q0 101 185 105h22q0 29 -30 42q-13 5 -26 5q-43 -1 -79 -36l-52 49q55 47 139 47q110 0 134 -74q10 -30 10 -73v-148h-96zM236 540v19h-18q-92 -1 -93 -41q1 -27 43 -27t62 30q6 10 6 19z" glyph-name="ordfeminine" horiz-adv-x="349" unicode="ª"/>
<glyph d="M268 422l-116 -173l116 -173l-91 -61l-159 234l159 234zM510 422l-116 -173l116 -173l-91 -61l-159 234l159 234z" glyph-name="guillemotleft" horiz-adv-x="538" unicode="«"/>
<glyph d="M481 142v194h-422v126h548v-320h-126z" glyph-name="logicalnot" horiz-adv-x="666" unicode="¬"/>
<glyph d="M271 309v-120h-246v120h246z" glyph-name="uni00AD" horiz-adv-x="296" unicode="­"/>
<glyph d="M257 163v390h138q165 -2 166 -126q-1 -96 -91 -109l100 -155h-105l-89 150h-17v-150h-102zM358 475v-84h41q50 0 58 28q2 7 2 14q-2 42 -60 42h-41zM28 354q0 148 102 255q99 106 243 116q14 1 27 1q148 0 255 -102q106 -99 116 -243q1 -14 1 -27q0 -148 -102 -255 q-99 -106 -243 -116q-14 -1 -27 -1q-148 0 -255 102q-106 99 -116 243q-1 14 -1 27zM130 354q0 -120 83 -203q79 -79 187 -79q114 0 194 86q76 83 76 196q0 120 -83 203q-79 79 -187 79q-114 0 -194 -86q-76 -83 -76 -196z" glyph-name="registered" horiz-adv-x="800" unicode="®"/>
<glyph d="M300 687v-96h-340v96h340z" glyph-name="macron" horiz-adv-x="260" unicode="¯"/>
<glyph d="M200 460q50 0 76 43q12 21 12 45q0 50 -43 76q-21 12 -45 12q-50 0 -76 -43q-12 -21 -12 -45q0 -50 43 -76q21 -12 45 -12zM200 376q-82 0 -134 64q-38 48 -38 108q0 82 64 134q48 38 108 38q82 0 134 -64q38 -48 38 -108q0 -82 -64 -134q-48 -38 -108 -38z" glyph-name="degree" horiz-adv-x="400" unicode="°"/>
<glyph d="M59 323v126h211v128h126v-128h211v-126h-211v-128h-126v128h-211zM59 29v126h548v-126h-548z" glyph-name="plusminus" horiz-adv-x="666" unicode="±"/>
<glyph d="M24 289v89l186 158q38 32 42 48q1 4 1 7q-8 36 -59 39q-46 0 -62 -36q-3 -9 -4 -18l-102 6q8 107 114 132q28 6 59 6q104 0 144 -60q18 -27 18 -60q0 -62 -32 -93q-10 -9 -29 -24l-140 -108v-2h201v-84h-337z" glyph-name="twosuperior" horiz-adv-x="385" unicode="²"/>
<glyph d="M143 468v84h34q73 2 74 45q-7 30 -56 33q-49 0 -62 -39q-1 -3 -2 -5l-110 20q31 113 174 114q100 0 143 -53q21 -27 21 -61q0 -62 -56 -85q-13 -6 -27 -8v-2q62 -7 84 -61q8 -19 8 -39q0 -81 -86 -113q-41 -15 -90 -15q-147 1 -175 118l109 22q13 -49 66 -50q67 2 68 48 q0 41 -55 46q-14 1 -37 1h-25z" glyph-name="threesuperior" horiz-adv-x="385" unicode="³"/>
<glyph d="M30 564l101 144h204l-173 -144h-132z" glyph-name="acute" horiz-adv-x="260" unicode="´"/>
<glyph d="M521 486v-486h-144v66h-2q-28 -54 -94 -72q-23 -6 -48 -6q-17 0 -30 3v-219h-150v714h150v-238q0 -80 22 -106q20 -22 56 -22q79 0 88 90q2 15 2 34v242h150z" glyph-name="mu" horiz-adv-x="574" unicode="µ"/>
<glyph d="M236 -133v492q-165 0 -209 101q-14 32 -14 70q0 140 141 169q44 9 105 9h302v-841h-108v745h-109v-745h-108z" glyph-name="paragraph" horiz-adv-x="620" unicode="¶"/>
<glyph d="M56 283q0 52 44 78q22 14 48 14q52 0 78 -44q14 -22 14 -48q0 -52 -44 -78q-22 -14 -48 -14q-52 0 -78 44q-14 22 -14 48z" glyph-name="periodcentered" horiz-adv-x="296" unicode="·"/>
<glyph d="M168 0l-41 -60q104 0 122 -54q4 -13 4 -29q0 -63 -79 -88q-31 -9 -60 -9q-63 0 -125 30l25 47q46 -17 77 -17q65 1 66 32q0 26 -37 33q-7 1 -13 1q-17 0 -36 -8l-32 29l62 93h67z" glyph-name="cedilla" horiz-adv-x="260" unicode="¸"/>
<glyph d="M183 289v317l-89 -75l-58 66l159 117h96v-425h-108z" glyph-name="onesuperior" horiz-adv-x="385" unicode="¹"/>
<glyph d="M23 575q0 82 72 125q45 26 103 26q94 0 144 -61q32 -39 32 -90q0 -88 -79 -128q-43 -22 -97 -22q-100 0 -148 64q-27 37 -27 86zM125 575q1 -44 42 -60q15 -6 31 -6q50 0 68 39q6 13 6 27q0 43 -40 60q-16 7 -34 7q-50 0 -68 -40q-5 -13 -5 -27z" glyph-name="ordmasculine" horiz-adv-x="397" unicode="º"/>
<glyph d="M270 76l116 173l-116 173l91 61l159 -234l-159 -234zM28 76l116 173l-116 173l91 61l159 -234l-159 -234z" glyph-name="guillemotright" horiz-adv-x="538" unicode="»"/>
<glyph d="M716 0v85h-209v78l199 262h118v-256h57v-84h-57v-85h-108zM716 169v136h-2l-99 -136h101zM155 289v317l-89 -75l-58 66l159 117h96v-425h-108zM189 11l405 729l84 -47l-413 -725z" glyph-name="onequarter" horiz-adv-x="889" unicode="¼"/>
<glyph d="M155 289v317l-89 -75l-58 66l159 117h96v-425h-108zM544 0v89l186 158q38 32 42 48q1 4 1 7q-8 36 -59 39q-46 0 -62 -36q-3 -9 -4 -18l-102 6q8 107 114 132q28 6 59 6q104 0 144 -60q18 -27 18 -60q0 -62 -32 -93q-10 -9 -29 -24l-140 -108v-2h201v-84h-337zM189 11 l405 729l84 -47l-413 -725z" glyph-name="onehalf" horiz-adv-x="889" unicode="½"/>
<glyph d="M720 0v85h-209v78l199 262h118v-256h57v-84h-57v-85h-108zM720 169v136h-2l-99 -136h101zM130 468v84h34q73 2 74 45q-7 30 -56 33q-49 0 -62 -39q-1 -3 -2 -5l-109 20q29 113 173 114q100 0 143 -53q21 -27 21 -61q0 -62 -56 -85q-13 -6 -27 -8v-2q62 -7 84 -61 q8 -19 8 -39q0 -81 -86 -113q-41 -15 -90 -15q-147 1 -175 118l109 22q13 -49 66 -50q67 2 68 48q0 41 -55 46q-14 1 -37 1h-25zM213 11l405 729l84 -47l-413 -725z" glyph-name="threequarters" horiz-adv-x="889" unicode="¾"/>
<glyph d="M340 252v-44q-1 -57 -35 -90q-18 -18 -51 -47q-59 -52 -70 -75q-7 -15 -7 -28q0 -51 45 -66q13 -4 27 -4q69 0 92 58q6 15 7 31l154 -10q-14 -142 -130 -193q-53 -24 -120 -24q-119 0 -182 73q-43 51 -43 124t49 128q27 31 75 69q39 31 39 69v29h150zM357 400 q0 -52 -44 -78q-22 -14 -48 -14q-52 0 -78 44q-14 22 -14 48q0 52 44 78q22 14 48 14q52 0 78 -44q14 -22 14 -48z" glyph-name="questiondown" horiz-adv-x="556" unicode="¿"/>
<glyph d="M-1 0l306 708h129l308 -708h-176l-61 150h-275l-59 -150h-172zM452 282l-87 220l-86 -220h173zM372 903l101 -144h-132l-173 144h204z" glyph-name="Agrave" horiz-adv-x="741" unicode="À"/>
<glyph d="M-1 0l306 708h129l308 -708h-176l-61 150h-275l-59 -150h-172zM452 282l-87 220l-86 -220h173zM271 759l101 144h204l-173 -144h-132z" glyph-name="Aacute" horiz-adv-x="741" unicode="Á"/>
<glyph d="M-1 0l306 708h129l308 -708h-176l-61 150h-275l-59 -150h-172zM452 282l-87 220l-86 -220h173zM570 759h-138l-63 78l-62 -78h-135l119 144h163z" glyph-name="Acircumflex" horiz-adv-x="741" unicode="Â"/>
<glyph d="M-1 0l306 708h129l308 -708h-176l-61 150h-275l-59 -150h-172zM452 282l-87 220l-86 -220h173zM254 765h-79q14 86 69 121q27 17 58 17q37 0 87 -21q39 -15 56 -15q28 1 44 36h78q-25 -137 -130 -138q-31 0 -78 21q-44 21 -63 21q-29 -1 -42 -42z" glyph-name="Atilde" horiz-adv-x="741" unicode="Ã"/>
<glyph d="M-1 0l306 708h129l308 -708h-176l-61 150h-275l-59 -150h-172zM452 282l-87 220l-86 -220h173zM266 753q-48 0 -72 43q-11 21 -11 43q0 44 38 69q21 13 43 13q49 0 75 -39q12 -20 12 -43q0 -51 -42 -75q-20 -11 -43 -11zM474 753q-48 0 -72 43q-11 21 -11 43q0 44 38 69 q21 13 43 13q49 0 75 -39q12 -20 12 -43q0 -51 -42 -75q-20 -11 -43 -11z" glyph-name="Adieresis" horiz-adv-x="741" unicode="Ä"/>
<glyph d="M-1 0l306 708h129l308 -708h-176l-61 150h-275l-59 -150h-172zM452 282l-87 220l-86 -220h173zM371 731q-58 0 -92 49q-19 28 -19 62q0 58 49 92q28 19 62 19q58 0 92 -49q19 -28 19 -62q0 -58 -49 -92q-28 -19 -62 -19zM320 842q0 -32 29 -46q11 -5 22 -5q32 0 46 29 q5 11 5 22q0 32 -29 46q-11 5 -22 5q-32 0 -46 -29q-5 -11 -5 -22z" glyph-name="Aring" horiz-adv-x="741" unicode="Å"/>
<glyph d="M534 0v150h-263l-95 -150h-191l449 708h538v-144h-282v-132h258v-144h-258v-144h294v-144h-450zM534 282v282h-17l-179 -282h196z" glyph-name="AE" horiz-adv-x="1037" unicode="Æ"/>
<glyph d="M655 622l-120 -98q-50 58 -134 58q-100 0 -160 -80q-45 -63 -45 -148q0 -114 75 -180q54 -48 125 -48q95 1 146 76l130 -97q-69 -99 -201 -119q-28 -4 -55 -4q-13 0 -19 1l-29 -43q104 0 122 -54q4 -13 4 -29q0 -63 -79 -88q-31 -9 -60 -9q-63 0 -125 30l25 47 q46 -17 77 -17q65 1 66 32q0 26 -37 33q-7 1 -13 1q-17 0 -36 -8l-32 29l54 82q-160 29 -241 153q-59 91 -59 212q0 178 120 282q105 90 262 90q122 0 204 -68q20 -17 35 -36z" glyph-name="Ccedilla" horiz-adv-x="685" unicode="Ç"/>
<glyph d="M78 0v708h481v-144h-325v-132h307v-144h-307v-144h343v-144h-499zM316 903l101 -144h-132l-173 144h204z" glyph-name="Egrave" horiz-adv-x="630" unicode="È"/>
<glyph d="M78 0v708h481v-144h-325v-132h307v-144h-307v-144h343v-144h-499zM215 759l101 144h204l-173 -144h-132z" glyph-name="Eacute" horiz-adv-x="630" unicode="É"/>
<glyph d="M78 0v708h481v-144h-325v-132h307v-144h-307v-144h343v-144h-499zM514 759h-138l-63 78l-62 -78h-135l119 144h163z" glyph-name="Ecircumflex" horiz-adv-x="630" unicode="Ê"/>
<glyph d="M78 0v708h481v-144h-325v-132h307v-144h-307v-144h343v-144h-499zM210 753q-48 0 -72 43q-11 21 -11 43q0 44 38 69q21 13 43 13q49 0 75 -39q12 -20 12 -43q0 -51 -42 -75q-20 -11 -43 -11zM418 753q-48 0 -72 43q-11 21 -11 43q0 44 38 69q21 13 43 13q49 0 75 -39 q12 -20 12 -43q0 -51 -42 -75q-20 -11 -43 -11z" glyph-name="Edieresis" horiz-adv-x="630" unicode="Ë"/>
<glyph d="M70 0v708h156v-708h-156zM149 903l101 -144h-132l-173 144h204z" glyph-name="Igrave" horiz-adv-x="296" unicode="Ì"/>
<glyph d="M70 0v708h156v-708h-156zM48 759l101 144h204l-173 -144h-132z" glyph-name="Iacute" horiz-adv-x="296" unicode="Í"/>
<glyph d="M70 0v708h156v-708h-156zM347 759h-138l-63 78l-62 -78h-135l119 144h163z" glyph-name="Icircumflex" horiz-adv-x="296" unicode="Î"/>
<glyph d="M70 0v708h156v-708h-156zM43 753q-48 0 -72 43q-11 21 -11 43q0 44 38 69q21 13 43 13q49 0 75 -39q12 -20 12 -43q0 -51 -42 -75q-20 -11 -43 -11zM251 753q-48 0 -72 43q-11 21 -11 43q0 44 38 69q21 13 43 13q49 0 75 -39q12 -20 12 -43q0 -51 -42 -75 q-20 -11 -43 -11z" glyph-name="Idieresis" horiz-adv-x="296" unicode="Ï"/>
<glyph d="M228 564v-144h198v-102h-198v-174h81q252 4 254 216q0 126 -111 177q-57 27 -132 27h-92zM72 0v318h-60v102h60v288h234q243 0 350 -134q69 -87 69 -222q0 -175 -135 -273q-109 -79 -263 -79h-255z" glyph-name="Eth" horiz-adv-x="759" unicode="Ð"/>
<glyph d="M72 0v708h212l301 -492h2v492h156v-708h-204l-309 504h-2v-504h-156zM291 765h-79q14 86 69 121q27 17 58 17q37 0 87 -21q39 -15 56 -15q28 1 44 36h78q-25 -137 -130 -138q-31 0 -78 21q-44 21 -63 21q-29 -1 -42 -42z" glyph-name="Ntilde" horiz-adv-x="815" unicode="Ñ"/>
<glyph d="M34 354q0 178 120 282q105 90 262 90q176 0 283 -110q99 -103 99 -262q0 -178 -120 -282q-105 -90 -262 -90q-176 0 -283 110q-99 103 -99 262zM196 354q0 -118 81 -182q58 -46 139 -46q117 0 179 87q41 60 41 141q0 118 -81 182q-58 46 -139 46q-117 0 -179 -87 q-41 -60 -41 -141zM417 903l101 -144h-132l-173 144h204z" glyph-name="Ograve" horiz-adv-x="832" unicode="Ò"/>
<glyph d="M34 354q0 178 120 282q105 90 262 90q176 0 283 -110q99 -103 99 -262q0 -178 -120 -282q-105 -90 -262 -90q-176 0 -283 110q-99 103 -99 262zM196 354q0 -118 81 -182q58 -46 139 -46q117 0 179 87q41 60 41 141q0 118 -81 182q-58 46 -139 46q-117 0 -179 -87 q-41 -60 -41 -141zM316 759l101 144h204l-173 -144h-132z" glyph-name="Oacute" horiz-adv-x="832" unicode="Ó"/>
<glyph d="M34 354q0 178 120 282q105 90 262 90q176 0 283 -110q99 -103 99 -262q0 -178 -120 -282q-105 -90 -262 -90q-176 0 -283 110q-99 103 -99 262zM196 354q0 -118 81 -182q58 -46 139 -46q117 0 179 87q41 60 41 141q0 118 -81 182q-58 46 -139 46q-117 0 -179 -87 q-41 -60 -41 -141zM615 759h-138l-63 78l-62 -78h-135l119 144h163z" glyph-name="Ocircumflex" horiz-adv-x="832" unicode="Ô"/>
<glyph d="M34 354q0 178 120 282q105 90 262 90q176 0 283 -110q99 -103 99 -262q0 -178 -120 -282q-105 -90 -262 -90q-176 0 -283 110q-99 103 -99 262zM196 354q0 -118 81 -182q58 -46 139 -46q117 0 179 87q41 60 41 141q0 118 -81 182q-58 46 -139 46q-117 0 -179 -87 q-41 -60 -41 -141zM299 765h-79q14 86 69 121q27 17 58 17q37 0 87 -21q39 -15 56 -15q28 1 44 36h78q-25 -137 -130 -138q-31 0 -78 21q-44 21 -63 21q-29 -1 -42 -42z" glyph-name="Otilde" horiz-adv-x="832" unicode="Õ"/>
<glyph d="M34 354q0 178 120 282q105 90 262 90q176 0 283 -110q99 -103 99 -262q0 -178 -120 -282q-105 -90 -262 -90q-176 0 -283 110q-99 103 -99 262zM196 354q0 -118 81 -182q58 -46 139 -46q117 0 179 87q41 60 41 141q0 118 -81 182q-58 46 -139 46q-117 0 -179 -87 q-41 -60 -41 -141zM311 753q-48 0 -72 43q-11 21 -11 43q0 44 38 69q21 13 43 13q49 0 75 -39q12 -20 12 -43q0 -51 -42 -75q-20 -11 -43 -11zM519 753q-48 0 -72 43q-11 21 -11 43q0 44 38 69q21 13 43 13q49 0 75 -39q12 -20 12 -43q0 -51 -42 -75q-20 -11 -43 -11z" glyph-name="Odieresis" horiz-adv-x="832" unicode="Ö"/>
<glyph d="M64 475l93 95l177 -175l172 174l89 -86l-173 -180l180 -173l-92 -93l-176 176l-177 -177l-89 86l174 181z" glyph-name="multiply" horiz-adv-x="666" unicode="×"/>
<glyph d="M34 -3l93 102q-93 102 -93 255q0 178 120 282q105 90 262 90q131 -1 227 -64l92 100l55 -49l-90 -98q98 -102 98 -261q0 -178 -120 -282q-105 -90 -262 -90q-137 1 -233 68l-93 -101zM235 217l304 331q-53 34 -123 34q-117 0 -179 -87q-41 -60 -41 -141q1 -78 39 -137z M592 497l-305 -333q55 -38 129 -38q117 0 179 87q41 60 41 141q-1 85 -44 143z" glyph-name="Oslash" horiz-adv-x="832" unicode="Ø"/>
<glyph d="M669 708v-435q0 -155 -104 -233q-77 -58 -194 -58q-176 0 -253 121q-46 71 -46 170v435h156v-429q0 -83 61 -127q36 -26 82 -26q76 0 117 63q25 40 25 90v429h156zM372 903l101 -144h-132l-173 144h204z" glyph-name="Ugrave" horiz-adv-x="741" unicode="Ù"/>
<glyph d="M669 708v-435q0 -155 -104 -233q-77 -58 -194 -58q-176 0 -253 121q-46 71 -46 170v435h156v-429q0 -83 61 -127q36 -26 82 -26q76 0 117 63q25 40 25 90v429h156zM271 759l101 144h204l-173 -144h-132z" glyph-name="Uacute" horiz-adv-x="741" unicode="Ú"/>
<glyph d="M669 708v-435q0 -155 -104 -233q-77 -58 -194 -58q-176 0 -253 121q-46 71 -46 170v435h156v-429q0 -83 61 -127q36 -26 82 -26q76 0 117 63q25 40 25 90v429h156zM570 759h-138l-63 78l-62 -78h-135l119 144h163z" glyph-name="Ucircumflex" horiz-adv-x="741" unicode="Û"/>
<glyph d="M669 708v-435q0 -155 -104 -233q-77 -58 -194 -58q-176 0 -253 121q-46 71 -46 170v435h156v-429q0 -83 61 -127q36 -26 82 -26q76 0 117 63q25 40 25 90v429h156zM266 753q-48 0 -72 43q-11 21 -11 43q0 44 38 69q21 13 43 13q49 0 75 -39q12 -20 12 -43q0 -51 -42 -75 q-20 -11 -43 -11zM474 753q-48 0 -72 43q-11 21 -11 43q0 44 38 69q21 13 43 13q49 0 75 -39q12 -20 12 -43q0 -51 -42 -75q-20 -11 -43 -11z" glyph-name="Udieresis" horiz-adv-x="741" unicode="Ü"/>
<glyph d="M246 0v302l-266 406h194l150 -265l159 265h185l-266 -406v-302h-156zM224 786l101 144h204l-173 -144h-132z" glyph-name="Yacute" horiz-adv-x="648" unicode="Ý"/>
<glyph d="M72 0v708h156v-126h107q268 -2 269 -215q-2 -216 -262 -217h-114v-150h-156zM228 450v-168h104q100 0 109 71q1 7 1 14q-1 83 -134 83h-80z" glyph-name="Thorn" horiz-adv-x="630" unicode="Þ"/>
<glyph d="M53 0v513q2 254 256 255q115 0 181 -62q50 -49 50 -121q-1 -118 -102 -160v-2q111 -22 145 -127q11 -37 11 -79q0 -126 -94 -189q-61 -40 -144 -40q-47 0 -93 12v122q26 -8 49 -8q88 0 122 57q16 26 16 60q0 97 -92 117q-21 5 -45 5h-20v126h12q63 0 84 44q7 16 7 35 q0 51 -51 71q-19 7 -40 7q-69 0 -93 -54q-9 -20 -9 -44v-538h-150z" glyph-name="germandbls" horiz-adv-x="630" unicode="ß"/>
<glyph d="M358 0v61h-2q-47 -73 -154 -73q-93 0 -142 59q-31 39 -31 91q0 149 221 168q41 3 108 3q0 54 -49 77q-22 10 -47 10q-71 -1 -122 -58l-80 82q89 75 214 78q152 0 197 -98q25 -56 25 -153v-247h-138zM358 213h-37q-147 -1 -148 -70q0 -37 44 -49q14 -4 27 -4q70 0 100 44 q14 21 14 47v32zM270 708l101 -144h-132l-173 144h204z" glyph-name="agrave" horiz-adv-x="537" unicode="à"/>
<glyph d="M358 0v61h-2q-47 -73 -154 -73q-93 0 -142 59q-31 39 -31 91q0 149 221 168q41 3 108 3q0 54 -49 77q-22 10 -47 10q-71 -1 -122 -58l-80 82q89 75 214 78q152 0 197 -98q25 -56 25 -153v-247h-138zM358 213h-37q-147 -1 -148 -70q0 -37 44 -49q14 -4 27 -4q70 0 100 44 q14 21 14 47v32zM169 564l101 144h204l-173 -144h-132z" glyph-name="aacute" horiz-adv-x="537" unicode="á"/>
<glyph d="M358 0v61h-2q-47 -73 -154 -73q-93 0 -142 59q-31 39 -31 91q0 149 221 168q41 3 108 3q0 54 -49 77q-22 10 -47 10q-71 -1 -122 -58l-80 82q89 75 214 78q152 0 197 -98q25 -56 25 -153v-247h-138zM358 213h-37q-147 -1 -148 -70q0 -37 44 -49q14 -4 27 -4q70 0 100 44 q14 21 14 47v32zM468 564h-138l-63 78l-62 -78h-135l119 144h163z" glyph-name="acircumflex" horiz-adv-x="537" unicode="â"/>
<glyph d="M358 0v61h-2q-47 -73 -154 -73q-93 0 -142 59q-31 39 -31 91q0 149 221 168q41 3 108 3q0 54 -49 77q-22 10 -47 10q-71 -1 -122 -58l-80 82q89 75 214 78q152 0 197 -98q25 -56 25 -153v-247h-138zM358 213h-37q-147 -1 -148 -70q0 -37 44 -49q14 -4 27 -4q70 0 100 44 q14 21 14 47v32zM152 570h-79q14 86 69 121q27 17 58 17q37 0 87 -21q39 -15 56 -15q28 1 44 36h78q-25 -137 -130 -138q-31 0 -78 21q-44 21 -63 21q-29 -1 -42 -42z" glyph-name="atilde" horiz-adv-x="537" unicode="ã"/>
<glyph d="M358 0v61h-2q-47 -73 -154 -73q-93 0 -142 59q-31 39 -31 91q0 149 221 168q41 3 108 3q0 54 -49 77q-22 10 -47 10q-71 -1 -122 -58l-80 82q89 75 214 78q152 0 197 -98q25 -56 25 -153v-247h-138zM358 213h-37q-147 -1 -148 -70q0 -37 44 -49q14 -4 27 -4q70 0 100 44 q14 21 14 47v32zM164 558q-48 0 -72 43q-11 21 -11 43q0 44 38 69q21 13 43 13q49 0 75 -39q12 -20 12 -43q0 -51 -42 -75q-20 -11 -43 -11zM372 558q-48 0 -72 43q-11 21 -11 43q0 44 38 69q21 13 43 13q49 0 75 -39q12 -20 12 -43q0 -51 -42 -75q-20 -11 -43 -11z" glyph-name="adieresis" horiz-adv-x="537" unicode="ä"/>
<glyph d="M358 0v61h-2q-47 -73 -154 -73q-93 0 -142 59q-31 39 -31 91q0 149 221 168q41 3 108 3q0 54 -49 77q-22 10 -47 10q-71 -1 -122 -58l-80 82q89 75 214 78q152 0 197 -98q25 -56 25 -153v-247h-138zM358 213h-37q-147 -1 -148 -70q0 -37 44 -49q14 -4 27 -4q70 0 100 44 q14 21 14 47v32zM269 545q-58 0 -92 49q-19 28 -19 62q0 58 49 92q28 19 62 19q58 0 92 -49q19 -28 19 -62q0 -58 -49 -92q-28 -19 -62 -19zM218 656q0 -32 29 -46q11 -5 22 -5q32 0 46 29q5 11 5 22q0 32 -29 46q-11 5 -22 5q-32 0 -46 -29q-5 -11 -5 -22z" glyph-name="aring" horiz-adv-x="537" unicode="å"/>
<glyph d="M140 338l-80 82q89 75 214 78q98 -1 158 -59q61 59 163 59q128 0 189 -100q39 -64 39 -155v-47h-348q14 -67 73 -87q19 -7 40 -7q64 1 107 59l105 -77q-60 -77 -164 -93q-21 -3 -41 -3q-139 1 -194 79q-58 -79 -199 -79q-93 0 -142 59q-31 39 -31 91q0 148 237 159 q27 1 65 1h18q0 68 -50 91q-17 7 -37 7q-71 -1 -122 -58zM173 139q1 -49 77 -49q98 2 99 106h-18q-157 -1 -158 -57zM475 298h198q1 51 -42 78q-23 14 -50 14q-69 0 -96 -56q-8 -17 -10 -36z" glyph-name="ae" horiz-adv-x="852" unicode="æ"/>
<glyph d="M481 433l-99 -104q-27 36 -74 37q-80 0 -109 -65q-11 -27 -11 -58q0 -80 61 -110q26 -13 59 -13q43 1 74 37l99 -104q-64 -65 -173 -65q-7 0 -9 1l-33 -49q104 0 122 -54q4 -13 4 -29q0 -63 -79 -88q-31 -9 -60 -9q-63 0 -125 30l25 47q46 -17 77 -17q65 1 66 32 q0 26 -37 33q-7 1 -13 1q-17 0 -36 -8l-32 29l60 90q-115 25 -168 119q-32 57 -32 127q0 127 96 200q73 55 174 55q109 -1 173 -65z" glyph-name="ccedilla" horiz-adv-x="482" unicode="ç"/>
<glyph d="M408 161l105 -77q-60 -77 -164 -93q-21 -3 -41 -3q-127 0 -205 83q-65 70 -65 172q0 127 96 200q73 55 174 55q128 0 189 -100q39 -64 39 -155v-47h-348q14 -67 73 -87q19 -7 40 -7q64 1 107 59zM188 298h198q1 51 -42 78q-23 14 -50 14q-69 0 -96 -56q-8 -17 -10 -36z M288 708l101 -144h-132l-173 144h204z" glyph-name="egrave" horiz-adv-x="574" unicode="è"/>
<glyph d="M408 161l105 -77q-60 -77 -164 -93q-21 -3 -41 -3q-127 0 -205 83q-65 70 -65 172q0 127 96 200q73 55 174 55q128 0 189 -100q39 -64 39 -155v-47h-348q14 -67 73 -87q19 -7 40 -7q64 1 107 59zM188 298h198q1 51 -42 78q-23 14 -50 14q-69 0 -96 -56q-8 -17 -10 -36z M187 564l101 144h204l-173 -144h-132z" glyph-name="eacute" horiz-adv-x="574" unicode="é"/>
<glyph d="M408 161l105 -77q-60 -77 -164 -93q-21 -3 -41 -3q-127 0 -205 83q-65 70 -65 172q0 127 96 200q73 55 174 55q128 0 189 -100q39 -64 39 -155v-47h-348q14 -67 73 -87q19 -7 40 -7q64 1 107 59zM188 298h198q1 51 -42 78q-23 14 -50 14q-69 0 -96 -56q-8 -17 -10 -36z M486 564h-138l-63 78l-62 -78h-135l119 144h163z" glyph-name="ecircumflex" horiz-adv-x="574" unicode="ê"/>
<glyph d="M408 161l105 -77q-60 -77 -164 -93q-21 -3 -41 -3q-127 0 -205 83q-65 70 -65 172q0 127 96 200q73 55 174 55q128 0 189 -100q39 -64 39 -155v-47h-348q14 -67 73 -87q19 -7 40 -7q64 1 107 59zM188 298h198q1 51 -42 78q-23 14 -50 14q-69 0 -96 -56q-8 -17 -10 -36z M182 558q-48 0 -72 43q-11 21 -11 43q0 44 38 69q21 13 43 13q49 0 75 -39q12 -20 12 -43q0 -51 -42 -75q-20 -11 -43 -11zM390 558q-48 0 -72 43q-11 21 -11 43q0 44 38 69q21 13 43 13q49 0 75 -39q12 -20 12 -43q0 -51 -42 -75q-20 -11 -43 -11z" glyph-name="edieresis" horiz-adv-x="574" unicode="ë"/>
<glyph d="M55 0v486h150v-486h-150zM131 708l101 -144h-132l-173 144h204z" glyph-name="igrave" horiz-adv-x="260" unicode="ì"/>
<glyph d="M55 0v486h150v-486h-150zM30 564l101 144h204l-173 -144h-132z" glyph-name="iacute" horiz-adv-x="260" unicode="í"/>
<glyph d="M55 0v486h150v-486h-150zM329 564h-138l-63 78l-62 -78h-135l119 144h163z" glyph-name="icircumflex" horiz-adv-x="260" unicode="î"/>
<glyph d="M55 0v486h150v-486h-150zM25 558q-48 0 -72 43q-11 21 -11 43q0 44 38 69q21 13 43 13q49 0 75 -39q12 -20 12 -43q0 -51 -42 -75q-20 -11 -43 -11zM233 558q-48 0 -72 43q-11 21 -11 43q0 44 38 69q21 13 43 13q49 0 75 -39q12 -20 12 -43q0 -51 -42 -75 q-20 -11 -43 -11z" glyph-name="idieresis" horiz-adv-x="260" unicode="ï"/>
<glyph d="M449 777l77 -67l-123 -51q92 -98 130 -181q42 -93 42 -194q0 -178 -111 -253q-66 -44 -159 -43q-127 0 -205 83q-65 70 -65 172q0 122 91 197q70 58 157 58q66 -1 98 -26l2 2q-52 75 -105 124q-4 3 -6 5l-106 -45l-72 68l108 46q-29 31 -69 59l122 70q42 -32 80 -72z M185 243q0 -80 61 -110q26 -13 59 -13q80 0 109 65q11 27 11 58q0 80 -61 110q-26 13 -59 13q-80 0 -109 -65q-11 -27 -11 -58z" glyph-name="eth" horiz-adv-x="610" unicode="ð"/>
<glyph d="M53 0v486h144v-66h2q28 54 94 72q23 6 48 6q134 0 167 -111q13 -46 13 -119v-268h-150v238q0 80 -22 106q-20 22 -56 22q-79 0 -88 -90q-2 -15 -2 -34v-242h-150zM170 570h-79q14 86 69 121q27 17 58 17q37 0 87 -21q39 -15 56 -15q28 1 44 36h78q-25 -137 -130 -138 q-31 0 -78 21q-44 21 -63 21q-29 -1 -42 -42z" glyph-name="ntilde" horiz-adv-x="574" unicode="ñ"/>
<glyph d="M35 243q0 127 96 200q73 55 174 55q127 0 205 -83q65 -70 65 -172q0 -127 -96 -200q-73 -55 -174 -55q-127 0 -205 83q-65 70 -65 172zM185 243q0 -80 61 -110q26 -13 59 -13q80 0 109 65q11 27 11 58q0 80 -61 110q-26 13 -59 13q-80 0 -109 -65q-11 -27 -11 -58z M306 708l101 -144h-132l-173 144h204z" glyph-name="ograve" horiz-adv-x="610" unicode="ò"/>
<glyph d="M35 243q0 127 96 200q73 55 174 55q127 0 205 -83q65 -70 65 -172q0 -127 -96 -200q-73 -55 -174 -55q-127 0 -205 83q-65 70 -65 172zM185 243q0 -80 61 -110q26 -13 59 -13q80 0 109 65q11 27 11 58q0 80 -61 110q-26 13 -59 13q-80 0 -109 -65q-11 -27 -11 -58z M205 564l101 144h204l-173 -144h-132z" glyph-name="oacute" horiz-adv-x="610" unicode="ó"/>
<glyph d="M35 243q0 127 96 200q73 55 174 55q127 0 205 -83q65 -70 65 -172q0 -127 -96 -200q-73 -55 -174 -55q-127 0 -205 83q-65 70 -65 172zM185 243q0 -80 61 -110q26 -13 59 -13q80 0 109 65q11 27 11 58q0 80 -61 110q-26 13 -59 13q-80 0 -109 -65q-11 -27 -11 -58z M504 564h-138l-63 78l-62 -78h-135l119 144h163z" glyph-name="ocircumflex" horiz-adv-x="610" unicode="ô"/>
<glyph d="M35 243q0 127 96 200q73 55 174 55q127 0 205 -83q65 -70 65 -172q0 -127 -96 -200q-73 -55 -174 -55q-127 0 -205 83q-65 70 -65 172zM185 243q0 -80 61 -110q26 -13 59 -13q80 0 109 65q11 27 11 58q0 80 -61 110q-26 13 -59 13q-80 0 -109 -65q-11 -27 -11 -58z M188 570h-79q14 86 69 121q27 17 58 17q37 0 87 -21q39 -15 56 -15q28 1 44 36h78q-25 -137 -130 -138q-31 0 -78 21q-44 21 -63 21q-29 -1 -42 -42z" glyph-name="otilde" horiz-adv-x="610" unicode="õ"/>
<glyph d="M35 243q0 127 96 200q73 55 174 55q127 0 205 -83q65 -70 65 -172q0 -127 -96 -200q-73 -55 -174 -55q-127 0 -205 83q-65 70 -65 172zM185 243q0 -80 61 -110q26 -13 59 -13q80 0 109 65q11 27 11 58q0 80 -61 110q-26 13 -59 13q-80 0 -109 -65q-11 -27 -11 -58z M200 558q-48 0 -72 43q-11 21 -11 43q0 44 38 69q21 13 43 13q49 0 75 -39q12 -20 12 -43q0 -51 -42 -75q-20 -11 -43 -11zM408 558q-48 0 -72 43q-11 21 -11 43q0 44 38 69q21 13 43 13q49 0 75 -39q12 -20 12 -43q0 -51 -42 -75q-20 -11 -43 -11z" glyph-name="odieresis" horiz-adv-x="610" unicode="ö"/>
<glyph d="M59 240v126h548v-126h-548zM247 114q0 48 41 73q21 13 45 13q48 0 73 -41q13 -21 13 -45q0 -48 -41 -73q-21 -13 -45 -13q-48 0 -73 41q-13 21 -13 45zM247 492q0 48 41 73q21 13 45 13q48 0 73 -41q13 -21 13 -45q0 -48 -41 -73q-21 -13 -45 -13q-48 0 -73 41 q-13 21 -13 45z" glyph-name="divide" horiz-adv-x="666" unicode="÷"/>
<glyph d="M26 6l70 70q-61 68 -61 167q0 127 96 200q73 55 174 55q94 -1 165 -49l67 67l47 -45l-66 -66q57 -67 57 -162q0 -127 -96 -200q-73 -55 -174 -55q-90 1 -159 46l-73 -73zM200 180l170 170q-28 16 -65 16q-80 0 -109 -65q-11 -27 -11 -58q0 -36 15 -63zM413 300l-167 -166 q27 -14 59 -14q80 0 109 65q11 27 11 58t-12 57z" glyph-name="oslash" horiz-adv-x="610" unicode="ø"/>
<glyph d="M521 486v-486h-144v66h-2q-28 -54 -94 -72q-23 -6 -48 -6q-134 0 -167 111q-13 46 -13 119v268h150v-238q0 -80 22 -106q20 -22 56 -22q79 0 88 90q2 15 2 34v242h150zM288 708l101 -144h-132l-173 144h204z" glyph-name="ugrave" horiz-adv-x="574" unicode="ù"/>
<glyph d="M521 486v-486h-144v66h-2q-28 -54 -94 -72q-23 -6 -48 -6q-134 0 -167 111q-13 46 -13 119v268h150v-238q0 -80 22 -106q20 -22 56 -22q79 0 88 90q2 15 2 34v242h150zM187 564l101 144h204l-173 -144h-132z" glyph-name="uacute" horiz-adv-x="574" unicode="ú"/>
<glyph d="M521 486v-486h-144v66h-2q-28 -54 -94 -72q-23 -6 -48 -6q-134 0 -167 111q-13 46 -13 119v268h150v-238q0 -80 22 -106q20 -22 56 -22q79 0 88 90q2 15 2 34v242h150zM486 564h-138l-63 78l-62 -78h-135l119 144h163z" glyph-name="ucircumflex" horiz-adv-x="574" unicode="û"/>
<glyph d="M521 486v-486h-144v66h-2q-28 -54 -94 -72q-23 -6 -48 -6q-134 0 -167 111q-13 46 -13 119v268h150v-238q0 -80 22 -106q20 -22 56 -22q79 0 88 90q2 15 2 34v242h150zM182 558q-48 0 -72 43q-11 21 -11 43q0 44 38 69q21 13 43 13q49 0 75 -39q12 -20 12 -43 q0 -51 -42 -75q-20 -11 -43 -11zM390 558q-48 0 -72 43q-11 21 -11 43q0 44 38 69q21 13 43 13q49 0 75 -39q12 -20 12 -43q0 -51 -42 -75q-20 -11 -43 -11z" glyph-name="udieresis" horiz-adv-x="574" unicode="ü"/>
<glyph d="M553 486l-220 -565q-33 -85 -58 -113q-45 -48 -148 -48q-58 0 -112 18l20 123q35 -15 70 -15q46 0 64 17.5t36 63.5v1l11 28l-213 490h162l125 -321h2l107 321h154zM178 564l101 144h204l-173 -144h-132z" glyph-name="yacute" horiz-adv-x="556" unicode="ý"/>
<glyph d="M67 -228v984h150v-322h2q27 46 98 60q20 4 39 4q125 0 192 -92q47 -67 47 -159q0 -118 -71 -194q-62 -65 -151 -65q-108 1 -154 64h-2v-280h-150zM205 243q0 -80 61 -110q26 -13 59 -13q80 0 109 65q11 27 11 58q0 80 -61 110q-26 13 -59 13q-80 0 -109 -65 q-11 -27 -11 -58z" glyph-name="thorn" horiz-adv-x="630" unicode="þ"/>
</font>
</defs>
</svg>
