<svg xmlns="http://www.w3.org/2000/svg" viewBox="0 0 1126 1002">
    <defs>
        <style>
            .cls-1{fill:#fff;}.cls-2{fill:#e1deff;}.cls-3{fill:#c2c2c2;}.cls-4{fill:#fdbe5a;}.cls-5{fill:#1e1452;}.cls-6{fill:#ffd7aa;}
        </style>
    </defs>
    <title>visuels-01</title>
    <g id="Calque_1" data-name="Calque 1">
        <polygon class="cls-1" points="284.83 802.2 273.53 800.5 288 771.55 303.59 780.46 284.83 802.2"/>
        <path class="cls-2"
              d="M607,119.21c13.39-14.73,10.68-48.41-4.75-59.68C556.29,26,442.12-6.83,164.13,77.62c0,0-266.41,81.39-119.62,212.82a88.19,88.19,0,0,0,27.63,17C109,321.39,213,371.72,142.67,476.17c-8.72,12.95-15.16,29.46-18.07,48.21C117.86,567.86,124,633,229.43,612.79c0,0,635.17-163.5,484-322.64a97.57,97.57,0,0,0-35.62-24.35C639.89,251.25,532.72,200.85,607,119.21Z"/>
        <rect class="cls-3" x="27.49" y="18.2" width="213.63" height="288.03" rx="12"/>
        <circle class="cls-4" cx="133.54" cy="107.17" r="61.64"/>
        <rect class="cls-1" x="106.14" y="228.64" width="55.27" height="3.19" rx="1.43"/>
        <rect class="cls-1" x="93.39" y="247.77" width="81.84" height="3.19" rx="1.43"/>
        <rect class="cls-1" x="84.18" y="266.9" width="99.56" height="3.28" rx="1.47"/>
        <path class="cls-2"
              d="M1086.29,596.52c12-5.39,17.53-25.6,9.79-35.79-23-30.34-91.27-76.39-293-93,0,0-193.43-15.66-125,95.38a62.59,62.59,0,0,0,14.54,16.42c21.29,16.8,79,70.62,10,114.69a69.93,69.93,0,0,0-22.37,23.74c-13.86,23.67-23.91,63,50,76.13,0,0,454.55,55.11,389.24-73.08a68.28,68.28,0,0,0-18.24-22.56C1079.42,681,1019.62,626.41,1086.29,596.52Z"/>
        <path class="cls-5"
              d="M504,793.81l-70.14,18.93s-6.68,4.45-20-1.11l-110.21-33.4-20,25.6L379.29,845s10,8.9,36.74,4.45l22.26-3.34Z"/>
        <path class="cls-4" d="M271.3,763.76s-10-2.23-13.36,3.34L245.7,793.81s-1.12,12.25,10,11.14l19.29-5.2,14.1-26Z"/>
        <polygon class="cls-1" points="217.09 909.5 201.16 911.82 218.98 941.88 227.88 939.66 217.09 909.5"/>
        <path class="cls-4"
              d="M201.32,916.73l-6.82-3.9s-3.9-2.92-8.77,2.93l-37,47.74S138,983,148.7,993.71c0,0,20.46,20.47,30.21-2.92,0,0,24.36-44.83,35.08-48.72Z"/>
        <path class="cls-5"
              d="M576.34,749.28S528.47,734.81,504,793.81L389.31,875.09s-3.34,6.67-21.15,8.9L216.75,907.37l5.57,34.51,161.42-14.47s25.61,1.11,36.74-6.68l184.81-79L593,764.87Z"/>
        <path class="cls-5"
              d="M930.1,466.39l-5.19,103.72a4.73,4.73,0,0,1-1.81,3.49l-79.06,62a4.73,4.73,0,0,0,1.57,8.26l108.15,32.35a4.75,4.75,0,0,0,4.1-.69l108.57-77.39a4.74,4.74,0,0,0,2-3.86V491.57a4.74,4.74,0,0,0-3.84-4.65L935.73,462A4.73,4.73,0,0,0,930.1,466.39Z"/>
        <path class="cls-4"
              d="M946.05,472.74l108.07,21.42a7.89,7.89,0,0,1,6.35,7.92l-1.86,82a7.9,7.9,0,0,1-9.4,7.57L939.28,570.23a7.9,7.9,0,0,1-6.38-8.1l3.73-82A7.9,7.9,0,0,1,946.05,472.74Z"/>
        <path class="cls-3"
              d="M932.8,581.46l101.55,21.6a.85.85,0,0,1,.34,1.5L988.17,640.5a2.66,2.66,0,0,1-2.28.47l-96.55-25a.66.66,0,0,1-.25-1.15L930.43,582A2.81,2.81,0,0,1,932.8,581.46Z"/>
        <path class="cls-3"
              d="M903.63,628.18l41.73,10.46a.87.87,0,0,1,.33,1.52l-17.53,13.89a2,2,0,0,1-1.7.36L885,643.71a.87.87,0,0,1-.32-1.52l17.16-13.63A2,2,0,0,1,903.63,628.18Z"/>
        <path class="cls-6"
              d="M1055.47,590.18a7.85,7.85,0,0,0,3.14-6.11l1.86-82a7.89,7.89,0,0,0-6.35-7.92L946.05,472.74a7.87,7.87,0,0,0-6.44,1.57Z"/>
        <path class="cls-1"
              d="M740,681.37l95.74-60.11s0-16.7,8.91-21.16l7.79-8.9s6.68-4.46,13.36-3.34l17.81-7.8s12.25-5.56,6.68,3.34l-21.15,14.48-6.68,22.26L789,691.39H744.45l-8.91-5.56Z"/>
        <path class="cls-1"
              d="M764.49,682.49l65.68,15.58s2.23,3.34,14.48-3.34L935.94,658s5.56-2.22,7.79-4.45l10-8.91s6.68-6.68,7.79,2.23l1.11,14.47s1.12,7.8,6.68,5.57l14.48-12.25s3.34-2.22,3.34,4.46l-10.61,21.2a9.09,9.09,0,0,1-8.89,5l-31.71-.6s-7.8-1.11-17.82,5.57l-65.68,42.3s-5.57,7.8-35.63,4.46l-63.45-6.68-7.8-31.17Z"/>
        <path class="cls-1"
              d="M764.06,555.31s5.8,7.36,5.11,13.67a6.2,6.2,0,0,1-1.79,3.69c-1.75,1.76-4.91,5.55-2.11,7.48a24.18,24.18,0,0,1,2.18,1.58l6.5,5.57s4.25,3.4-1.35,5a8.1,8.1,0,0,0-5.83,6.08,5,5,0,0,0,.08,2.52,12,12,0,0,1,.62,2.5c.54,5.14,1.49,20.82-6.88,21.75,0,0-22.26-1.11-24.49,18.93,0,0-1.67,16.14-.56,19.48L704.93,643l5.56-51.21,31.18-33.4Z"/>
        <path class="cls-4"
              d="M703.26,639.07l32.4,21.31-.12,22.11h29l-11.13,47.87L730,727s3.91,21.52-15.77,32.46a88.74,88.74,0,0,0-12.08,8.28L605,845.29a3.3,3.3,0,0,1-5.36-2.45c-.6-16.72-4.26-61.5-25.73-93.63a4.59,4.59,0,0,1,1.73-6.69c16.58-8.21,70.27-37.3,73.1-71.17Z"/>
        <path class="cls-5"
              d="M768.2,544.37c-2.16,10.07-9.47,23.59-30.67,36.07a29.66,29.66,0,0,1-8.08,3.36c-4.9,1.2-14.5,6-12.83,25.21,0,0,11.13,55.66-67.91,62.34,0,0-18.93-2.22-29,20,0,0-4.45,17.81-36.74,14.48,0,0-12.24-5.57-25.6,3.33,0,0-34.52,21.16-50.1-8.9,0,0-4.45-20,13.36-30.06,0,0,32.28-2.23,40.08-33.4,0,0,15.17-48.54,45.51-49.24a66.51,66.51,0,0,0,16.44-2.21c14.7-4.11,39.57-14.69,53.83-40.95,0,0,35.54-54.3,82.45-22.52A21.79,21.79,0,0,1,768.2,544.37Z"/>
        <path class="cls-1"
              d="M525.13,216l15.59,37.85s4.45,10-2.23,23.38l-31.17,69s-26.72,46.76-6.68,29c0,0,12.25-17.81,14.47,1.11,0,0,4.45,30.06,13.36,22.27,0,0,26.42-13.7,17.8-45.69a34.78,34.78,0,0,0-4-8.92c-1.94-3.15-.41-10,4-18.87l33.4-54.55a31.62,31.62,0,0,0,2.23-24.49l-13.36-44.54Z"/>
        <polygon class="cls-1" points="116.55 389.69 96.52 408.62 126.57 430.88 142.16 414.18 116.55 389.69"/>
        <polygon class="cls-1" points="295.79 558.91 289.51 574.74 313.61 585.63 321.4 565.59 295.79 558.91"/>
        <path class="cls-5"
              d="M286.22,575.65A86,86,0,0,1,268,596.76s-14.53,9.08-19.93,16.53A6.14,6.14,0,0,0,249.6,622l20.56,13.71a24.68,24.68,0,0,0,11.42,4.14c3,.27,6.33,0,8.65-1.9,0,0,26.72-25.6,25.6-50.09,0,0-6.41-20.32-27.63-13.79A3.49,3.49,0,0,0,286.22,575.65Z"/>
        <path class="cls-4"
              d="M452.77,307.31s12.24,39-18.93,54.55c0,0-66.8,53.44-69,73.48L323.63,568.93l-31.18-10L308,414.18s2.23-17.81,8.91-25.6L354.8,324s-64.57,5.56-108-1.12c0,0-73.48,67.91-104.65,93.52l-27.83-27.83L219,283.93s4.45-6.68,25.6-12.25l90.18-27.83Z"/>
        <path class="cls-1"
              d="M331.64,130.41l-51.43,19.92s-4.46,2.23-16.7,2.23l-76.62,4.09a31.53,31.53,0,0,1-13-2.08c-13.25-5.13-41.2-15.27-15,1.33,0,0,4.45,4.45-2.23,5.57,0,0-12.22-1.26-21.77.95a12.22,12.22,0,0,0-9,8.66c-2.25,8-4,22.63,12.68,23.75a25.61,25.61,0,0,0,5.73-.31c3.16-.48,9.19-1.35,14.09-1.72a30.17,30.17,0,0,0,7.63-1.55c6.31-2.19,18.93-6.1,26.23-5.29l83.49,3.34s16.7-1.11,23.38-5.57l47.56-22.25Z"/>
        <path class="cls-5"
              d="M376.44,100.33a80.25,80.25,0,0,1,58-11.77c14.74,2.59,42.36,8.34,66.24,18.36,0,0,28.94,10,39,31.17l28.95,63.45L525.13,216s-10.76-30.34-25.87-20.37a16.48,16.48,0,0,0-4.46,4.54c-6.68,9.81-35.2,55.11-35.38,112.6a1.55,1.55,0,0,1-2.54,1.21c-7.48-6.1-31.58-23.48-75.84-35.45a140.71,140.71,0,0,1-28-10.71c-13.49-7-29.42-17.52-29.42-28.44,0,0,59.56-29.51,60.67-91.85l-37.85,16.7-15.59-35.63s26.72-12.24,39-23.37A59.85,59.85,0,0,1,376.44,100.33Z"/>
        <path class="cls-1"
              d="M522.9,35.66a115,115,0,0,1,.93,17.19,19.75,19.75,0,0,1-2.27,8.34c-.78,1.46-1.49,3.32-.88,4.53,0,0,7.79,17.82,3.34,17.82,0,0-10-2.23-10,1.11,0,0-4.45,21.15-23.38,16.7,0,0-6.4-1.83-7.6,5.28a34.24,34.24,0,0,1-2.4,8.44c-3.59,8-11.86,20.71-26.74,15.22,0,0-22.26-4.45-5.57-37.85,0,0,5.57-11.13,4.46-16.7L453.88,49l31.17-21.15Z"/>
        <path class="cls-5"
              d="M535.23,3.36c1.79-1.43,5.49-2.21,5.44,4.9a30.75,30.75,0,0,0,.39,3.56C541.83,19,544.56,39,528.47,39c0,0-42.3-2.22-42.3,12.25,0,0,3,22.94-4.24,18.79A6.44,6.44,0,0,1,480,68.3c-3.39-4.46-20.8-26.44-22.81-10.37,0,0-2.27,39.69-10,22.63a7,7,0,0,0-.68-1.23c-2.07-3-8.82-12.91-11.6-20.55a7.11,7.11,0,0,1,1.46-7.33c1.2-1.26,1.93-4.18-.23-10.87a6.65,6.65,0,0,0-.33-.84c-1.35-2.91-9.5-22,8-23,0,0,7.56,0,11-6.38a5.51,5.51,0,0,1,.45-.73C457.13,7.1,468-5.52,497.5,2a6.63,6.63,0,0,1,1.53.59c2.43,1.26,12.29,5.39,32.73,2.25A7.38,7.38,0,0,0,535.23,3.36Z"/>
        <path class="cls-5"
              d="M130.57,143v-8.82c-5.06-.09-10.3-1.66-13.35-3.84l2.1-5.84a23.3,23.3,0,0,0,12.57,3.75c6.18,0,10.38-3.58,10.38-8.55,0-4.8-3.41-7.77-9.87-10.38-8.89-3.5-14.39-7.52-14.39-15.1,0-7.25,5.14-12.74,13.17-14.06V71.35h5.42v8.47a23.27,23.27,0,0,1,11.34,3.05l-2.18,5.76a21.09,21.09,0,0,0-11-3c-6.72,0-9.25,4-9.25,7.51,0,4.53,3.23,6.81,10.82,10,9,3.66,13.53,8.2,13.53,16,0,6.89-4.8,13.35-13.79,14.83V143Z"/>
        <path class="cls-5"
              d="M97.38,406.86c-.66-1-3.15-2.65-12.43-1a20.09,20.09,0,0,1-6.24.1l-44.54-6.21s-13.36,0-2.23,7.79l65.69,45.65s8.9,7.79,18.92,0l16.7-17.81s3.34-5.57-5.56-6.68c0,0-11.11-3-27.57-18.72A19.54,19.54,0,0,1,97.38,406.86Z"/>
        <rect class="cls-1" x="969.87" y="540.56" width="48.14" height="2.65"
              transform="translate(370.63 1486.89) rotate(-85.19)"/>
        <rect class="cls-5" x="949.35" y="524.71" width="48.14" height="2.65"
              transform="translate(367.63 1451.93) rotate(-85.19)"/>
        <rect class="cls-5" x="994.19" y="518.73" width="48.14" height="2.65"
              transform="translate(414.67 1491.13) rotate(-85.19)"/>
    </g>
    <g id="Calque_3" data-name="Calque 3">
        <path class="cls-4"
              d="M702.18,72s-23.77,23.76-19.81,48.84c0,0,3.3,73.94,94.4,101.66,0,0,34.32,8.58,59.41-5.94,0,0,16.5-9.24,23.76-25.08Z"/>
        <path class="cls-6"
              d="M720.66,54.19s-48.85,27.73-13.86,88.46c0,0,33,62.71,108.26,64.69,0,0,48.84,2,59.41-40.27,0,0,9.9-39.6-24.43-75.25,0,0-26.06-28.55-51.72-36.9-1.61-.53-3.22-1.08-4.81-1.68C783.88,49.61,747.38,37.71,720.66,54.19Z"/>
        <path class="cls-4"
              d="M732.12,67.08S692,89.86,720.73,139.77c0,0,27.12,51.54,89,53.17,0,0,40.14,1.63,48.82-33.09,0,0,8.14-32.55-20.07-61.85,0,0-21.42-23.46-42.5-30.33-1.33-.43-2.65-.88-4-1.38C784.08,63.31,754.08,53.53,732.12,67.08Z"/>
        <path class="cls-6"
              d="M731.62,69.94s-39.23,22.27-11.13,71c0,0,26.51,50.37,87,52,0,0,39.23,1.59,47.72-32.34,0,0,8-31.81-19.62-60.44,0,0-20.93-22.93-41.54-29.64q-1.95-.63-3.87-1.35C782.4,66.26,753.08,56.7,731.62,69.94Z"/>
        <rect class="cls-4" x="782.1" y="119.59" width="3.4" height="61.89"
              transform="translate(-10.62 227.38) rotate(-16.4)"/>
        <rect class="cls-4" x="750.14" y="110.13" width="3.4" height="61.89"
              transform="translate(-9.25 217.97) rotate(-16.4)"/>
        <rect class="cls-4" x="801.1" y="82.11" width="3.4" height="61.89"
              transform="translate(0.73 231.22) rotate(-16.4)"/>
        <rect class="cls-6" x="782.83" y="117.41" width="3.4" height="61.89"
              transform="translate(-9.97 227.49) rotate(-16.4)"/>
        <rect class="cls-6" x="750.86" y="107.95" width="3.4" height="61.89"
              transform="translate(-8.6 218.09) rotate(-16.4)"/>
        <rect class="cls-6" x="801.83" y="79.93" width="3.4" height="61.89"
              transform="translate(1.38 231.33) rotate(-16.4)"/>
        <rect class="cls-4" x="783.92" y="116.32" width="3.4" height="61.89"
              transform="translate(-9.62 227.76) rotate(-16.4)"/>
        <rect class="cls-4" x="751.95" y="106.86" width="3.4" height="61.89"
              transform="translate(-8.25 218.35) rotate(-16.4)"/>
        <rect class="cls-4" x="802.92" y="78.84" width="3.4" height="61.89"
              transform="translate(1.73 231.6) rotate(-16.4)"/>
        <path class="cls-4"
              d="M438.08,635.48s18.83,4.64,30-4.8c0,0,35.52-23.7,22-77,0,0-6-19.52-20.67-27.57,0,0-9.49-5.39-19.48-4.24Z"/>
        <path class="cls-6"
              d="M423.76,631.68s28.28,15.84,47.82-19.56c0,0,21.12-35-.37-72.78,0,0-13.6-24.71-37.62-17.32,0,0-22.51,6.94-29.87,34.53,0,0-6.31,21.39-2.78,36.56.22.95.43,1.91.61,2.88C402.63,601.82,407.65,623.4,423.76,631.68Z"/>
        <path class="cls-4"
              d="M426.71,622.17s23.23,13,39.3-16.07c0,0,17.35-28.79-.31-59.81,0,0-11.18-20.31-30.92-14.24,0,0-18.5,5.7-24.54,28.38,0,0-5.2,17.58-2.29,30,.18.79.35,1.58.5,2.37C409.34,597.64,413.46,615.37,426.71,622.17Z"/>
        <path class="cls-6"
              d="M428.27,621.56s22.71,12.73,38.4-15.71c0,0,17-28.13-.29-58.45,0,0-10.93-19.85-30.22-13.91,0,0-18.08,5.57-24,27.73,0,0-5.07,17.19-2.24,29.36.18.77.35,1.54.49,2.32C411.29,597.58,415.32,614.92,428.27,621.56Z"/>
        <rect class="cls-4" x="418.16" y="587.11" width="34.52" height="1.9"
              transform="translate(-245.21 856.66) rotate(-75.02)"/>
        <rect class="cls-4" x="405.69" y="573.33" width="34.52" height="1.9"
              transform="translate(-241.15 834.39) rotate(-75.02)"/>
        <rect class="cls-4" x="438.1" y="574.78" width="34.52" height="1.9"
              transform="translate(-218.53 866.77) rotate(-75.02)"/>
        <rect class="cls-6" x="419.14" y="586.29" width="34.52" height="1.9"
              transform="translate(-243.69 856.99) rotate(-75.02)"/>
        <rect class="cls-6" x="406.67" y="572.5" width="34.52" height="1.9"
              transform="translate(-239.62 834.72) rotate(-75.02)"/>
        <rect class="cls-6" x="439.07" y="573.96" width="34.52" height="1.9"
              transform="translate(-217 867.1) rotate(-75.02)"/>
        <rect class="cls-4" x="419.98" y="586.08" width="34.52" height="1.9"
              transform="translate(-242.88 857.65) rotate(-75.02)"/>
        <rect class="cls-4" x="407.5" y="572.3" width="34.52" height="1.9"
              transform="translate(-238.81 835.38) rotate(-75.02)"/>
        <rect class="cls-4" x="439.91" y="573.76" width="34.52" height="1.9"
              transform="translate(-216.19 867.76) rotate(-75.02)"/>
        <path class="cls-4"
              d="M964.34,910.67s16.66,25.77,39.81,27c0,0,66.64,11.23,108.85-64.79,0,0,14.24-29,6.08-54.18,0,0-5.08-16.5-17.84-26Z"/>
        <path class="cls-6"
              d="M952,890.76s15.39,48.92,76.31,29.32c0,0,62.31-17.44,78.51-84.25,0,0,11.13-43.23-24.57-60.76,0,0-33.46-16.43-71.86,7.39,0,0-30.49,17.8-42.86,39.1-.78,1.34-1.58,2.67-2.42,4C960,833.43,942.37,863.74,952,890.76Z"/>
        <path class="cls-4"
              d="M965.67,883s12.65,40.21,62.72,24.11c0,0,51.21-14.34,64.51-69.25,0,0,9.15-35.52-20.18-49.93,0,0-27.5-13.5-59.07,6.07,0,0-25,14.63-35.22,32.13-.64,1.11-1.3,2.2-2,3.27C972.27,835.88,957.78,860.79,965.67,883Z"/>
        <path class="cls-6"
              d="M968.13,884s12.36,39.3,61.29,23.56c0,0,50-14,63-67.67,0,0,8.94-34.72-19.73-48.8,0,0-26.87-13.2-57.72,5.93,0,0-24.48,14.3-34.42,31.41-.63,1.07-1.27,2.14-1.94,3.19C974.57,837.94,960.42,862.29,968.13,884Z"/>
        <rect class="cls-4" x="992.72" y="867.38" width="62.12" height="3.42"
              transform="translate(-79.14 1635.26) rotate(-75.11)"/>
        <rect class="cls-4" x="970.23" y="842.61" width="62.12" height="3.42"
              transform="translate(-71.91 1595.11) rotate(-75.11)"/>
        <rect class="cls-4" x="1028.55" y="845.13" width="62.12" height="3.42"
              transform="translate(-31.01 1653.35) rotate(-75.11)"/>
        <rect class="cls-6" x="994.48" y="865.89" width="62.12" height="3.42"
              transform="translate(-76.39 1635.85) rotate(-75.11)"/>
        <rect class="cls-6" x="971.99" y="841.12" width="62.12" height="3.42"
              transform="translate(-69.16 1595.71) rotate(-75.11)"/>
        <rect class="cls-6" x="1030.31" y="843.64" width="62.12" height="3.42"
              transform="translate(-28.26 1653.94) rotate(-75.11)"/>
        <rect class="cls-4" x="995.98" y="865.52" width="62.12" height="3.42"
              transform="translate(-74.92 1637.03) rotate(-75.11)"/>
        <rect class="cls-4" x="973.49" y="840.75" width="62.12" height="3.42"
              transform="matrix(0.26, -0.97, 0.97, 0.26, -67.69, 1596.89)"/>
        <rect class="cls-4" x="1031.81" y="843.27" width="62.12" height="3.42"
              transform="translate(-26.79 1655.12) rotate(-75.11)"/>
    </g>
</svg>