<svg xmlns="http://www.w3.org/2000/svg" viewBox="0 0 1126 1002">
    <defs>
        <style>
            .cls-1{fill:#fdbe5a;}.cls-2{fill:#e1deff;}.cls-3{fill:#fff;}.cls-4{fill:#c2c2c2;}.cls-5{fill:#1e1452;}.cls-6{fill:#ffd7aa;}.cls-7{fill:none;stroke:#fff;stroke-linecap:round;stroke-linejoin:round;stroke-width:2px;}
        </style>
    </defs>
    <title>visuels-02</title>
    <g id="Calque_1" data-name="Calque 1">
        <path class="cls-1" d="M741.05,686.29a1.5,1.5,0,0,0,0-3,1.5,1.5,0,0,0,0,3Z"/>
    </g>
    <g id="Calque_2" data-name="Calque 2">
        <path class="cls-2"
              d="M720.14,393.16a15.86,15.86,0,0,0,11.6-25.09c-21.52-29.77-87.48-83.95-288.53-151.49,0,0-192.79-64.55-129.95,40.07A75.52,75.52,0,0,0,327,273.32c20.46,18.79,75.53,76.17,4.21,91.63a48.41,48.41,0,0,0-23.58,12.35c-15.07,14.59-27.12,42.35,46.22,72.58,0,0,452.12,165.86,393.24,48.78A79,79,0,0,0,730,476.23C709,456.81,651.9,398.27,720.14,393.16Z"/>
        <path class="cls-3"
              d="M469.57,404.89v17.66s13.25,13.24,12.14,21c0,0,1.11,17.66-6.62,24.28,0,0-13.24,11-23.18,11,0,0-6.62,0-8.82-8.82V459s2.2-4.41,4.41,0c0,0,5.52,12.14,11,1.1,0,0,6.62-15.45-3.31-24.28,0,0-12.14-2.2-12.14-14.34V406Z"/>
        <path class="cls-2"
              d="M106.77,209.94c-9,6-10.13,22.6-2.11,29.4,23.86,20.26,87.32,46,255.21,29,0,0,160.93-16.58,86.62-93.1a53.09,53.09,0,0,0-14.62-10.65c-20.2-9.94-76.35-43.37-27.11-88.06a54.52,54.52,0,0,0,14.39-21.87c7.45-20.54,9.19-52.73-53.51-52,0,0-381.21,24.67-306.59,115A57.26,57.26,0,0,0,77.7,132.6C98.45,142.94,156.42,176.67,106.77,209.94Z"/>
        <rect class="cls-4" x="338.8" y="57.82" width="343.21" height="315.62" rx="12"/>
        <rect class="cls-1" x="440.33" y="244.32" width="173.26" height="104.84" rx="12"/>
        <rect class="cls-3" x="566.14" y="259.77" width="18.76" height="72.84" rx="3.38"/>
        <rect class="cls-3" x="527.51" y="296.19" width="18.76" height="36.42" rx="3.37"/>
        <rect class="cls-3" x="487.78" y="275.22" width="18.76" height="57.39" rx="3.38"/>
        <rect class="cls-1" x="413.29" y="36.3" width="24.28" height="120.29" rx="3.38"
              transform="translate(328.98 521.87) rotate(-90)"/>
        <rect class="cls-5" x="341.03" y="132.55" width="134.61" height="1.53" rx="0.5"/>
        <rect class="cls-5" x="341.03" y="141.72" width="134.61" height="1.53" rx="0.5"/>
        <rect class="cls-3" x="341.03" y="150.2" width="134.61" height="1.53" rx="0.5"/>
        <rect class="cls-3" x="341.03" y="159.38" width="134.61" height="1.53" rx="0.5"/>
        <rect class="cls-3" x="341.03" y="167.11" width="134.61" height="1.53" rx="0.5"/>
        <circle class="cls-5" cx="598.14" cy="145" r="64.01"/>
        <path class="cls-3" d="M534.13,145a64,64,0,0,0,64,64V145Z"/>
        <path class="cls-1" d="M598.14,145V81h-.39a63.81,63.81,0,0,0-63.62,64Z"/>
        <rect class="cls-4" y="400.72" width="267.07" height="360.07" rx="12"/>
        <circle class="cls-5" cx="134.2" cy="509.68" r="77.06"/>
        <rect class="cls-3" x="65.11" y="618.63" width="135.53" height="14.62" rx="5.5"/>
        <rect class="cls-3" x="98.32" y="663.8" width="69.09" height="3.99" rx="1.5"/>
        <rect class="cls-3" x="82.38" y="687.72" width="102.31" height="3.99" rx="1.5"/>
        <rect class="cls-3" x="70.87" y="711.64" width="124.46" height="4.1" rx="1.5"/>
        <rect class="cls-1" x="131.76" y="493.47" width="4.15" height="75.39"/>
        <rect class="cls-3" x="97.67" y="471.43" width="4.15" height="75.39"/>
        <rect class="cls-3" x="166.85" y="456.21" width="4.15" height="75.39"/>
        <path class="cls-2"
              d="M525.37,775.69a15.87,15.87,0,0,0-2.64-27.53c-33.6-14.83-117.89-28.32-325.55,14.83,0,0-199,41.58-92,100.19a75.32,75.32,0,0,0,20.26,7.45c27.15,5.9,103.65,27.64,49.88,77a48.52,48.52,0,0,0-14.12,22.57c-5.65,20.2-2,50.24,76.53,39.33,0,0,474-85,364.11-156.34a79.08,79.08,0,0,0-26.1-10.73C547.88,836.26,469,814.54,525.37,775.69Z"/>
        <path class="cls-3" d="M385.15,810.46v17.66s22.07,14.34,43,0V810.46Z"/>
        <path class="cls-3" d="M256,853.5v17.66s22.07,14.34,43,0V853.5Z"/>
        <path class="cls-5"
              d="M384,827.51a26,26,0,0,0-3.24,20,23.32,23.32,0,0,0,2.18,5.68c2.28,4.36,7.26,15.34,5.54,25.65v10.06a12.22,12.22,0,0,0,8.89,11.77c10.51,3,29,6.29,47.88.31a9.51,9.51,0,0,0,6.67-9c.06-7.79-1.68-20.35-12.48-26.82a12.66,12.66,0,0,1-6-11.7c.54-8.44.5-20.54-3.56-25.13a2.62,2.62,0,0,0-3.12-.62c-5.16,2.49-23.55,10-40.13-.8A1.93,1.93,0,0,0,384,827.51Z"/>
        <path class="cls-5"
              d="M300.27,866.9a1.91,1.91,0,0,1,2.47-.45c4.51,2.75,17.13,12.41,5.16,29,0,0-28.54,37.32-30.88,59.41,0,.11,0,.22,0,.32,0,2.07-4.43,10.9-14.25,11-1.11,0-2.22,0-3.33.08-10.21.59-53.91,2.22-52-13.38a38.4,38.4,0,0,1,20.79-31.91,1.85,1.85,0,0,0,.34-.23c1.53-1.33,14-12.39,13.1-20.66a2,2,0,0,1,0-.35c.23-2.09,2.58-21.31,12.74-27.66a2.8,2.8,0,0,1,2.94,0C262.88,875.35,284.13,886.2,300.27,866.9Z"/>
        <path class="cls-1"
              d="M262.65,415.38S245,558.84,246.1,586.43c0,0-2.21,196.44-11,253.83,0,0,30.9,37.52,87.18,6.62,0,0,5.3-122.7-3.84-197.57a132.11,132.11,0,0,1,4.08-52.22l26.25-92.32s23.18,83.87,23.18,124.7V808.25s32,26.49,78.35-2.21l-7.73-282.51s-12-95.44-17.61-105.66L316.73,399.93Z"/>
        <path class="cls-2" d="M472.33,550v79.46h15.45s6.62,0,6.62-13.24V562.15s0-12.14-11-12.14Z"/>
        <path class="cls-1" d="M494.4,582.24v23.84H499s2,0,2-4V585.88s0-3.64-3.31-3.64Z"/>
        <path class="cls-6" d="M260.43,430.54s70.64,61,167.76.29l-3.27-16.27S352.37,470,262,415.93Z"/>
        <circle class="cls-5" cx="344.32" cy="449.59" r="5.52"/>
        <rect class="cls-5" x="577.17" y="457.31" width="146.78" height="146.78" rx="12"/>
        <circle class="cls-1" cx="593.72" cy="474.97" r="4.41"/>
        <circle class="cls-1" cx="708.5" cy="474.97" r="4.41"/>
        <circle class="cls-1" cx="593.72" cy="589.74" r="4.41"/>
        <path class="cls-1"
              d="M647.07,575.4v-11c-6.32-.11-12.87-2.08-16.69-4.8l2.62-7.31A29.07,29.07,0,0,0,648.71,557c7.74,0,13-4.47,13-10.69,0-6-4.25-9.71-12.33-13-11.12-4.37-18-9.39-18-18.88,0-9,6.43-15.92,16.47-17.56v-11h6.76v10.58a29.13,29.13,0,0,1,14.18,3.82l-2.73,7.2a26.34,26.34,0,0,0-13.74-3.71c-8.4,0-11.56,5-11.56,9.38,0,5.68,4,8.52,13.53,12.45,11.23,4.57,16.9,10.25,16.9,20,0,8.61-6,16.69-17.23,18.54V575.4Z"/>
        <path class="cls-4"
              d="M666.36,869.15s-11.27-26.78-1.71-56.52a74.82,74.82,0,0,1,17.87-29.14c11.69-12,40-45.2,25.08-72.24a47.4,47.4,0,0,1-6.28-23.3c.08-7.69,2.06-16.08,9-21.29a19.18,19.18,0,0,1,3.8-2.2c3.85-1.75,18.24-10.05,16.42-35.88-.17-2.42-.22-4.85-.17-7.28.15-6.63.63-18.57,2.22-24.95,0,0,1.1-25.12-24.51-13.39-1.07.49-2.16.95-3.25,1.4-12.38,5.12-99.5,48.82-60.35,284.79Z"/>
        <path class="cls-7"
              d="M721.69,594.87s-19.41,22.83-18.27,35.38A30.87,30.87,0,0,1,693,655.91a44.58,44.58,0,0,0-6.92,7.61,52.92,52.92,0,0,0-8.77,39.5,65.36,65.36,0,0,1,.87,16.46,92,92,0,0,1-3.72,19.34,66.17,66.17,0,0,1-10.7,20.07c-4.66,6.09-12.53,23.31-10,69a127.2,127.2,0,0,1-.42,19.52l-1.82,18.49"/>
        <path class="cls-1"
              d="M628.35,869.15s9.27-22,1.4-46.52a61.46,61.46,0,0,0-14.7-24c-9.62-9.89-32.87-37.2-20.64-59.46A39,39,0,0,0,599.58,720c-.07-6.33-1.7-13.23-7.38-17.52a16.54,16.54,0,0,0-3.13-1.81c-3.17-1.44-15-8.27-13.51-29.52q.21-3,.13-6c-.12-5.45-.51-15.28-1.82-20.53,0,0-.9-20.67,20.17-11,.88.41,1.78.79,2.67,1.16C606.9,639,675.6,675,643.38,869.15Z"/>
        <path class="cls-7"
              d="M584.2,646.53s16,18.79,15,29.12a25.38,25.38,0,0,0,8.42,21,39.9,39.9,0,0,1,7.09,8.26,43.45,43.45,0,0,1,6.12,30,62.93,62.93,0,0,0-.37,18.33,75,75,0,0,0,2.6,11.78,50.61,50.61,0,0,0,8.81,16.52c4.08,5.33,11.14,21,7.72,64.16l-1.88,23.48"/>
        <path class="cls-5"
              d="M598.64,871.35l19.47,89.74a4.91,4.91,0,0,0,4.81,3.87h56.77a4.92,4.92,0,0,0,4.83-4l16.93-89.74a4.92,4.92,0,0,0-4.83-5.83H603.45A4.92,4.92,0,0,0,598.64,871.35Z"/>
        <path class="cls-3" d="M171.52,81.31a1.5,1.5,0,0,0,0-3,1.5,1.5,0,0,0,0,3Z"/>
        <path class="cls-2" d="M508.67,594.17a1.5,1.5,0,0,0,0-3,1.5,1.5,0,0,0,0,3Z"/>
        <path class="cls-2" d="M643.66,100a63.8,63.8,0,0,0-45.52-19v64h.53Z"/>
        <path class="cls-5"
              d="M315.07,167.63l-61.8,38.62s-16,10.48-21,38.63c0,0-18.21,73.38,6.62,86.07l19.87,13.25L251.06,385s-5.51,27.59,16.56,37.52c0,0,80.06,43.28,159.84-6.22a5.07,5.07,0,0,0,2.38-4.32h0a3.58,3.58,0,0,1,4.53-3.46c8,2.21,24.81,5.3,37.41-3.21a11,11,0,0,0,4.65-10.73L451.91,229.43s-1.1-30.9-26.48-41.94c0,0-35.32-22.07-55.18-23.18Z"/>
        <path class="cls-2" d="M315.07,167.63s-12.14,46.35,0,59.59c0,0,4.42-8.83,21-11l6.62-8.83Z"/>
        <path class="cls-2" d="M372.58,167.63s12.14,46.35,0,59.59c0,0-4.41-8.83-21-11L345,207.35Z"/>
        <polygon class="cls-2"
                 points="335.49 215.63 352.04 215.63 348.18 228.87 352.59 270.81 336.04 269.71 338.25 228.87 335.49 215.63"/>
        <path class="cls-3"
              d="M316,152.88a3.79,3.79,0,0,1,.95,3.5l-1.67,10a4.32,4.32,0,0,0,.3,2.43l17.12,44.76a4.34,4.34,0,0,0,4,2.62h14.17a4.34,4.34,0,0,0,4-2.78L372,168.7a4.17,4.17,0,0,0,.24-2.21l-1.68-10.93a4.33,4.33,0,0,1,1.26-3.77,56.94,56.94,0,0,0,16.6-26.65h0v-7.73l1.1-23.17-12.14-21-17.65,1.1-11,6.62-21,1.11-8.83-4.42-14.34-2.2L298,84.31l1.1,11v8.83S299.07,138.38,316,152.88Z"/>
        <path class="cls-3"
              d="M391.77,95.34s9.08-1,7,7.59a4.63,4.63,0,0,1-1.06,2c-1.68,1.86-5.7,6.77-4.82,10.29,0,0,3.31,11-5.51,7.72Z"/>
        <path class="cls-3"
              d="M296.43,95.34s-9.08-1-7,7.59a4.65,4.65,0,0,0,1.07,2c1.67,1.86,5.69,6.77,4.81,10.29,0,0-3.31,11,5.52,7.72Z"/>
        <path class="cls-5"
              d="M301.87,126.24s.28-2.51.42-6.28a80.41,80.41,0,0,0-1.54-18.31c-1.65-8.45-2.88-25.27,14.42-22.34a24.18,24.18,0,0,1,8,3c5.94,3.47,21.69,10.49,36.15-1.56A16,16,0,0,1,370.88,77c5.16.46,11.15,3.57,14,14.4a37.33,37.33,0,0,1,1.16,10.53c-.15,6.07-.14,21.56,2.35,23.21,0,0,7.77-37.73,1.11-61,0,0-6.66-38.84-46.61-37.73,0,0-46.61-4.44-48.83,46.61C294.1,73,294.66,116.81,301.87,126.24Z"/>
        <path class="cls-5"
              d="M449.16,488.21V465s4.54-6.62,7.23,0l.49,23.17s19.87-1.1,18.76,18.77V633.89s0,14.34-13.24,13.24H443.64s-6.62,1.1-6.62-9.93V494.84S437,488.21,449.16,488.21Z"/>
        <path class="cls-1"
              d="M325,261.08s-17.74,9.39-19.88,24.4c0,0-11.1,42.77,36,74.59,0,0,18.08,10.93,34.94,7,0,0,11-2.37,18-10.14Z"/>
        <path class="cls-6"
              d="M338.63,254.16s-32.75,7.24-23.45,48c0,0,7.82,41.59,50.42,55.93,0,0,27.53,9.71,41-12.54,0,0,12.6-20.87-.73-47.24,0,0-9.86-20.87-23-30.14-.83-.58-1.65-1.18-2.45-1.8C375.51,262.65,356.77,249.44,338.63,254.16Z"/>
        <path class="cls-1"
              d="M342.9,263.52s-26.91,6-19.26,39.49c0,0,6.42,34.17,41.43,46,0,0,22.63,8,33.68-10.31,0,0,10.36-17.14-.6-38.82,0,0-8.1-17.15-18.93-24.77-.68-.48-1.35-1-2-1.48C373.22,270.5,357.81,259.65,342.9,263.52Z"/>
        <path class="cls-6"
              d="M342.12,265.07s-26.3,5.82-18.83,38.59c0,0,6.28,33.39,40.49,44.92,0,0,22.11,7.8,32.91-10.08,0,0,10.13-16.76-.58-37.94,0,0-7.92-16.76-18.5-24.21-.66-.46-1.32-.94-2-1.44C371.74,271.89,356.69,261.28,342.12,265.07Z"/>
        <rect class="cls-1" x="357.01" y="301.66" width="2.2" height="40.07"
              transform="translate(-23.71 28.54) rotate(-4.42)"/>
        <rect class="cls-1" x="338.04" y="291.37" width="2.2" height="40.07"
              transform="translate(-22.98 27.05) rotate(-4.42)"/>
        <rect class="cls-1" x="374.08" y="280.47" width="2.2" height="40.07"
              transform="translate(-22.03 29.79) rotate(-4.42)"/>
        <rect class="cls-6" x="357.76" y="300.37" width="2.2" height="40.07"
              transform="translate(-23.61 28.59) rotate(-4.42)"/>
        <rect class="cls-6" x="338.79" y="290.09" width="2.2" height="40.07"
              transform="translate(-22.88 27.1) rotate(-4.42)"/>
        <rect class="cls-6" x="374.83" y="279.19" width="2.2" height="40.07"
              transform="translate(-21.93 29.84) rotate(-4.42)"/>
        <rect class="cls-1" x="358.6" y="299.83" width="2.2" height="40.07"
              transform="translate(-23.57 28.65) rotate(-4.42)"/>
        <rect class="cls-1" x="339.63" y="289.54" width="2.2" height="40.07"
              transform="translate(-22.83 27.16) rotate(-4.42)"/>
        <rect class="cls-1" x="375.67" y="278.65" width="2.2" height="40.07"
              transform="matrix(1, -0.08, 0.08, 1, -21.89, 29.91)"/>
        <path class="cls-3"
              d="M361.42,352.36a1.6,1.6,0,0,0,1.68,1.6,13,13,0,0,1,8.25,2.38s1.11,1.1,5.52,1.1c0,0,18.76,0,22.07,7.73,0,0,7.73,11,16.09-5.76.23-.46.5-.9.76-1.34,1.61-2.61,8.89-15.42,1-21.78a10.08,10.08,0,0,0-2.28-1.35L399.15,328a41.45,41.45,0,0,0-16.32-3.67H363.64a2.21,2.21,0,0,0-2.22,2.22Z"/>
        <path class="cls-5"
              d="M262.62,328.16a16.64,16.64,0,0,0,11.11,20.44c21.53,6.61,59.58,17.22,75,14.91,0,0,12.14,1.1,16.55-19.86,0,0,7.54-26.91-15.66-32.9a15.64,15.64,0,0,0-1.79-.33L285,301.89a13.15,13.15,0,0,0-2.08-.06h-.08a16.83,16.83,0,0,0-16.15,12.1Z"/>
        <path class="cls-1"
              d="M25.81,141.77s13,26.5,35,30.33c0,0,62.38,18.25,111.29-49.59,0,0,16.88-26.09,11.93-51.06,0,0-3-16.34-14.1-26.88Z"/>
        <path class="cls-6"
              d="M16.24,121.35S25.42,169.82,85.83,158c0,0,61.49-9.63,84.5-71.61,0,0,15.51-40-16.6-60.81,0,0-30.11-19.48-69.48-1.07,0,0-31.13,13.56-45.35,32.51q-1.35,1.79-2.77,3.53C30.39,67.51,10.13,94.47,16.24,121.35Z"/>
        <path class="cls-1"
              d="M30.21,115.49s7.54,39.83,57.18,30.1c0,0,50.54-7.91,69.45-58.85,0,0,12.75-32.9-13.64-50,0,0-24.74-16-57.1-.88,0,0-25.58,11.14-37.28,26.72-.73,1-1.49,2-2.27,2.89C41.83,71.23,25.18,93.39,30.21,115.49Z"/>
        <path class="cls-6"
              d="M32.44,116.71s7.37,38.93,55.89,29.42c0,0,49.39-7.73,67.87-57.51,0,0,12.46-32.16-13.33-48.84,0,0-24.18-15.64-55.8-.86,0,0-25,10.89-36.43,26.11-.72,1-1.46,1.91-2.22,2.83C43.8,73.46,27.53,95.12,32.44,116.71Z"/>
        <rect class="cls-1" x="63.43" y="107.93" width="60.41" height="3.32"
              transform="translate(-32.88 178.65) rotate(-78.12)"/>
        <rect class="cls-1" x="40.33" y="85.02" width="60.41" height="3.32"
              transform="translate(-28.81 137.86) rotate(-78.12)"/>
        <rect class="cls-1" x="97.1" y="84.5" width="60.41" height="3.32"
              transform="translate(16.78 192.99) rotate(-78.12)"/>
        <rect class="cls-6" x="65.07" y="106.39" width="60.41" height="3.32"
              transform="translate(-30.08 179.03) rotate(-78.12)"/>
        <rect class="cls-6" x="41.97" y="83.48" width="60.41" height="3.32"
              transform="translate(-26.01 138.23) rotate(-78.12)"/>
        <rect class="cls-6" x="98.73" y="82.96" width="60.41" height="3.32"
              transform="translate(19.58 193.37) rotate(-78.12)"/>
        <rect class="cls-1" x="66.51" y="105.96" width="60.41" height="3.32"
              transform="translate(-28.52 180.09) rotate(-78.12)"/>
        <rect class="cls-1" x="43.41" y="83.05" width="60.41" height="3.32"
              transform="translate(-24.44 139.3) rotate(-78.12)"/>
        <rect class="cls-1" x="100.17" y="82.53" width="60.41" height="3.32"
              transform="translate(21.14 194.43) rotate(-78.12)"/>
        <path class="cls-1"
              d="M485.14,869s-5.12,13.44.82,22.54c0,0,14.24,28.3,54.67,23.17,0,0,14.91-2.66,22.16-12.73,0,0,4.83-6.5,4.89-14Z"/>
        <path class="cls-6"
              d="M489.23,858.77s-14.22,19.38,10.08,37c0,0,23.88,18.71,53.62,6.3,0,0,19.42-7.78,16.14-26.13,0,0-3.07-17.2-22.72-25.11,0,0-15.18-6.59-26.66-5.35-.72.07-1.45.14-2.17.18C513.12,845.9,496.78,847.65,489.23,858.77Z"/>
        <path class="cls-1"
              d="M496,861.79s-11.69,15.93,8.28,30.39c0,0,19.62,15.37,44.06,5.18,0,0,16-6.4,13.27-21.48,0,0-2.52-14.14-18.67-20.64,0,0-12.48-5.41-21.91-4.4-.6.07-1.19.12-1.79.16C515.6,851.22,502.17,852.65,496,861.79Z"/>
        <path class="cls-6"
              d="M496.27,863s-11.42,15.56,8.1,29.69c0,0,19.18,15,43.06,5.06,0,0,15.6-6.25,13-21,0,0-2.47-13.81-18.25-20.17,0,0-12.19-5.28-21.41-4.29l-1.75.15C515.46,852.66,502.33,854.07,496.27,863Z"/>
        <rect class="cls-1" x="504.44" y="881.62" width="29.44" height="1.62"
              transform="translate(-381.49 395.56) rotate(-31.14)"/>
        <rect class="cls-1" x="504.92" y="865.77" width="29.44" height="1.62"
              transform="translate(-373.23 393.53) rotate(-31.14)"/>
        <rect class="cls-1" x="523.98" y="885.83" width="29.44" height="1.62"
              transform="translate(-380.85 406.27) rotate(-31.14)"/>
        <rect class="cls-6" x="505.53" y="881.69" width="29.44" height="1.62"
              transform="translate(-381.37 396.14) rotate(-31.14)"/>
        <rect class="cls-6" x="506.01" y="865.84" width="29.44" height="1.62"
              transform="matrix(0.86, -0.52, 0.52, 0.86, -373.11, 394.1)"/>
        <rect class="cls-6" x="525.07" y="885.9" width="29.44" height="1.62"
              transform="translate(-380.73 406.85) rotate(-31.14)"/>
        <rect class="cls-1" x="506.16" y="882.06" width="29.44" height="1.62"
              transform="translate(-381.47 396.52) rotate(-31.14)"/>
        <rect class="cls-1" x="506.64" y="866.21" width="29.44" height="1.62"
              transform="translate(-373.21 394.48) rotate(-31.14)"/>
        <rect class="cls-1" x="525.7" y="886.27" width="29.44" height="1.62"
              transform="translate(-380.83 407.23) rotate(-31.14)"/>
    </g>
</svg>