<svg id="Calque_1" data-name="Calque 1" xmlns="http://www.w3.org/2000/svg" viewBox="0 0 333 331"><defs><style>.cls-1{fill:#fdbe5a;}.cls-2{fill:#1e1452;}.cls-3{fill:none;stroke:#1e1452;stroke-miterlimit:10;stroke-width:5px;}</style></defs><title>pictos</title><path class="cls-1" d="M111.37,146.85V250.54h43.27V178.33c-11.73-2.56-19.41-17.8-40.27-30A30.15,30.15,0,0,0,111.37,146.85Z"/><path class="cls-1" d="M53.07,250.54H96.34V144.13c-15.33.4-31.85,8.68-43.27,15.78Z"/><rect class="cls-2" x="274.2" y="140.59" width="11.94" height="58.6" rx="3.5" transform="translate(-38.07 247.87) rotate(-45)"/><path class="cls-2" d="M228.27,64.22a51,51,0,1,0,51,51A51,51,0,0,0,228.27,64.22Zm0,93.5a42.5,42.5,0,1,1,42.5-42.5A42.5,42.5,0,0,1,228.27,157.72Z"/><path class="cls-2" d="M218.27,110.22a12,12,0,1,0,12,12A12,12,0,0,0,218.27,110.22Zm0,20a8,8,0,1,1,8-8A8,8,0,0,1,218.27,130.22Z"/><path class="cls-2" d="M160.27,142.22a12,12,0,1,0,12,12A12,12,0,0,0,160.27,142.22Zm0,20a8,8,0,1,1,8-8A8,8,0,0,1,160.27,162.22Z"/><path class="cls-2" d="M104.27,113.22a12,12,0,1,0,12,12A12,12,0,0,0,104.27,113.22Zm0,20a8,8,0,1,1,8-8A8,8,0,0,1,104.27,133.22Z"/><path class="cls-2" d="M61.27,123.22a12,12,0,1,0,12,12A12,12,0,0,0,61.27,123.22Zm0,20a8,8,0,1,1,8-8A8,8,0,0,1,61.27,143.22Z"/><line class="cls-3" x1="71.77" y1="134.72" x2="94.77" y2="128.72"/><line class="cls-3" x1="170.77" y1="153.72" x2="208.27" y2="127.22"/><line class="cls-3" x1="114.77" y1="128.72" x2="150.77" y2="155.72"/><path class="cls-1" d="M168.27,250.22h44v-104s-9,1-24,16c0,0-16,13-20,13Z"/></svg>