<svg xmlns="http://www.w3.org/2000/svg" viewBox="0 0 333 331"><defs><style>.cls-1{fill:#1e1452;}.cls-2{fill:#fdbe5a;}</style></defs><title>pictoso</title><g id="Calque_1" data-name="Calque 1"><path class="cls-1" d="M126.1,189.87a4.51,4.51,0,0,0-9,0v4.5a4.51,4.51,0,0,0,9,0Z"/><path class="cls-1" d="M121.6,207.85a4.5,4.5,0,0,0-4.51,4.5v4.5a4.51,4.51,0,0,0,9,0v-4.5A4.5,4.5,0,0,0,121.6,207.85Z"/><path class="cls-2" d="M121.6,64a42.68,42.68,0,0,0-42.81,42.46v19.83c0,32.91,21.53,50.12,42.81,50.12s42.81-17.21,42.81-50.12V106.43A42.7,42.7,0,0,0,121.6,64Zm33.79,57.25v5c0,27.42-16.9,41.13-33.79,41.13s-33.8-13.71-33.8-41.13V107.14c7.15,5.48,14.33,7.58,21.39,6.27a28.62,28.62,0,0,0,16-10c5,8.52,14.2,17.93,28.06,17.93C153.93,121.31,154.66,121.27,155.39,121.22Z"/><path class="cls-1" d="M208.11,105.57a4.5,4.5,0,1,0,0-9h-2.56a4.5,4.5,0,1,0,0,9h2.57Z"/><path class="cls-1" d="M228.38,105.57a4.5,4.5,0,1,0,0-9h-2.56a4.5,4.5,0,1,0,0,9h2.56Z"/><path class="cls-1" d="M159.89,167.33a37.16,37.16,0,0,1,13.53,4.1,51.34,51.34,0,0,1,.94-9.5,45.57,45.57,0,0,0-8.83-2.8A53.49,53.49,0,0,1,159.89,167.33Z"/><path class="cls-1" d="M176.45,127.38a9,9,0,0,0,3.71,16.9l1.19.05a52.26,52.26,0,0,1,7.39-9.18c-2.25.16-4.17.21-5.56.21-1.57,0-2.47-.05-2.47-.05,6.59-3.53,12.9-11.7,17-17.92a26.31,26.31,0,1,1,37.06,3.32l-.36.3a50.94,50.94,0,0,1,10,2.83,35.28,35.28,0,1,0-57.58-6.61A37.66,37.66,0,0,1,176.45,127.38Z"/><path class="cls-2" d="M225.24,129.17a42.69,42.69,0,0,0-42.81,42.46v19.83A64.73,64.73,0,0,0,184,205.81a54.25,54.25,0,0,1,6.74-.46h2.35a56,56,0,0,1-1.66-13.89V175.25a71.26,71.26,0,0,0,45.31,14.62c6.45,0,12.71-.56,18.74-1.09,1.18-.11,2.37-.2,3.55-.3v3a56.51,56.51,0,0,1-1.65,13.89h2.34a54.25,54.25,0,0,1,6.74.46,64.73,64.73,0,0,0,1.58-14.35V171.63A42.68,42.68,0,0,0,225.24,129.17Z"/><path class="cls-1" d="M33.44,268H134.5l1.83-14.78a53.29,53.29,0,0,1,7.55-21.75H48.55l1.51-31.36a3.93,3.93,0,0,0,.12-.67,36,36,0,0,1,32.14-32.11,52.89,52.89,0,0,1-5.54-8.2,44.92,44.92,0,0,0-35.36,39l-2,33.4c-.27,0-5.76,0-6.19.08-3,.59-4.26,2.37-4.26,4.35V263.5A4.51,4.51,0,0,0,33.44,268Z"/></g><g id="Calque_2" data-name="Calque 2"><path class="cls-1" d="M252.74,213.56H188.15A42.56,42.56,0,0,0,145.58,251L140,295.9a4.22,4.22,0,0,0,8.16,2.15s5.72-45.6,5.75-45.81A34.13,34.13,0,0,1,188.15,222h64.59A34.12,34.12,0,0,1,287,252.24c0,.21,5.75,45.81,5.75,45.81a4.22,4.22,0,0,0,8.16-2.15L295.31,251A42.56,42.56,0,0,0,252.74,213.56Z"/></g></svg>