<svg xmlns="http://www.w3.org/2000/svg" viewBox="0 0 1415 715">
    <defs>
        <style>
            .cls-1{fill:#fdbe5a;}.cls-2{fill:#ffd7aa;}.cls-3{fill:#e1deff;}.cls-4{fill:none;stroke:#fff;stroke-linecap:round;stroke-linejoin:round;stroke-width:2px;}.cls-5{fill:#201452;}.cls-6{fill:#c2c2c2;}.cls-7{fill:#fff;}.cls-8{fill:#ffbc48;}
        </style>
    </defs>
    <title>visuels4</title>
    <g id="Calque_3" data-name="Calque 3">
        <path class="cls-1"
              d="M892.4,81s-.44,30.56,18.05,44.42c0,0,49,46.13,126,6.47,0,0,27.83-16.17,35-41.54,0,0,4.9-16.49-.4-31.43Z"/>
        <path class="cls-2"
              d="M893.16,57.64s-14.29,49.06,47,66.49c0,0,61.29,20,111.64-26.43,0,0,33.12-29.68,13.23-63.93,0,0-18.66-32.12-63.65-33.61,0,0-35.1-2.1-57.13,8.72-1.39.68-2.79,1.34-4.2,2C931.5,14.57,900.14,30,893.16,57.64Z"/>
        <path class="cls-1"
              d="M908.8,58.78s-11.74,40.32,38.66,54.65c0,0,50.37,16.42,91.74-21.73,0,0,27.22-24.39,10.88-52.54,0,0-15.33-26.39-52.31-27.62,0,0-28.85-1.72-46.95,7.17-1.14.56-2.29,1.1-3.46,1.61C940.31,23.39,914.54,36,908.8,58.78Z"/>
        <path class="cls-2"
              d="M910.29,61s-11.47,39.4,37.78,53.4c0,0,49.23,16.06,89.66-21.22,0,0,26.6-23.84,10.63-51.35,0,0-15-25.8-51.12-27,0,0-28.19-1.69-45.89,7-1.11.54-2.23,1.07-3.37,1.57C941.09,26.37,915.9,38.72,910.29,61Z"/>
        <rect class="cls-1" x="941.89" y="73.02" width="49.75" height="2.74"
              transform="translate(268.9 747.55) rotate(-48.37)"/>
        <rect class="cls-1" x="934.73" y="47.19" width="49.75" height="2.74"
              transform="translate(285.8 733.54) rotate(-48.37)"/>
        <rect class="cls-1" x="975.53" y="70.02" width="49.75" height="2.74"
              transform="translate(282.44 771.69) rotate(-48.37)"/>
        <rect class="cls-2" x="941.46" y="71.48" width="49.75" height="2.74"
              transform="translate(269.91 746.72) rotate(-48.37)"/>
        <rect class="cls-2" x="934.31" y="45.65" width="49.75" height="2.74"
              transform="translate(286.81 732.7) rotate(-48.37)"/>
        <rect class="cls-2" x="975.11" y="68.48" width="49.75" height="2.74"
              transform="translate(283.44 770.86) rotate(-48.37)"/>
        <rect class="cls-1" x="941.56" y="69.54" width="49.75" height="2.74"
              transform="translate(271.39 746.14) rotate(-48.37)"/>
        <rect class="cls-1" x="934.41" y="43.71" width="49.75" height="2.74"
              transform="translate(288.29 732.13) rotate(-48.37)"/>
        <rect class="cls-1" x="975.21" y="66.54" width="49.75" height="2.74"
              transform="translate(284.93 770.28) rotate(-48.37)"/>
    </g>
    <g id="Calque_4" data-name="Calque 4">
        <path class="cls-3"
              d="M139,497s-14-34-13-78.71c.36-16,13.63-29,24.8-40.43,16.23-16.68,55.44-62.73,34.8-100.26-5.47-10-8.84-21-8.71-32.33.11-10.68,2.87-22.32,12.45-29.56a28,28,0,0,1,5.28-3.05c5.33-2.43,25.3-13.94,22.78-49.79-.23-3.36-.3-6.74-.23-10.11.21-9.2.87-25.77,3.08-34.62,0,0,1.52-34.87-34-18.58-1.49.68-3,1.32-4.51,1.94C164.55,108.61,43.63,169.24,98,496.74Z"/>
        <path class="cls-4"
              d="M208.16,121.08s-26.93,31.69-25.35,49.11a42.84,42.84,0,0,1-14.52,35.61,61.64,61.64,0,0,0-9.6,10.56,73.39,73.39,0,0,0-12.18,54.82A90.54,90.54,0,0,1,147.72,294a127.33,127.33,0,0,1-5.16,26.85,91.58,91.58,0,0,1-14.85,27.85c-6.47,8.46-17.39,32.36-13.86,95.72a176.19,176.19,0,0,1-.59,27.08l-2.52,25.66"/>
        <path class="cls-1"
              d="M75.62,496.74s12.87-30.58,1.95-64.56a85.47,85.47,0,0,0-20.4-33.27c-13.36-13.73-45.63-51.63-28.65-82.51a54.19,54.19,0,0,0,7.18-26.61c-.1-8.78-2.36-18.37-10.25-24.32A22.58,22.58,0,0,0,21.11,263c-4.4-2-20.83-11.48-18.75-41,.19-2.77.24-5.54.18-8.32-.16-7.57-.71-21.2-2.53-28.49,0,0-1.25-28.69,28-15.29,1.22.56,2.47,1.09,3.71,1.6,14.14,5.85,109.48,55.75,64.76,325.26Z"/>
        <path class="cls-4"
              d="M14.35,187.78s22.16,26.07,20.86,40.41A35.21,35.21,0,0,0,46.9,257.26a55.74,55.74,0,0,1,9.83,11.47,60.21,60.21,0,0,1,8.5,41.66,86.8,86.8,0,0,0-.51,25.44,103.39,103.39,0,0,0,3.61,16.35c2.41,7.78,5.89,14.65,12.22,22.92,5.66,7.4,15.46,29.16,10.71,89l-2.61,32.59"/>
        <path class="cls-5"
              d="M34.39,499.79l27,124.54a6.83,6.83,0,0,0,6.67,5.38h78.79a6.84,6.84,0,0,0,6.71-5.56l23.5-124.54a6.83,6.83,0,0,0-6.71-8.09H41.06A6.83,6.83,0,0,0,34.39,499.79Z"/>
        <path class="cls-3"
              d="M1099.16,533c21.87-5.22,21.16-20.33-1.2-26.77-66.54-19.17-237.08-44.55-668.93-33.86,0,0-413.92,10.44-203.68,82.41a270,270,0,0,0,40.34,10.14c54.69,9.66,208,41.79,90.35,81.13-14.59,4.88-26.06,11.55-32.39,19.54-14.66,18.52-11.88,47.84,150.69,49,0,0,983.76-11.43,769.6-96-15.49-6.12-33.15-10.81-51.79-14.14C1136,594.37,977.85,561.91,1099.16,533Z"/>
        <path class="cls-3"
              d="M1300.52,214.27c7.61-6.11,9.85-23.36,4-30.55-17.44-21.4-66-49.15-201.22-33.85,0,0-129.63,14.9-76.38,95.54a41.26,41.26,0,0,0,10.82,11.29c15.33,10.63,57.48,46.21,14.71,91.95a64.78,64.78,0,0,0-13.19,22.53c-7.55,21.26-11.47,54.7,38.59,54.84,0,0,305.91-20.11,253.5-115.15a46.25,46.25,0,0,0-13.7-15.77C1301.9,284.05,1258.32,248.14,1300.52,214.27Z"/>
        <path class="cls-6"
              d="M1165.71,320.3a180.25,180.25,0,0,1-82.91,54.5c-29,9.17-69.92,29.37-89.95,72.83,0,0-61.28,132.24,106.06,157.71,0,0,194.44,30.33,271-83.71,0,0,39-56.25,39.94-133.9.76-65.23-29.68-127.15-81.51-164.7-39.85-28.87-92.3-39.43-132.84,49.9C1195.54,272.93,1190.18,291.7,1165.71,320.3Z"/>
        <path class="cls-7"
              d="M1210.41,359.55A97.3,97.3,0,0,1,1165.67,389c-15.66,4.94-37.72,15.84-48.53,39.29,0,0-33.07,71.35,57.23,85.1,0,0,104.91,16.36,146.24-45.17,0,0,21.06-30.35,21.55-72.25.42-35.2-16-68.6-44-88.87-21.51-15.58-49.81-21.27-71.68,26.93C1226.51,334,1223.61,344.12,1210.41,359.55Z"/>
        <path class="cls-6"
              d="M731.58,311.34A12.38,12.38,0,1,0,744,323.69,12.37,12.37,0,0,0,731.58,311.34Zm0,19.59a7.22,7.22,0,1,1,7.2-7.23A7.21,7.21,0,0,1,731.62,330.93Z"/>
        <path class="cls-6"
              d="M667.14,303.52c9.1-1.91,35.22-6.31,56,.76a4.63,4.63,0,0,1,3.12,4.39v10.05a31.79,31.79,0,0,1-9.08,22.52c-2.44,2.44-5.06,4.27-7.42,4.27H680.34A21.49,21.49,0,0,1,668.66,338a22.64,22.64,0,0,1-4.82-14.24V307.59A4.15,4.15,0,0,1,667.14,303.52Z"/>
        <polygon class="cls-1" points="845.33 258.31 953.74 258.31 926.64 349.05 815.87 349.05 845.33 258.31"/>
        <polygon class="cls-2"
                 points="838.26 258.31 845.33 258.31 815.87 349.05 759.3 349.05 759.3 330.19 814.69 330.19 838.26 258.31"/>
        <rect class="cls-5" x="795.83" y="360.83" width="21.21" height="247.48"/>
        <path class="cls-5"
              d="M810,598.21,861.42,620a3.25,3.25,0,0,1-.5,6.16,248.46,248.46,0,0,1-111.57.11A3.26,3.26,0,0,1,749,620l58.62-21.85A3.24,3.24,0,0,1,810,598.21Z"/>
        <path class="cls-5" d="M716.87,363.19s49.5,37.71,81.32,106.06v-20s-33-62.46-69.53-87.21Z"/>
        <path class="cls-5" d="M897.18,363.19s-49.5,37.71-81.31,106.06v-20s33-62.46,69.52-87.21Z"/>
        <rect class="cls-5" x="650.29" y="344.93" width="318.77" height="20.03" rx="8.5"/>
        <polygon class="cls-7"
                 points="994.99 609.49 989.1 620.09 999.7 648.38 1018.56 642.49 1022.09 621.27 994.99 609.49"/>
        <polygon class="cls-7"
                 points="973.78 535.25 957.28 547.03 960.82 567.06 973.78 571.78 980.79 568.62 1000.88 554.1 973.78 535.25"/>
        <path class="cls-5"
              d="M991.45,615.38s0,23.57,18.86,24.75c0,0,4.71,1.18,8.25-1.18,0,0,7.07,23.57-18.86,24.75,0,0-113.13,22.39-80.13-13C919.57,650.73,949,623.63,991.45,615.38Z"/>
        <path class="cls-5"
              d="M962,543.5s-4.71,9.42,7.07,20c0,0,7.48,4.59,11.79,3.53,0,0,.33,30.55-26.78,23.5,0,0-123.12-14.94-79.21-37C874.86,553.58,915.86,537.76,962,543.5Z"/>
        <path class="cls-2"
              d="M1209.35,395.62a10.67,10.67,0,0,0-.21-15.91c-9.06-7.91-23.18-17.85-31.49-11.8l-46.87,25.77-.52.31c-2.86,1.79-28.82,18.18-42.17,29.3L973.35,519.85a10.67,10.67,0,0,0-3.66,9.88c1.34,8.17,5.56,22.56,18.82,32.22a10.71,10.71,0,0,0,12,.42l86.73-54.9a10.55,10.55,0,0,0,1.51-1.15Z"/>
        <path class="cls-1"
              d="M1259.48,445.93c-7.69,6.17-22.77,15.81-48.38,23.19-.28.08-.57.15-.86.21-4.54.89-45.56,9.43-65.59,30.56,0,0-87.64,98.73-109.24,130.39a10,10,0,0,1-11.77,3.69c-11.85-4.53-32.85-15.05-32.53-32.72a9.74,9.74,0,0,1,2.17-5.84L1097.11,465a7.68,7.68,0,0,0,.7-1c2.21-3.56,17.14-26,53.91-45.47L1219,382.85a10,10,0,0,1,13.12,3.47l29.51,46.5A10,10,0,0,1,1259.48,445.93Z"/>
        <path class="cls-1"
              d="M1173.94,281.57c-4.74-1.08-10.25,5.36-12.32,14.37s.1,17.19,4.84,18.26,10.24-5.37,12.31-14.38S1178.67,282.64,1173.94,281.57ZM1168,307.4c-2.76-.63-4-5.39-2.81-10.65s4.42-9,7.18-8.39,4,5.4,2.82,10.65S1170.78,308,1168,307.4Z"/>
        <path class="cls-1"
              d="M1130.9,268.44c6.63-.4,25.44-.51,38.09,9.54a4.71,4.71,0,0,1,1.16,4.7l-2.21,9.62c-1.86,8-5.8,15.39-11.17,20.14-2.21,2-4.4,3.31-6,2.93l-20.11-4.63s-4.25-2.19-6.33-9a28.4,28.4,0,0,1-.14-14.41l3.57-15.52C1128.18,269.94,1129.5,268.52,1130.9,268.44Z"/>
        <path class="cls-7"
              d="M1211.87,303.35l-4.1-1.41a4.86,4.86,0,0,1-3-2.68c-1.09-2.58-4.24-6.84-13-6.05,0,0-13.57,0-14.7-1.13,0,0-7.91-5.65-7.91,2.26l-1,9.67a6.24,6.24,0,0,0,3.65,6.41,13.8,13.8,0,0,0,5.23.88s-1.83,10.65,9,13.56l30.52,5.65Z"/>
        <path class="cls-5"
              d="M1355.12,279.69c-.47-2.75-.85-5.52-1.16-8.29-8.63-76.32-59.64-66.12-59.64-66.12l-51.27,5.3-43.6,18.86c-7.07,2.35-24.75-3.54-24.75-3.54l-70.11-31.23c-16.5,0-16.5,38.89-16.5,38.89l86,37.71c15.32,4.72,31.82,1.18,31.82,1.18l23.57-4.71-8.25,7.07c-7.07,4.71-4.71,23.57-4.71,23.57l-.22,1.84-1.22-.14a7.73,7.73,0,0,0-7.42,3.53,25,25,0,0,0-4.1,11.27c-.78,6.51,2.64,13.55,8.59,15.66a21.79,21.79,0,0,1-8.12,10.79c-7.46,5.22-17,13.61-17,13.61l-.43.32a9.7,9.7,0,0,0,2.45,16.8c16.71,6.6,29.15,27.62,34.28,37.61a64.32,64.32,0,0,1,3.49,8.46c10.68,30.65,61.55,24,61.55,24,17.76-.85,24.6-31.42,27-48.63a108.61,108.61,0,0,0,.91-16.23c0-.51,0-1,0-1.51.34-10.28,6.93-19.16,16.28-23.47C1362.6,338.5,1357.36,293,1355.12,279.69Z"/>
        <path class="cls-7"
              d="M1227.66,146c-1.85,17.92-6.21,72.51,25.41,61.64l1.18,1.17a30.66,30.66,0,0,1-2.09,15.89c-4.9,12.69-11.42,36.17,10.34,30.07,0,0,30.22-7.55,38.25-28.58a8.49,8.49,0,0,0-4-10.5c-7-3.62-17.87-11.37-19.78-25a29.07,29.07,0,0,1-.1-6.46l2.17-26.06s1.1-37.34-45.48-19.78A9.17,9.17,0,0,0,1227.66,146Z"/>
        <path class="cls-8"
              d="M1329.87,152c.7,6.52,3.58,18.4,15.14,23.65a35.21,35.21,0,0,1,9.23,5.92c7.6,6.94,18.64,20.52,5.57,32.48a27.86,27.86,0,0,1-13.41,6.63c-17.9,3.6-72.11,10.46-71.12-38.68a38.12,38.12,0,0,1,.72-6.39c2-10.7,6.94-51.13-38.15-35.58a12.06,12.06,0,0,0-7.93,9.36c-3,17.42-9.05,61.77,21.14,57.38a3.28,3.28,0,0,1,3.2,1.42h0a5.39,5.39,0,0,1,.82,3.85l-.57,3.43a10.43,10.43,0,0,1-.54,2.26c-2.75,6.94-35.13,15-42.72-3.19a19.71,19.71,0,0,1,.93-16.68,37.93,37.93,0,0,1,2.07-3.46,46.58,46.58,0,0,0,8-21.28,59.67,59.67,0,0,0,.29-6.86,105.46,105.46,0,0,1,.6-14.11,82.26,82.26,0,0,1,2.72-13.27,49.91,49.91,0,0,1,34-33.73c19.14-5.57,51.36-8.45,65.6,28.05A72.54,72.54,0,0,1,1329.87,152Z"/>
        <path class="cls-7"
              d="M1097.64,197.56a64.33,64.33,0,0,0-10.69-4.62,11.68,11.68,0,0,1-6.06-4.19c-2-2.67-4.89-5.86-6.94-5.86a20.85,20.85,0,0,1-11.83-6.73,2,2,0,0,0-3.08,0c-1,1.29-1.33,3.47,1.94,6.75l4.22,5.27a.41.41,0,0,1-.3.66l-20.77.94a8.69,8.69,0,0,0-7.06,4.2c-3.86,6.39-9.48,18.95.25,26.27a7,7,0,0,0,5.3,1.27,34.58,34.58,0,0,0,10.11-3.26,8.17,8.17,0,0,1,5.9,0s5.72,1.64,10.36.14a12.79,12.79,0,0,1,7.72.08,64.84,64.84,0,0,1,12,4.95C1096.34,227.67,1097.64,197.56,1097.64,197.56Z"/>
        <polygon class="cls-7"
                 points="644.99 584.74 659.13 597.7 676.81 605.95 695.66 576.49 689.77 575.31 675.63 558.82 644.99 584.74"/>
        <path class="cls-5"
              d="M658.59,600c.1,5.8,4.06,18.58,11.3,27.47a2.79,2.79,0,0,0,3.77.59l85-57.89a3.08,3.08,0,0,0,.55-4.55c-2.21-2.46-6.82-5.58-16-5.61a40.85,40.85,0,0,0-13.1,2.21l-42.61,13.67a2.87,2.87,0,0,0-1.53,1.24c-1.94,3.16-13.14,16.66-25.21,19.91A3,3,0,0,0,658.59,600Z"/>
        <path class="cls-1"
              d="M654.45,219.58s9.28,14.34,22.17,15c0,0,37.09,6.25,60.59-36.07,0,0,7.93-16.14,3.39-30.16,0,0-2.84-9.18-9.94-14.48Z"/>
        <path class="cls-2"
              d="M647.57,208.49s8.56,27.24,42.48,16.33c0,0,34.69-9.72,43.7-46.9,0,0,6.19-24.07-13.67-33.83,0,0-18.63-9.14-40,4.11,0,0-17,9.91-23.86,21.77q-.65,1.13-1.35,2.22C652,176.58,642.22,193.45,647.57,208.49Z"/>
        <path class="cls-1"
              d="M655.19,204.17s7,22.38,34.92,13.42c0,0,28.5-8,35.91-38.55,0,0,5.09-19.78-11.24-27.79,0,0-15.31-7.52-32.87,3.37,0,0-13.95,8.15-19.61,17.89-.36.62-.73,1.22-1.11,1.82C658.87,178,650.8,191.81,655.19,204.17Z"/>
        <path class="cls-2"
              d="M656.56,204.72s6.88,21.88,34.12,13.11c0,0,27.86-7.8,35.1-37.67,0,0,5-19.32-11-27.16,0,0-15-7.35-32.13,3.3,0,0-13.63,8-19.16,17.48-.35.6-.71,1.2-1.09,1.78C660.15,179.09,652.27,192.64,656.56,204.72Z"/>
        <rect class="cls-1" x="670.25" y="195.48" width="34.58" height="1.9"
              transform="translate(321.09 810.44) rotate(-75.11)"/>
        <rect class="cls-1" x="657.73" y="181.69" width="34.58" height="1.9"
              transform="translate(325.11 788.09) rotate(-75.11)"/>
        <rect class="cls-1" x="690.2" y="183.09" width="34.58" height="1.9"
              transform="translate(347.88 820.51) rotate(-75.11)"/>
        <rect class="cls-2" x="671.23" y="194.65" width="34.58" height="1.9"
              transform="translate(322.62 810.77) rotate(-75.11)"/>
        <rect class="cls-2" x="658.71" y="180.86" width="34.58" height="1.9"
              transform="matrix(0.26, -0.97, 0.97, 0.26, 326.64, 788.42)"/>
        <rect class="cls-2" x="691.18" y="182.26" width="34.58" height="1.9"
              transform="translate(349.41 820.84) rotate(-75.11)"/>
        <rect class="cls-1" x="672.07" y="194.44" width="34.58" height="1.9"
              transform="translate(323.43 811.43) rotate(-75.11)"/>
        <rect class="cls-1" x="659.55" y="180.65" width="34.58" height="1.9"
              transform="translate(327.46 789.08) rotate(-75.11)"/>
        <rect class="cls-1" x="692.01" y="182.06" width="34.58" height="1.9"
              transform="translate(350.23 821.5) rotate(-75.11)"/>
        <path class="cls-5"
              d="M1369.54,566.17s-7.8-18.52-1.19-39.09a51.74,51.74,0,0,1,12.36-20.16c8.09-8.31,27.63-31.26,17.35-50a32.81,32.81,0,0,1-4.35-16.11c.06-5.32,1.43-11.13,6.21-14.73a13.74,13.74,0,0,1,2.63-1.52c2.66-1.21,12.61-6.95,11.36-24.82-.12-1.68-.15-3.36-.12-5,.1-4.58.44-12.84,1.54-17.25,0,0,.75-17.38-17-9.26-.74.33-1.49.65-2.24,1-8.57,3.54-66.31,33.77-39.23,197Z"/>
        <path class="cls-2"
              d="M1331.15,566.33a130,130,0,0,0,7.87-47.67c-.22-9.69-8.25-17.54-15-24.48-9.83-10.1-33.57-38-21.08-60.73a39.75,39.75,0,0,0,5.28-19.58c-.07-6.46-1.74-13.52-7.54-17.9a17.21,17.21,0,0,0-3.19-1.85c-3.24-1.46-15.33-8.44-13.81-30.15.15-2,.19-4.08.14-6.13-.12-5.56-.52-15.6-1.86-21,0,0-.92-21.12,20.6-11.26.9.42,1.82.8,2.73,1.18,10.41,4.3,83.64,41,50.73,239.37Z"/>
        <path class="cls-4"
              d="M1289.26,338.66s16.31,19.19,15.35,29.74a26,26,0,0,0,8.8,21.57,37.15,37.15,0,0,1,5.81,6.4,44.43,44.43,0,0,1,7.38,33.19,54.87,54.87,0,0,0-.73,13.84,76.83,76.83,0,0,0,3.12,16.25,55.52,55.52,0,0,0,9,16.87c3.91,5.12,10.53,19.6,8.39,58a106.91,106.91,0,0,0,.36,16.4l1.52,15.55"/>
        <path class="cls-4"
              d="M1406.64,379.06s-13.42,15.79-12.63,24.47a21.34,21.34,0,0,1-7.08,17.61,33.47,33.47,0,0,0-6,6.94,36.51,36.51,0,0,0-5.14,25.24,53,53,0,0,1,.31,15.4,63,63,0,0,1-2.19,9.9,42.51,42.51,0,0,1-7.4,13.89c-3.43,4.48-9.37,17.66-6.49,53.93l1.58,19.73"/>
        <path class="cls-1"
              d="M1394.5,568l-16.36,75.43a4.14,4.14,0,0,1-4,3.26h-47.72a4.14,4.14,0,0,1-4.06-3.37l-14.23-75.43a4.13,4.13,0,0,1,4.06-4.89h78.32A4.12,4.12,0,0,1,1394.5,568Z"/>
        <path class="cls-3"
              d="M569,181.49c10-10.16,18.11-39.4,14.3-51.79C571.91,92.83,529.8,44.28,382,66.38c0,0-141.76,21.58-112.19,160.15,1.75,8.22,4.39,14.67,7.69,19.49,12.67,18.52,45.41,80.18-14.85,156.69-7.48,9.48-14.91,22.42-21.37,37.91-15,35.9-30.18,92.62,22.62,94.3,0,0,329.56-25.36,305.64-188.38-1.73-11.79-5-20.81-9.26-27.19C547.35,300.12,513.21,237.83,569,181.49Z"/>
        <path class="cls-6"
              d="M365.6,345.35a179.79,179.79,0,0,0,82.92,58.84c29,9.89,69.91,31.7,90,78.61,0,0,61.28,142.75-106.06,170.25,0,0-194.45,32.74-271-90.36,0,0-39-60.73-39.94-144.55-.76-70.42,29.68-137.26,81.51-177.79,39.85-31.17,92.3-42.57,132.84,53.87C335.77,294.22,341.14,314.48,365.6,345.35Z"/>
        <path class="cls-7"
              d="M329.9,364.9a97.48,97.48,0,0,0,44.74,28.57c15.66,4.8,37.72,15.39,48.53,38.17,0,0,33.07,69.31-57.22,82.66,0,0-104.92,15.9-146.25-43.87,0,0-21.06-29.49-21.55-70.19a104.13,104.13,0,0,1,44-86.32c21.5-15.14,49.8-20.67,71.68,26.15C313.81,340.07,316.7,349.91,329.9,364.9Z"/>
        <path class="cls-2"
              d="M337.41,452.75s49.5,20,89.57,16.5c0,0,86-1.18,121.38,44.78l80.13,73.07s47.14,1.18,53-38.89c0,0-106.06-155.56-187.37-150.84l-114.31,7.07Z"/>
        <path class="cls-7" d="M494.15,523.46l-3.54,17.68s9.43,15.32,31.82,15.32c0,0,7.07-33,10.61-35.36Z"/>
        <path class="cls-5"
              d="M476.66,550.11l39.58,93.21a6.42,6.42,0,0,0,12-.67c5.63-18.48,11.12-51.59-5-86.88a3.78,3.78,0,0,0-3-2.16c-5-.66-18.06-3.25-26.73-12.61a3.9,3.9,0,0,0-4.55-.88l-10.62,5.21A3.71,3.71,0,0,0,476.66,550.11Z"/>
        <path class="cls-1"
              d="M451.72,354.94S559,323.12,581.35,339.62c0,0,29.46,4.72,4.72,63.64,0,0-41.25,119-38.89,126.09,0,0-30.64,29.46-73.07-3.53,0,0,24.75-94.28,44.78-120.2,0,0-45.95-5.9-102.52,0Z"/>
        <path class="cls-5"
              d="M300.88,226.49s57.75-7.07,95.46-25.92a85.88,85.88,0,0,0,33-24.75l41.25-42.43s25.92,5.9,29.46,31.82L419.9,233.56S401.05,256,350.38,273.63L365.7,307.8l86,47.14s-11.78,69.53-83.67,97.81c0,0-34.17,17.68-62.46-7.07,0,0-17.67-22.39-21.21-31.81,0,0-28.28,3.53-41.24-21.22,0,0-22.39-46-25.93-75.42,0,0-11.78-41.24,16.5-62.46l38.89-27.1Z"/>
        <path class="cls-1"
              d="M401.05,286.59,436.4,276s9.43,10.6,0,41.24c0,0-5.89,20,4.72,37.71l-40.07,27.11s-4-38.62.82-55.95a63.4,63.4,0,0,0,2.34-13.16C404.73,304.27,404.73,291.75,401.05,286.59Z"/>
        <path class="cls-7"
              d="M379.84,347.87s7.07,11.79,4.71,25.93c0,0,5.89-7.07,14.14-3.54,0,0,33-2.35,28.29-29.46,0,0-9.43-23.57-16.5-14.14,0,0-11.79,16.5-11.79,5.89C398.69,332.55,409.3,309,379.84,347.87Z"/>
        <path class="cls-7"
              d="M257.28,213.53l-2.36,28.28s10.61,21.21,47.14,25.93c0,0,11.78-21.22,1.18-36.53v-4.72h9.42A7.26,7.26,0,0,0,319.4,222c4.28-10.45,13.09-37.59,3.87-66.18l-47.14-8.25L262,181.71Z"/>
        <path class="cls-3"
              d="M253.12,242.94c1.43,10.69,6.15,27.4,21.13,40.05a2.91,2.91,0,0,0,4.49-1c2.21-4.69,7-12.56,14.35-13.08a3.08,3.08,0,0,1,2.69,1.6l2.42,4.84a3,3,0,0,1,.31,1.34c-.07,3.89.26,23.38,12.87,28.73l.2.1c1.77,1,28.06,15.91,33.31,28.11a3,3,0,0,0,3.47,1.74l18.1-4.94a2.9,2.9,0,0,0,1.16-5c-7.54-6.62-24.36-20.4-37.64-24a3.66,3.66,0,0,1-.46-.18c-2.1-1.06-17.6-9.42-19.8-27a30.74,30.74,0,0,0-2.78-9.59,2.9,2.9,0,0,1,2.31-4.27,25.55,25.55,0,0,1,5.46,0,2.9,2.9,0,0,0,3.3-3c-.31-5.86-2.36-17.62-12.59-30.43a1.73,1.73,0,0,0-3.09,1.28c.82,6.32,1.86,16.67,1.27,25.27a11.33,11.33,0,0,1-15.16,9.78c-8.38-3-19.91-9.29-30.14-22.47A2.9,2.9,0,0,0,253.12,242.94Z"/>
        <path class="cls-5"
              d="M241.51,137.57c5.63-10.65,24.41-37.1,64.49-16.84a60,60,0,0,1,10.51,7c3.23,2.62,8.73,5.24,12.65-2.62,0,0,2.36-10.6,5.9-1.17,0,0,8.25,25.92-7.07,33,0,0-8.25,7.07-23.57,0,0,0-18.86-11.78-27.11,1.18,0,0-6.93,8.92-.82,17.67a12.65,12.65,0,0,1,2.45,6.81c.12,3.29-.45,6.4-4,1.45,0,0-4.59-7.34-10.52-2.6a9.31,9.31,0,0,0-3.65,6.68c-.15,2.74,1,6.32,6.72,9a12.11,12.11,0,0,1,6.12,6c1.38,3.12,1.28,6.81-5.75,8.09,0,0-35.56,9.18-39.9-32.46-.1-.93-.2-1.87-.33-2.8-.63-4.49-2.2-21.87,8.8-31.85A24.19,24.19,0,0,0,241.51,137.57Z"/>
        <path class="cls-7"
              d="M475.29,136.93s13-6.49,13.45-21.94a15.69,15.69,0,0,0-2.88-9.53c-3.24-4.57-7.93-12.34-1.77-11.67a7.9,7.9,0,0,1,4.46,2.12,43.46,43.46,0,0,0,8.28,5.86,4.78,4.78,0,0,0,5.91-1.22c2.19-2.74,6.53-6.6,11.44-2.51,0,0,18.86,10.61,15.32,36.53,0,0,0,5.89-18.85,11.79,0,0-14.15,11.78-14.15,14.14Z"/>
        <path class="cls-1"
              d="M359.34,24s-15.46,15.29-13.09,30.3c0,0,2,44.25,56.49,60.84,0,0,20.54,5.14,35.55-3.55,0,0,9.88-5.53,14.23-15Z"/>
        <path class="cls-2"
              d="M369.16,14.37s-29.23,16.6-8.3,52.94c0,0,19.76,37.53,64.79,38.72,0,0,29.24,1.18,35.56-24.1,0,0,5.92-23.71-14.62-45,0,0-15.6-17.08-30.95-22.08-1-.32-1.93-.65-2.88-1C407,11.63,385.15,4.51,369.16,14.37Z"/>
        <path class="cls-1"
              d="M376,22.08s-24,13.64-6.82,43.51c0,0,16.23,30.84,53.25,31.82,0,0,24,1,29.22-19.81,0,0,4.87-19.48-12-37,0,0-12.82-14-25.43-18.15-.8-.26-1.59-.53-2.37-.82C407.11,19.83,389.16,14,376,22.08Z"/>
        <path class="cls-2"
              d="M375.72,23.8s-23.48,13.32-6.66,42.51c0,0,15.86,30.15,52,31.1,0,0,23.48,1,28.55-19.36,0,0,4.76-19-11.74-36.17,0,0-12.53-13.72-24.86-17.74-.77-.25-1.55-.51-2.31-.8C406.11,21.6,388.56,15.87,375.72,23.8Z"/>
        <rect class="cls-1" x="405.93" y="53.51" width="2.04" height="37.04"
              transform="translate(-3.78 117.8) rotate(-16.4)"/>
        <rect class="cls-1" x="386.8" y="47.85" width="2.04" height="37.04"
              transform="translate(-2.96 112.17) rotate(-16.4)"/>
        <rect class="cls-1" x="417.3" y="31.08" width="2.04" height="37.04"
              transform="translate(3.01 120.1) rotate(-16.4)"/>
        <rect class="cls-2" x="406.36" y="52.21" width="2.04" height="37.04"
              transform="translate(-3.4 117.87) rotate(-16.4)"/>
        <rect class="cls-2" x="387.24" y="46.55" width="2.04" height="37.04"
              transform="translate(-2.58 112.24) rotate(-16.4)"/>
        <rect class="cls-2" x="417.74" y="29.78" width="2.04" height="37.04"
              transform="matrix(0.96, -0.28, 0.28, 0.96, 3.4, 120.17)"/>
        <rect class="cls-1" x="407.02" y="51.56" width="2.04" height="37.04"
              transform="translate(-3.19 118.03) rotate(-16.4)"/>
        <rect class="cls-1" x="387.89" y="45.9" width="2.04" height="37.04"
              transform="translate(-2.37 112.4) rotate(-16.4)"/>
        <rect class="cls-1" x="418.39" y="29.13" width="2.04" height="37.04"
              transform="translate(3.61 120.33) rotate(-16.4)"/>
    </g>
</svg>