<svg xmlns="http://www.w3.org/2000/svg" viewBox="0 0 1342 715"><defs><style>.cls-1{fill:#e1deff;}.cls-2{fill:#fdbe5a;}.cls-3{fill:none;stroke:#fff;stroke-linecap:round;stroke-linejoin:round;stroke-width:2px;}.cls-4{fill:#201452;}.cls-5{fill:#ffd7aa;}.cls-6{fill:#c2c2c2;}.cls-7{fill:#fff;}</style></defs><title>visuels8</title><g id="Calque_4" data-name="Calque 4"><path class="cls-1" d="M207.8,546.64c-25.52-4.76-24.53-19.19,1.67-25.57,78-19,277.56-44.94,782.22-39.12,0,0,478.77,19.2,232.31,90.05-14.61,4.2-36.33,10.45-53,13-64,9.78-183.24,24-99,43,17.16,3.88,63,15.2,63,38,0,22-8.71,44.91-198.73,47.66,0,0-1149.74-.92-898.57-83.88,18.17-6,38.86-10.66,60.68-14C164.17,605.6,349.3,573,207.8,546.64Z"/><path class="cls-2" d="M1211.23,487s13.12-31.87,12.18-73.79c-.34-15-12.77-27.15-23.24-37.91-15.22-15.63-52-58.81-32.64-94,5.13-9.33,8.29-19.66,8.18-30.31-.11-10-2.7-20.92-11.68-27.71a26.22,26.22,0,0,0-5-2.86c-5-2.27-23.72-13.07-21.36-46.68.22-3.15.28-6.32.21-9.48-.18-8.62-.81-24.16-2.88-32.45,0,0-1.43-32.7,31.89-17.43,1.39.64,2.81,1.24,4.23,1.83,16.11,6.66,129.47,63.51,78.53,370.55Z"/><path class="cls-3" d="M1146.39,134.58s25.25,29.71,23.76,46A40.16,40.16,0,0,0,1183.76,214a57.93,57.93,0,0,1,9,9.9,68.83,68.83,0,0,1,11.41,51.39,85,85,0,0,0-1.13,21.42,118.88,118.88,0,0,0,4.84,25.16A86.1,86.1,0,0,0,1221.81,348c6.07,7.92,16.31,30.33,13,89.73a165.55,165.55,0,0,0,.55,25.39l2.36,24.07"/><path class="cls-1" d="M1270.65,486.78s-12.07-28.67-1.83-60.53A80.08,80.08,0,0,1,1288,395.06c12.52-12.87,42.77-48.4,26.85-77.36a50.81,50.81,0,0,1-6.72-24.94c.09-8.24,2.21-17.23,9.61-22.81a21.33,21.33,0,0,1,4.07-2.35c4.11-1.87,19.52-10.76,17.58-38.42-.19-2.59-.24-5.2-.18-7.8.16-7.09.67-19.88,2.38-26.71,0,0,1.17-26.9-26.25-14.33-1.14.52-2.31,1-3.48,1.5-13.25,5.47-102.64,52.26-60.71,304.94Z"/><path class="cls-3" d="M1328.09,197.12s-20.77,24.44-19.55,37.89a33,33,0,0,1-11,27.25,51.7,51.7,0,0,0-9.22,10.75,56.44,56.44,0,0,0-8,39.06,81.85,81.85,0,0,1,.48,23.85,96.89,96.89,0,0,1-3.39,15.33c-2.25,7.29-5.52,13.73-11.46,21.49-5.3,6.93-14.49,27.34-10,83.48l2.45,30.56"/><path class="cls-4" d="M1309.3,489.64,1284,606.4a6.41,6.41,0,0,1-6.26,5h-73.87a6.4,6.4,0,0,1-6.28-5.21l-22-116.76a6.39,6.39,0,0,1,6.28-7.58h121.24A6.39,6.39,0,0,1,1309.3,489.64Z"/><path class="cls-4" d="M604.31,447.58a116.45,116.45,0,0,1-7-42.63c.2-8.67,7.38-15.68,13.43-21.89,8.79-9,30-34,18.85-54.3a35.68,35.68,0,0,1-4.72-17.51c.06-5.78,1.55-12.08,6.74-16a15.12,15.12,0,0,1,2.86-1.66c2.89-1.31,13.7-7.55,12.34-27-.13-1.82-.16-3.65-.12-5.47.1-5,.47-14,1.66-18.75,0,0,.82-18.88-18.42-10.06-.8.37-1.62.71-2.44,1.05-9.31,3.85-74.79,36.68-45.36,214Z"/><path class="cls-3" d="M641.76,244S627.18,261.16,628,270.6a23.18,23.18,0,0,1-7.87,19.28,34,34,0,0,0-5.2,5.72,39.78,39.78,0,0,0-6.59,29.68,48.88,48.88,0,0,1,.65,12.37,68.76,68.76,0,0,1-2.79,14.54,49.76,49.76,0,0,1-8,15.08c-3.51,4.58-9.42,17.52-7.51,51.84a95.7,95.7,0,0,1-.32,14.66L589,447.67"/><path class="cls-5" d="M570,447.43s7-16.56,1.06-34.95a46.39,46.39,0,0,0-11-18c-7.24-7.44-24.71-28-15.52-44.69a29.4,29.4,0,0,0,3.89-14.41c0-4.75-1.28-9.94-5.55-13.17a13.42,13.42,0,0,0-2.35-1.36c-2.38-1.08-11.28-6.21-10.16-22.19.11-1.5.14-3,.1-4.5-.09-4.1-.38-11.49-1.37-15.43,0,0-.67-15.54,15.16-8.28.66.3,1.34.59,2,.87,7.66,3.16,59.29,30.19,35.07,176.13Z"/><path class="cls-3" d="M536.81,280.12s12,14.12,11.29,21.89a19.07,19.07,0,0,0,6.33,15.74,29.8,29.8,0,0,1,5.33,6.21,32.61,32.61,0,0,1,4.6,22.56,46.82,46.82,0,0,0-.27,13.78,55.16,55.16,0,0,0,1.95,8.85,37.7,37.7,0,0,0,6.62,12.41c3.06,4,8.37,15.8,5.8,48.23l-1.41,17.64"/><path class="cls-6" d="M547.66,449.09l14.64,67.44a3.68,3.68,0,0,0,3.61,2.91h42.67a3.7,3.7,0,0,0,3.63-3L624.93,449a3.69,3.69,0,0,0-3.63-4.38h-70A3.7,3.7,0,0,0,547.66,449.09Z"/><polygon class="cls-7" points="736.84 569.29 723.58 581.44 707.01 589.17 689.33 561.55 694.85 560.45 708.11 544.98 736.84 569.29"/><path class="cls-4" d="M724.09,583.58c-.1,5.44-3.81,17.42-10.6,25.76a2.62,2.62,0,0,1-3.53.55l-79.72-54.28a2.88,2.88,0,0,1-.52-4.26c2.07-2.3,6.4-5.23,15-5.26A38.06,38.06,0,0,1,657,548.17L697,561a2.7,2.7,0,0,1,1.44,1.16c1.82,3,12.31,15.62,23.63,18.67A2.79,2.79,0,0,1,724.09,583.58Z"/><path class="cls-2" d="M755.18,234.8s-8,12.31-19,12.92c0,0-31.84,5.36-52-31,0,0-6.8-13.85-2.9-25.88,0,0,2.43-7.89,8.52-12.44Z"/><path class="cls-5" d="M761.09,225.28s-7.35,23.38-36.46,14c0,0-29.77-8.34-37.51-40.26,0,0-5.32-20.65,11.74-29,0,0,16-7.85,34.33,3.53,0,0,14.57,8.51,20.48,18.68.37.64.76,1.28,1.16,1.9C757.26,197.9,765.68,212.38,761.09,225.28Z"/><path class="cls-2" d="M754.55,221.58s-6,19.21-30,11.51c0,0-24.47-6.85-30.83-33.08,0,0-4.37-17,9.65-23.86,0,0,13.14-6.45,28.22,2.9,0,0,12,7,16.83,15.35.3.53.62,1,.95,1.57C751.39,199.07,758.31,211,754.55,221.58Z"/><path class="cls-5" d="M753.37,222.05s-5.9,18.77-29.28,11.25c0,0-23.92-6.69-30.13-32.33,0,0-4.27-16.59,9.43-23.31,0,0,12.84-6.31,27.58,2.83,0,0,11.69,6.83,16.44,15q.45.78.93,1.53C750.29,200.05,757.05,211.68,753.37,222.05Z"/><rect class="cls-2" x="725.96" y="200.09" width="1.63" height="29.68" transform="translate(-30.82 193.91) rotate(-14.89)"/><rect class="cls-2" x="736.71" y="188.26" width="1.63" height="29.68" transform="translate(-27.42 196.27) rotate(-14.89)"/><rect class="cls-2" x="708.84" y="189.46" width="1.63" height="29.68" transform="translate(-28.67 189.16) rotate(-14.89)"/><rect class="cls-5" x="725.12" y="199.38" width="1.63" height="29.68" transform="translate(-30.67 193.67) rotate(-14.89)"/><rect class="cls-5" x="735.87" y="187.54" width="1.63" height="29.68" transform="matrix(0.97, -0.26, 0.26, 0.97, -27.27, 196.04)"/><rect class="cls-5" x="708" y="188.75" width="1.63" height="29.68" transform="translate(-28.51 188.92) rotate(-14.89)"/><rect class="cls-2" x="724.41" y="199.2" width="1.63" height="29.68" transform="translate(-30.65 193.48) rotate(-14.89)"/><rect class="cls-2" x="735.15" y="187.37" width="1.63" height="29.68" transform="translate(-27.25 195.84) rotate(-14.89)"/><rect class="cls-2" x="707.29" y="188.57" width="1.63" height="29.68" transform="translate(-28.49 188.73) rotate(-14.89)"/><path class="cls-1" d="M808.36,190.93c-9.41-9.54-16.91-37-13.32-48.58,10.7-34.55,50.27-80,188.78-59,0,0,132.87,20.48,104.9,150.35-1.66,7.7-4.15,13.74-7.25,18.25-11.91,17.34-42.72,75.1,13.64,146.93,7,8.91,13.94,21.06,20,35.58,14,33.69,28.12,86.89-21.38,88.38,0,0-308.93-24.37-286.21-177.17,1.64-11.05,4.68-19.5,8.72-25.47C828.4,302.19,860.51,243.85,808.36,190.93Z"/><path class="cls-6" d="M998.77,344.85A168.49,168.49,0,0,1,921,400c-27.22,9.28-65.55,29.72-84.33,73.7,0,0-57.46,133.84,99.43,159.62,0,0,182.3,30.7,254.12-84.72,0,0,36.59-56.93,37.44-135.52.72-66-27.82-128.69-76.41-166.69-37.36-29.22-86.54-39.9-124.55,50.51C1026.74,296.91,1021.71,315.9,998.77,344.85Z"/><path class="cls-7" d="M1032.25,363.18a91.46,91.46,0,0,1-42,26.78c-14.68,4.5-35.37,14.43-45.5,35.78,0,0-31,65,53.65,77.5,0,0,98.37,14.91,137.12-41.13,0,0,19.74-27.64,20.2-65.8a97.61,97.61,0,0,0-41.23-80.93c-20.16-14.19-46.69-19.38-67.2,24.52C1047.34,339.9,1044.63,349.12,1032.25,363.18Z"/><path class="cls-5" d="M1025.2,445.54s-46.4,18.78-84,15.47c0,0-80.66-1.1-113.8,42L752.31,571.5s-44.2,1.1-49.72-36.46c0,0,99.43-145.85,175.67-141.43l107.17,6.63Z"/><path class="cls-7" d="M878.26,511.83l3.31,16.58s-8.84,14.36-29.83,14.36c0,0-6.63-30.94-9.94-33.15Z"/><path class="cls-4" d="M894.66,536.82l-37.12,87.39a6,6,0,0,1-11.29-.63c-5.28-17.33-10.43-48.37,4.64-81.46a3.58,3.58,0,0,1,2.79-2c4.7-.62,16.92-3,25.05-11.82a3.64,3.64,0,0,1,4.27-.83l10,4.89A3.48,3.48,0,0,1,894.66,536.82Z"/><path class="cls-2" d="M918,353.84S817.49,324,796.5,339.48c0,0-27.62,4.42-4.42,59.66,0,0,38.67,111.59,36.46,118.22,0,0,28.73,27.62,68.5-3.32,0,0-23.2-88.39-42-112.69,0,0,43.09-5.53,96.12,0Z"/><path class="cls-4" d="M1059.45,233.41s-54.13-6.63-89.49-24.31A80.38,80.38,0,0,1,939,185.9l-38.67-39.77s-24.31,5.52-27.63,29.83L947.86,240s17.68,21,65.19,37.56l-14.36,32L918,353.84s11.05,65.19,78.45,91.7c0,0,32,16.57,58.56-6.63,0,0,16.57-21,19.88-29.83,0,0,26.52,3.32,38.67-19.89,0,0,21-43.08,24.31-70.71,0,0,11-38.67-15.47-58.55L1086,234.51Z"/><path class="cls-2" d="M965.54,289.76l-33.14-9.95s-8.84,9.95,0,38.67c0,0,5.52,18.79-4.42,35.36l37.56,25.41s3.72-36.21-.77-52.45a59.59,59.59,0,0,1-2.19-12.34C962.09,306.33,962.09,294.59,965.54,289.76Z"/><path class="cls-7" d="M985.43,347.21s-6.63,11.05-4.42,24.31c0,0-5.52-6.63-13.26-3.32,0,0-30.93-2.21-26.51-27.62,0,0,8.83-22.1,15.46-13.26,0,0,11,15.47,11,5.53C967.75,332.85,957.81,310.75,985.43,347.21Z"/><path class="cls-7" d="M1100.33,221.26l2.21,26.51s-9.94,19.89-44.19,24.31c0,0-11-19.89-1.1-34.25v-4.42h-8.84a6.82,6.82,0,0,1-6.32-4.24c-4-9.81-12.27-35.25-3.63-62l44.2-7.74,13.26,32.05Z"/><path class="cls-1" d="M1104.24,248.83c-1.35,10-5.77,25.69-19.82,37.55a2.72,2.72,0,0,1-4.21-1c-2.07-4.4-6.56-11.77-13.45-12.26a2.9,2.9,0,0,0-2.52,1.5L1062,279.2a2.86,2.86,0,0,0-.29,1.25c.06,3.66-.25,21.92-12.07,26.94l-.19.09c-1.65.93-26.3,14.92-31.23,26.36a2.75,2.75,0,0,1-3.25,1.63l-17-4.63a2.72,2.72,0,0,1-1.09-4.67c7.07-6.21,22.85-19.12,35.29-22.54a4,4,0,0,0,.44-.17c2-1,16.5-8.83,18.56-25.3a28.71,28.71,0,0,1,2.61-9,2.73,2.73,0,0,0-2.17-4,24.34,24.34,0,0,0-5.12,0,2.73,2.73,0,0,1-3.1-2.82c.3-5.5,2.22-16.51,11.81-28.53a1.63,1.63,0,0,1,2.9,1.2c-.77,5.93-1.75,15.63-1.19,23.7a10.62,10.62,0,0,0,14.21,9.17c7.86-2.82,18.66-8.72,28.26-21.08A2.73,2.73,0,0,1,1104.24,248.83Z"/><path class="cls-4" d="M1115.12,150c-5.28-10-22.89-34.78-60.46-15.78a55.14,55.14,0,0,0-9.85,6.59c-3,2.45-8.19,4.91-11.87-2.46,0,0-2.21-9.94-5.53-1.1,0,0-7.73,24.3,6.63,30.93,0,0,7.74,6.63,22.1,0,0,0,17.68-11.05,25.41,1.11,0,0,6.5,8.36.77,16.56a12,12,0,0,0-2.3,6.39c-.1,3.08.43,6,3.74,1.36,0,0,4.3-6.88,9.86-2.44a8.73,8.73,0,0,1,3.43,6.26c.13,2.57-1,5.93-6.31,8.42a11.43,11.43,0,0,0-5.74,5.58c-1.29,2.92-1.19,6.39,5.39,7.59,0,0,33.34,8.6,37.42-30.44.09-.87.18-1.75.31-2.62.58-4.21,2.06-20.51-8.25-29.86A22.31,22.31,0,0,1,1115.12,150Z"/><path class="cls-7" d="M895.94,149.44s-12.17-6.08-12.61-20.56a14.68,14.68,0,0,1,2.7-8.95c3-4.27,7.43-11.56,1.65-10.94a7.51,7.51,0,0,0-4.18,2,40.36,40.36,0,0,1-7.76,5.49,4.48,4.48,0,0,1-5.54-1.13c-2.05-2.58-6.12-6.19-10.72-2.36,0,0-17.68,9.94-14.37,34.25,0,0,0,5.53,17.68,11.05,0,0,13.26,11.05,13.26,13.26Z"/><path class="cls-2" d="M1018.5,15.75s16.59,16.41,14,32.51c0,0-2.12,47.45-60.59,65.25,0,0-22,5.51-38.14-3.82,0,0-10.59-5.93-15.25-16.1Z"/><path class="cls-5" d="M1008,5.46s31.36,17.8,8.9,56.78c0,0-21.18,40.25-69.49,41.52,0,0-31.35,1.27-38.13-25.84,0,0-6.36-25.43,15.68-48.31,0,0,16.73-18.32,33.19-23.68q1.56-.51,3.09-1.08C967.39,2.52,990.83-5.12,1008,5.46Z"/><path class="cls-2" d="M1000.62,13.73s25.77,14.63,7.31,46.66c0,0-17.41,33.09-57.11,34.13,0,0-25.77,1-31.34-21.24,0,0-5.22-20.9,12.89-39.7,0,0,13.75-15.06,27.28-19.47.85-.27,1.7-.57,2.54-.88C967.27,11.32,986.52,5,1000.62,13.73Z"/><path class="cls-5" d="M1000.94,15.57s25.18,14.29,7.14,45.6c0,0-17,32.33-55.81,33.35,0,0-25.18,1-30.63-20.76,0,0-5.1-20.42,12.59-38.79,0,0,13.44-14.72,26.67-19,.83-.27,1.66-.56,2.48-.86C968.34,13.21,987.16,7.07,1000.94,15.57Z"/><rect class="cls-2" x="947.58" y="66.21" width="39.73" height="2.18" transform="matrix(0.28, -0.96, 0.96, 0.28, 629.78, 976.4)"/><rect class="cls-2" x="968.1" y="60.14" width="39.73" height="2.18" transform="translate(650.33 991.73) rotate(-73.6)"/><rect class="cls-2" x="935.38" y="42.15" width="39.73" height="2.18" transform="translate(644.11 947.44) rotate(-73.6)"/><rect class="cls-5" x="947.11" y="64.81" width="39.73" height="2.18" transform="translate(630.79 974.95) rotate(-73.6)"/><rect class="cls-5" x="967.63" y="58.74" width="39.73" height="2.18" transform="matrix(0.28, -0.96, 0.96, 0.28, 651.34, 990.28)"/><rect class="cls-5" x="934.92" y="40.75" width="39.73" height="2.18" transform="translate(645.12 945.99) rotate(-73.6)"/><rect class="cls-2" x="946.41" y="64.11" width="39.73" height="2.18" transform="translate(630.96 973.78) rotate(-73.6)"/><rect class="cls-2" x="966.93" y="58.04" width="39.73" height="2.18" transform="translate(651.51 989.11) rotate(-73.6)"/><rect class="cls-2" x="934.22" y="40.06" width="39.73" height="2.18" transform="translate(645.29 944.81) rotate(-73.6)"/><polygon class="cls-7" points="515.41 646.88 528.67 659.03 545.24 666.76 562.92 639.14 557.39 638.04 544.13 622.57 515.41 646.88"/><path class="cls-4" d="M528.15,661.17c.1,5.44,3.81,17.42,10.61,25.76a2.62,2.62,0,0,0,3.53.55L622,633.2a2.88,2.88,0,0,0,.52-4.26c-2.07-2.3-6.39-5.23-15-5.26a38.06,38.06,0,0,0-12.28,2.08l-39.94,12.81a2.72,2.72,0,0,0-1.45,1.16c-1.81,3-12.31,15.62-23.63,18.67A2.8,2.8,0,0,0,528.15,661.17Z"/><path class="cls-1" d="M314.3,207.5c5.63-10.44,3.25-34.34-4.18-42.33-22.13-23.79-75.43-47.1-199.67,12.75,0,0-119,57.7-47.49,151a45.53,45.53,0,0,0,13.2,12.07c17.31,9.89,66.57,45.61,37.94,119.68-3.55,9.19-5.93,20.9-6.63,34.2-1.61,30.84,3.41,77.06,50.91,62.73,0,0,284.85-115.86,210.35-228.78-5.38-8.16-11.2-13.85-17.11-17.27C333.82,301.17,283.12,265.4,314.3,207.5Z"/><path class="cls-6" d="M253.47,422.44a168.51,168.51,0,0,0,77.74,55.16c27.21,9.28,65.55,29.72,84.33,73.71,0,0,57.45,133.83-99.44,159.61,0,0-182.3,30.7-254.12-84.72,0,0-36.59-56.93-37.44-135.52C23.83,424.66,52.37,362,101,324c37.36-29.22,86.54-39.9,124.54,50.51C225.5,374.5,230.53,393.49,253.47,422.44Z"/><path class="cls-7" d="M220,440.77a91.38,91.38,0,0,0,41.94,26.78c14.69,4.5,35.37,14.43,45.5,35.78,0,0,31,65-53.65,77.5,0,0-98.36,14.91-137.11-41.13,0,0-19.75-27.64-20.21-65.8A97.64,97.64,0,0,1,137.71,393c20.15-14.19,46.69-19.38,67.2,24.52C204.91,417.49,207.62,426.71,220,440.77Z"/><path class="cls-5" d="M227,523.13s46.4,18.78,84,15.47c0,0,80.65-1.1,113.8,42l75.13,68.51s44.19,1.1,49.72-36.46c0,0-99.44-145.85-175.67-141.43l-107.17,6.63Z"/><path class="cls-7" d="M374,589.42,370.67,606s8.84,14.36,29.83,14.36c0,0,6.63-30.94,9.95-33.15Z"/><path class="cls-4" d="M357.59,614.41,394.7,701.8a6,6,0,0,0,11.3-.63c5.27-17.33,10.42-48.37-4.65-81.46a3.55,3.55,0,0,0-2.78-2c-4.7-.62-16.93-3-25.06-11.82a3.61,3.61,0,0,0-4.26-.82l-10,4.88A3.47,3.47,0,0,0,357.59,614.41Z"/><path class="cls-2" d="M334.21,431.43s100.54-29.83,121.54-14.36c0,0,27.62,4.42,4.42,59.66,0,0-38.67,111.59-36.47,118.22,0,0-28.72,27.62-68.5-3.32,0,0,23.21-88.39,42-112.69,0,0-43.09-5.53-96.12,0Z"/><path class="cls-7" d="M328.85,432s9.57-8.11,6.83-19.81c0,0,4.6,4.84,10.64,2.78a8.1,8.1,0,0,1,3.37-.48c6.32.56,25.34,3.83,23.28,23,0,0-6.6,20.23-13,12.73,0,0-10.76-13.16-10.18-4.29C349.76,445.93,355.61,462.93,328.85,432Z"/><path class="cls-4" d="M239.19,355.19l14.37,32,80.65,44.2s-11,65.19-78.44,91.7c0,0-32,16.57-58.56-6.63,0,0-16.57-21-19.89-29.83,0,0-26.51,3.32-38.67-19.89,0,0-21-43.08-24.3-70.71,0,0-11-38.67,15.46-58.55l36.46-25.42,26.2,8.79s45.27-1.09,66,21.57c2,2.15,3.94,4.3,6,6.35,10.08,10,36.82,36.55,52.33,50.87a61.22,61.22,0,0,0,20.5,12.56c1.54.57,3.16,1.1,4.82,1.58a9.65,9.65,0,0,1,3.8,16.54,35.06,35.06,0,0,1-16,7.67L256.1,400.47Z"/><path class="cls-2" d="M286.7,367.35l33.15-10s8.84,10,0,38.67c0,0-5.53,18.79,4.42,35.36L286.7,456.84s-3.71-36.21.78-52.45a60.26,60.26,0,0,0,2.19-12.34C290.16,383.92,290.16,372.18,286.7,367.35Z"/><path class="cls-7" d="M266.82,424.8s6.62,11.05,4.41,24.31c0,0,4.77-5.72,11.64-3.88a11.13,11.13,0,0,0,4.84.12c7.8-1.39,26.83-6.88,23.3-27.18,0,0-8.84-22.1-15.47-13.26,0,0-11.05,15.47-11.05,5.53C284.49,410.44,294.44,388.34,266.82,424.8Z"/><path class="cls-7" d="M151.91,298.85l-2.21,26.51s9.94,19.89,44.2,24.31c0,0,11-19.89,1.1-34.25V311h8.83a6.83,6.83,0,0,0,6.33-4.24c4-9.81,12.27-35.25,3.62-62L169.59,237l-15,32.57Z"/><path class="cls-5" d="M188,352.25c-1-.09-1.57-1.57-2.52-1.5-6.91.49-11.4,7.89-13.47,12.29a2.72,2.72,0,0,1-4.2.93c-14-11.86-18.47-27.53-19.81-37.55a2.72,2.72,0,0,1,4.85-2c9.68,12.46,20.58,18.36,28.46,21.14a10.51,10.51,0,0,0,14-9.25c.55-8.07-.43-17.76-1.2-23.69a1.63,1.63,0,0,1,2.88-1.23c9.61,12,11.54,23.07,11.83,28.57a2.73,2.73,0,0,1-3.1,2.82,24.34,24.34,0,0,0-5.12,0,2.75,2.75,0,0,0-2.49,2.88,5.33,5.33,0,0,1-1,3.76C195.81,351,193.16,352.74,188,352.25Z"/><path class="cls-4" d="M137.12,227.64c5.28-10,22.89-34.79,60.47-15.79a55.5,55.5,0,0,1,9.85,6.59c2,1.64,9,8.36,11.47,16a11,11,0,0,1-10.36,14.35,28.62,28.62,0,0,1-12.45-2.95s-17.67-11-25.41,1.11c0,0-6.5,8.36-.77,16.56a11.94,11.94,0,0,1,2.3,6.39c.11,3.08-.42,6-3.74,1.36,0,0-4.29-6.88-9.86-2.44a8.72,8.72,0,0,0-3.42,6.26c-.14,2.57,1,5.93,6.3,8.42a11.45,11.45,0,0,1,5.75,5.58c1.29,2.92,1.19,6.39-5.4,7.59,0,0-33.34,8.6-37.41-30.44-.09-.87-.19-1.75-.31-2.62-.59-4.23-2.08-20.67,8.4-30A21.27,21.27,0,0,0,137.12,227.64Z"/><path class="cls-2" d="M455.42,160.69s.48,33.35-19.69,48.46c0,0-53.49,50.34-137.5,7.06,0,0-30.37-17.63-38.18-45.32,0,0-5.35-18,.44-34.29Z"/><path class="cls-5" d="M454.59,135.22s15.59,53.52-51.31,72.54c0,0-66.87,21.81-121.8-28.84,0,0-36.14-32.38-14.43-69.75,0,0,20.34-35,69.43-36.67,0,0,38.3-2.29,62.34,9.51,1.51.75,3,1.47,4.58,2.14C412.76,88.23,447,105,454.59,135.22Z"/><path class="cls-2" d="M437.52,136.46s12.82,44-42.17,59.62c0,0-55,17.92-100.1-23.7,0,0-29.7-26.61-11.86-57.33,0,0,16.72-28.79,57.06-30.13,0,0,31.48-1.88,51.23,7.82,1.25.61,2.5,1.2,3.78,1.75C403.15,97.84,431.27,111.63,437.52,136.46Z"/><path class="cls-5" d="M435.9,138.84s12.52,43-41.22,58.26c0,0-53.71,17.52-97.82-23.16,0,0-29-26-11.6-56,0,0,16.35-28.14,55.77-29.45,0,0,30.76-1.84,50.07,7.64,1.22.59,2.44,1.17,3.68,1.71C402.3,101.1,429.78,114.57,435.9,138.84Z"/><rect class="cls-2" x="372.8" y="126.34" width="2.98" height="54.28" transform="translate(-7.43 287.42) rotate(-41.63)"/><rect class="cls-2" x="380.6" y="98.17" width="2.98" height="54.28" transform="translate(13.26 285.49) rotate(-41.63)"/><rect class="cls-2" x="336.09" y="123.07" width="2.98" height="54.28" transform="translate(-14.53 262.21) rotate(-41.63)"/><rect class="cls-5" x="373.26" y="124.66" width="2.98" height="54.28" transform="translate(-6.2 287.3) rotate(-41.63)"/><rect class="cls-5" x="381.06" y="96.49" width="2.98" height="54.28" transform="translate(14.49 285.37) rotate(-41.63)"/><rect class="cls-5" x="336.55" y="121.39" width="2.98" height="54.28" transform="translate(-13.3 262.09) rotate(-41.63)"/><rect class="cls-2" x="373.15" y="122.55" width="2.98" height="54.28" transform="translate(-4.82 286.7) rotate(-41.63)"/><rect class="cls-2" x="380.96" y="94.37" width="2.98" height="54.28" transform="translate(15.87 284.77) rotate(-41.63)"/><rect class="cls-2" x="336.44" y="119.28" width="2.98" height="54.28" transform="translate(-11.92 261.49) rotate(-41.63)"/></g></svg>