<svg xmlns="http://www.w3.org/2000/svg" viewBox="0 0 1123 709">
    <defs>
        <style>
            .cls-1{fill:#e1deff;}.cls-2{fill:none;stroke:#c2c2c2;stroke-linecap:round;stroke-linejoin:round;stroke-width:2px;}.cls-3{fill:#c2c2c2;}.cls-4{fill:#fff;}.cls-5{fill:#201452;}.cls-6{fill:#fdbe5a;}.cls-7{fill:#ffd7aa;}
        </style>
    </defs>
    <title>visuels5</title>
    <g id="Calque_2" data-name="Calque 2">
        <path class="cls-1"
              d="M378.65,75.13c7.84-8.76,5-27.27-5-32.8C344,25.87,271.8,12.91,101.57,72.3c0,0-163.13,57.19-67.34,123.22A55.84,55.84,0,0,0,52,203.67c23.4,6,89.86,29.14,49.57,90.14a62.68,62.68,0,0,0-9.63,27.5c-2.74,24.37,3.28,60.14,68.23,44.14,0,0,389.94-119.42,290.47-200.59a60.82,60.82,0,0,0-23-11.84C403.58,146.69,335.17,123.69,378.65,75.13Z"/>
        <path class="cls-1"
              d="M615.71,457.6c14-6.57,12.29-20.58-2.94-24.81C567.45,420.19,453.18,410,169.85,454c0,0-271.55,42.35-127.43,92.77A135.4,135.4,0,0,0,69.79,553c36.76,4.68,140.24,22.5,66,68.39-9.21,5.69-16.22,12.8-19.74,20.74-8.16,18.4-4,45.46,103.09,33.71,0,0,646.47-88.19,498.75-150.06a137.34,137.34,0,0,0-35.21-9.08C644.85,511.82,538.2,494.07,615.71,457.6Z"/>
    </g>
    <g id="Calque_5" data-name="Calque 5">
        <path class="cls-2"
              d="M317.61,312.51S325,279,347.09,288.38c8.73,3.7,18.92-1.25,28-4,25.37-7.59,71.42-23.64,97.63-46.71a71.15,71.15,0,0,0,9.75-10.83c2.41-3.22,7.94-8.27,19-8.6a80.77,80.77,0,0,0,18.19-2.43c18.76-4.93,56-16.48,78.35-35.09a54.7,54.7,0,0,0,6.8-7.06c1.79-2.13,5.83-5.32,14.18-5.82a125.39,125.39,0,0,0,31.24-6.17c22.83-7.44,56.71-20.7,69.59-37.16a11.82,11.82,0,0,1,12-4.39c8.74,2.09,22.42,8.7,33.45,29.07,0,0,24.5,50.34-49,66.67,0,0-84.37,16.33-73.48,72.12"/>
        <path class="cls-3"
              d="M231.93,254.53a159.37,159.37,0,0,0,65.5,61.93c24.26,12.29,57.45,36.51,69.23,80.18,0,0,36.1,132.92-114.23,136.32,0,0-174.77,4.63-226.76-112.94,0,0-26.74-58.16-17.14-131.86,8.06-61.92,43.07-116.83,93.6-146,38.85-22.42,86.32-25.92,110,63.77C212.08,205.94,214.28,224.39,231.93,254.53Z"/>
        <path class="cls-4"
              d="M198.16,267.26a86.39,86.39,0,0,0,35.74,30.63c13.16,6.16,31.21,18.19,37.88,39.53,0,0,20.43,64.95-60.5,65.48,0,0-94.08,1-122.95-56.65,0,0-14.84-28.5-10.22-64.29a92.35,92.35,0,0,1,49.31-70.34c20.76-10.62,46.29-12,59.69,31.85C187.11,243.47,188.43,252.47,198.16,267.26Z"/>
        <polygon class="cls-4" points="280.95 492.77 283.67 514.54 310.88 517.26 313.61 487.33 280.95 492.77"/>
        <polygon class="cls-4" points="142.97 533.65 138.83 555.98 164.83 567.2 176.9 538.52 142.97 533.65"/>
        <path class="cls-5"
              d="M138.24,550.49c-4.37,2.37-12.52,10.41-16.43,19.41a2.39,2.39,0,0,0,1,3.1l77.48,41.85a2.64,2.64,0,0,0,3.68-1.37c1-2.65,1.56-7.38-2.05-14.39a34.83,34.83,0,0,0-6.83-9.08L168,563a2.5,2.5,0,0,0-1.55-.68c-3.17-.23-17.84-3.42-25.06-11.32A2.56,2.56,0,0,0,138.24,550.49Z"/>
        <path class="cls-5"
              d="M115.06,322a6.88,6.88,0,0,0-3.51,4.47c-2.08,8.38-5.52,31.45,16.8,39.68l45.35,15.68a7.1,7.1,0,0,0,1,.32c2.61.59,16.25,4.56,9.7,21.6l-47.09,133a6.94,6.94,0,0,0,7.21,9c7.9-.64,18.57-.86,25.58,1.6a7,7,0,0,0,9-4.05l76-138.95s21.78-27.21,2-69.38c-.09-.19-26.5-6.82-61.88-2.74l-53.59-20.93a6.93,6.93,0,0,0-6.27.09Z"/>
        <path class="cls-5"
              d="M139.08,312.93a3.63,3.63,0,0,0,.75,6.51C161,326.69,208.89,365,240.45,365.39a26.69,26.69,0,0,1,26.25,26.34v.78l12.2,98.89a3.62,3.62,0,0,0,4.44,3.63c5.88-1.37,16.46-2.91,25.81.64a3.62,3.62,0,0,0,4.84-3.08l13.95-145a2,2,0,0,1,.07-.42c.68-3.12,7.83-40.64-43.28-50.39l-.32-.08L204.73,273a3.63,3.63,0,0,0-3,.41Z"/>
        <path class="cls-5"
              d="M281.52,509.66c-3.33,3.45-8.49,13.24-9.46,22.68a2.32,2.32,0,0,0,1.86,2.55l83.58,15.86a2.55,2.55,0,0,0,3-2.33c.14-2.73-.73-7.26-6.09-12.65a33.68,33.68,0,0,0-9-6.37l-32.9-16.92a2.4,2.4,0,0,0-1.63-.18c-3,.72-17.43,2.07-26.39-3.09A2.44,2.44,0,0,0,281.52,509.66Z"/>
        <path class="cls-4"
              d="M202,311.05c-.16.67-.63,5.27.05,5.41,1.46.29,5.77,4.33,7.51,6.44,0,0,.62,1,3.86,1.78,0,0,13.78,3.31,14.85,9.57,0,0,3.72,9.46,12.83-1.39a10.59,10.59,0,0,1,.79-.85c1.64-1.63,9.24-9.75,4.59-15.82a7.54,7.54,0,0,0-1.43-1.39L235,307a31.23,31.23,0,0,0-11.34-5.57l-1.13-.28-13-3.12a1.67,1.67,0,0,0-2,1.24Z"/>
        <path class="cls-6"
              d="M154,299.11l44.88,20.22a7.24,7.24,0,0,0,9.67-4.09,22.84,22.84,0,0,1,6.3-9.06,7.91,7.91,0,0,0,1.12-11l-44-53.93Z"/>
        <path class="cls-6"
              d="M599.13,313.22s-22.47,22.23-19,44c0,0,2.87,64.3,82.1,88.42,0,0,29.85,7.46,51.67-5.17,0,0,14.35-8,20.67-21.82Z"/>
        <path class="cls-7"
              d="M613.4,299.28s-42.48,24.11-12.06,76.93c0,0,28.71,54.54,94.16,56.26,0,0,42.48,1.72,51.67-35,0,0,8.61-34.45-21.24-65.45,0,0-22.67-24.83-45-32.09-1.4-.46-2.8-.94-4.18-1.46C668.39,295.3,636.64,284.94,613.4,299.28Z"/>
        <path class="cls-6"
              d="M623.37,310.49s-34.92,19.81-9.91,63.22c0,0,23.59,44.82,77.38,46.24,0,0,34.91,1.41,42.46-28.78,0,0,7.08-28.31-17.46-53.79,0,0-18.63-20.41-37-26.38-1.16-.37-2.31-.77-3.44-1.2C668.56,307.21,642.46,298.7,623.37,310.49Z"/>
        <path class="cls-7"
              d="M622.94,313s-34.13,19.37-9.69,61.79c0,0,23.06,43.81,75.63,45.19,0,0,34.12,1.38,41.49-28.13,0,0,6.92-27.66-17.06-52.56,0,0-18.2-19.95-36.12-25.78-1.13-.37-2.26-.76-3.37-1.17C667.1,309.77,641.6,301.46,622.94,313Z"/>
        <rect class="cls-6" x="666.84" y="356.16" width="2.96" height="53.83"
              transform="translate(-80.96 204.23) rotate(-16.4)"/>
        <rect class="cls-6" x="639.04" y="347.93" width="2.96" height="53.83"
              transform="translate(-79.76 196.05) rotate(-16.4)"/>
        <rect class="cls-6" x="683.36" y="323.56" width="2.96" height="53.83"
              transform="translate(-71.08 207.57) rotate(-16.4)"/>
        <rect class="cls-7" x="667.47" y="354.26" width="2.96" height="53.83"
              transform="translate(-80.39 204.33) rotate(-16.4)"/>
        <rect class="cls-7" x="639.67" y="346.04" width="2.96" height="53.83"
              transform="translate(-79.2 196.15) rotate(-16.4)"/>
        <rect class="cls-7" x="683.99" y="321.66" width="2.96" height="53.83"
              transform="translate(-70.52 207.67) rotate(-16.4)"/>
        <rect class="cls-6" x="668.41" y="353.32" width="2.96" height="53.83"
              transform="translate(-80.09 204.56) rotate(-16.4)"/>
        <rect class="cls-6" x="640.62" y="345.09" width="2.96" height="53.83"
              transform="translate(-78.9 196.38) rotate(-16.4)"/>
        <rect class="cls-6" x="684.94" y="320.72" width="2.96" height="53.83"
              transform="translate(-70.21 207.9) rotate(-16.4)"/>
        <circle class="cls-5" cx="644.18" cy="292.1" r="5.44"/>
        <path class="cls-6"
              d="M795.47,587.47s-1,55.27,32.37,80.43c0,0,88.36,83.7,227.82,12.45,0,0,50.42-29.06,63.51-74.9,0,0,9-29.79-.54-56.83Z"/>
        <path class="cls-7"
              d="M797,545.27s-26.13,88.61,84.64,120.5c0,0,110.69,36.5,202-47.13,0,0,60.06-53.45,24.29-115.51,0,0-33.53-58.17-114.86-61.14,0,0-63.45-4-103.35,15.42-2.51,1.23-5.05,2.41-7.62,3.52C866.55,467.63,809.76,495.25,797,545.27Z"/>
        <path class="cls-6"
              d="M825.26,547.43s-21.47,72.82,69.56,99c0,0,91,30,166-38.73,0,0,49.36-43.94,20-94.93,0,0-27.56-47.82-94.4-50.25,0,0-52.15-3.29-84.94,12.67-2.07,1-4.15,2-6.26,2.89C882.44,483.62,835.76,506.32,825.26,547.43Z"/>
        <path class="cls-7"
              d="M827.94,551.38s-21,71.16,68,96.78c0,0,88.91,29.31,162.24-37.85,0,0,48.24-42.94,19.51-92.78,0,0-26.93-46.72-92.25-49.11,0,0-51-3.21-83,12.39-2,1-4,1.93-6.12,2.82C883.82,489,838.21,511.2,827.94,551.38Z"/>
        <rect class="cls-6" x="884.98" y="573.51" width="89.95" height="4.95"
              transform="translate(-119.38 884.95) rotate(-48.18)"/>
        <rect class="cls-6" x="872.2" y="526.78" width="89.95" height="4.95"
              transform="translate(-88.82 859.86) rotate(-48.18)"/>
        <rect class="cls-6" x="945.83" y="568.29" width="89.95" height="4.95"
              transform="translate(-95.22 928.56) rotate(-48.18)"/>
        <rect class="cls-7" x="884.22" y="570.72" width="89.95" height="4.95"
              transform="translate(-117.56 883.46) rotate(-48.18)"/>
        <rect class="cls-7" x="871.44" y="523.99" width="89.95" height="4.95"
              transform="translate(-86.99 858.36) rotate(-48.18)"/>
        <rect class="cls-7" x="945.07" y="565.5" width="89.95" height="4.95"
              transform="translate(-93.39 927.07) rotate(-48.18)"/>
        <rect class="cls-6" x="884.41" y="567.22" width="89.95" height="4.95"
              transform="translate(-114.88 882.43) rotate(-48.18)"/>
        <rect class="cls-6" x="871.63" y="520.49" width="89.95" height="4.95"
              transform="translate(-84.32 857.33) rotate(-48.18)"/>
        <rect class="cls-6" x="945.26" y="562" width="89.95" height="4.95"
              transform="translate(-90.72 926.04) rotate(-48.18)"/>
        <path class="cls-6"
              d="M451.22,677.47s17.28,26.72,41.29,28c0,0,69.11,11.64,112.89-67.19,0,0,14.77-30.08,6.31-56.19,0,0-5.28-17.12-18.5-27Z"/>
        <path class="cls-7"
              d="M438.39,656.81s16,50.74,79.15,30.42c0,0,64.62-18.1,81.41-87.38,0,0,11.55-44.84-25.47-63,0,0-34.7-17-74.53,7.65,0,0-31.62,18.46-44.45,40.56-.81,1.39-1.64,2.77-2.51,4.12C446.72,597.36,428.44,628.8,438.39,656.81Z"/>
        <path class="cls-6"
              d="M452.6,648.76s13.12,41.7,65,25c0,0,53.11-14.87,66.91-71.81,0,0,9.48-36.85-20.94-51.79,0,0-28.52-14-61.25,6.29,0,0-26,15.18-36.53,33.33-.67,1.15-1.35,2.28-2.06,3.39C459.44,599.9,444.42,625.74,452.6,648.76Z"/>
        <path class="cls-7"
              d="M455.15,649.79s12.82,40.75,63.57,24.43c0,0,51.9-14.54,65.39-70.18,0,0,9.27-36-20.46-50.61,0,0-27.87-13.69-59.86,6.15,0,0-25.39,14.82-35.7,32.57-.65,1.12-1.32,2.22-2,3.31C461.84,602,447.16,627.29,455.15,649.79Z"/>
        <rect class="cls-6" x="480.66" y="632.57" width="64.42" height="3.54"
              transform="translate(-231.93 967.05) rotate(-75.11)"/>
        <rect class="cls-6" x="457.34" y="606.88" width="64.42" height="3.54"
              transform="translate(-224.43 925.42) rotate(-75.11)"/>
        <rect class="cls-6" x="517.82" y="609.49" width="64.42" height="3.54"
              transform="translate(-182.02 985.81) rotate(-75.11)"/>
        <rect class="cls-7" x="482.48" y="631.02" width="64.42" height="3.54"
              transform="translate(-229.08 967.66) rotate(-75.11)"/>
        <rect class="cls-7" x="459.16" y="605.33" width="64.42" height="3.54"
              transform="translate(-221.58 926.03) rotate(-75.11)"/>
        <rect class="cls-7" x="519.64" y="607.95" width="64.42" height="3.54"
              transform="translate(-179.17 986.43) rotate(-75.11)"/>
        <rect class="cls-6" x="484.04" y="630.64" width="64.42" height="3.54"
              transform="translate(-227.56 968.88) rotate(-75.11)"/>
        <rect class="cls-6" x="460.72" y="604.95" width="64.42" height="3.54"
              transform="translate(-220.06 927.25) rotate(-75.11)"/>
        <rect class="cls-6" x="521.2" y="607.57" width="64.42" height="3.54"
              transform="matrix(0.26, -0.97, 0.97, 0.26, -177.64, 987.65)"/>
        <path class="cls-4"
              d="M278,288s-5.73-4.4,5.31-11.59c0,0,4.59,8,8.77,5.83a27.71,27.71,0,0,1,8.69-3.05c7.09-1.05,17.69-.65,19.81,10.38,0,0-.82,16.19-7.89,12.79,0,0-12.58-6.28-10.69-.36.34,1.07-.93-.67-2-1C296.55,299.93,290,300,278,288Z"/>
        <path class="cls-5"
              d="M283.24,301.38l3.7,3a1.77,1.77,0,0,0,1.77.25l434-183.33a1.74,1.74,0,0,0,.22-3.09l-3.11-1.87a1.77,1.77,0,0,0-1.57-.11L283.65,298.41A1.74,1.74,0,0,0,283.24,301.38Z"/>
        <circle class="cls-6" cx="343.66" cy="290.1" r="13.61"/>
        <path class="cls-4" d="M286,294.61l13.31,8s6.32,3.06,5.65-.28a3.71,3.71,0,0,0-1.07-1.88l-10-10.09Z"/>
        <path class="cls-6"
              d="M219.67,118.57l-43.51,11.8s-23.72,0-34.1,37.61l-23.72,78.1s-8.89,20.25,4.45,28.93c0,0-19.28,37.61-10.38,56.41,0,0,25.21-5.78,53.38-30.37,0,0,22.46-23.36,53.17-24.29A8.61,8.61,0,0,0,226.9,271l3.87-33.65a2.13,2.13,0,0,1,4.19-.21h0A69,69,0,0,0,260,276.88l.28.22c1.37,1,3.05,1.67,4.46,2.68L282,292.09a2.66,2.66,0,0,0,3.78-.74c2-3.22,5.18-10.51,11.15-11.15a1.23,1.23,0,0,0,.75-2.07c-5.06-5.41-17.44-18.74-26.18-38.54a88.15,88.15,0,0,1-7.28-33c-.67-21.45-3.71-71-17.61-75.55Z"/>
        <path class="cls-4"
              d="M287.46,39.24s-1.45,104.15-37.61,68c0,0-10.12,17.35-8.68,23.14,0,0-26,2.89-30.37-10.13,0,0,13-10.12,10.12-34.71l26-60.75Z"/>
        <path class="cls-5"
              d="M289.93,37.05c5.71-9.92,16.16-35.56-29.07-34.39A45.05,45.05,0,0,1,247.8,1.07c-7.9-2.14-23.34-2.5-35.14,21A76.51,76.51,0,0,0,207,74.28c2.52,10.47,6.78,19.62,13.92,16.78a8.9,8.9,0,0,0,5-5.53c3.46-10.35,18.29-46.11,57.47-44.91A7.26,7.26,0,0,0,289.93,37.05Z"/>
    </g>
</svg>